<?xml version="1.0" encoding="utf-8"?>
<!-- Generator: Adobe Illustrator 16.0.0, SVG Export Plug-In . SVG Version: 6.00 Build 0)  -->
<!DOCTYPE svg PUBLIC "-//W3C//DTD SVG 1.1//EN" "http://www.w3.org/Graphics/SVG/1.1/DTD/svg11.dtd">
<svg version="1.1" id="Layer_1" xmlns="http://www.w3.org/2000/svg" xmlns:xlink="http://www.w3.org/1999/xlink" x="0px" y="0px"
	 width="16px" height="16px" viewBox="0 0 16 16" enable-background="new 0 0 16 16" xml:space="preserve">
<path fill="#3C444F" d="M12.307,15.666c-0.275,0-0.555-0.104-0.836-0.311l-3.476-2.528l-3.482,2.53
	c-0.285,0.207-0.557,0.306-0.834,0.306l0,0c-0.336,0-0.637-0.151-0.83-0.418c-0.158-0.217-0.305-0.596-0.115-1.179l1.334-4.094
	L0.604,7.451c-0.719-0.52-0.625-1.104-0.551-1.332c0.072-0.227,0.34-0.757,1.229-0.757h4.285L6.901,1.27
	C7.178,0.425,7.762,0.334,8,0.334S8.823,0.425,9.098,1.27l1.33,4.093h4.295c0.889,0,1.156,0.53,1.23,0.757
	c0.074,0.228,0.166,0.812-0.553,1.333l-3.475,2.524l1.326,4.092c0.189,0.586,0.041,0.965-0.115,1.181
	C12.943,15.514,12.641,15.666,12.307,15.666z M7.995,10.844c0.184,0,0.367,0.057,0.521,0.169l2.46,1.79l-0.938-2.892
	c-0.119-0.366,0.01-0.767,0.322-0.993l2.453-1.78L9.781,7.137c-0.383,0-0.723-0.248-0.841-0.613L7.999,3.628L7.055,6.524
	C6.936,6.89,6.596,7.137,6.211,7.137H3.186l2.445,1.78c0.311,0.226,0.441,0.626,0.322,0.992L5.01,12.802l2.463-1.789
	C7.629,10.9,7.813,10.844,7.995,10.844z"/>
<rect x="-0.003" fill="none" width="16.013" height="16.001"/>
</svg>
