<?xml version="1.0" encoding="utf-8"?>
<!-- Generator: Adobe Illustrator 16.0.0, SVG Export Plug-In . SVG Version: 6.00 Build 0)  -->
<!DOCTYPE svg PUBLIC "-//W3C//DTD SVG 1.1//EN" "http://www.w3.org/Graphics/SVG/1.1/DTD/svg11.dtd">
<svg version="1.1" id="Layer_1" xmlns="http://www.w3.org/2000/svg" xmlns:xlink="http://www.w3.org/1999/xlink" x="0px" y="0px"
	 width="16px" height="16px" viewBox="0 0 16 16" enable-background="new 0 0 16 16" xml:space="preserve">
<rect fill="none" width="16" height="16"/>
<g display="none">
	<path display="inline" fill="#C0392B" d="M15.643,5.539H15.07c-0.379-0.002-0.689-0.311-0.689-0.689l-0.004-0.578
		c0-0.379-0.311-0.689-0.689-0.689l-0.578-0.003c-0.379,0-0.688-0.311-0.689-0.689l-0.002-0.577
		c-0.002-0.379-0.311-0.689-0.691-0.689L11.152,1.62c-0.379,0-0.688-0.311-0.689-0.689l-0.002-0.575
		c0-0.379-0.221-0.469-0.486-0.201l-9.82,9.819c-0.268,0.268-0.178,0.488,0.201,0.488l0.574,0.003c0.379,0,0.689,0.31,0.689,0.689
		l0.004,0.574c0,0.38,0.311,0.689,0.689,0.689l0.576,0.003c0.379,0,0.689,0.311,0.691,0.689v0.578
		c0.002,0.379,0.312,0.689,0.691,0.689l0.576,0.003c0.379,0,0.688,0.31,0.689,0.688l0.002,0.575c0,0.38,0.221,0.47,0.488,0.202
		l9.818-9.821C16.113,5.757,16.023,5.539,15.643,5.539z M12.924,7.001l-5.922,5.922c-0.268,0.268-0.705,0.268-0.973,0L3.076,9.973
		C2.809,9.705,2.809,9.268,3.076,9L9,3.078c0.266-0.268,0.705-0.268,0.973,0l2.951,2.951C13.191,6.296,13.191,6.734,12.924,7.001z"
		/>
	<path display="inline" fill="#C0392B" d="M9.973,5.023C9.705,4.755,9.266,4.755,9,5.023L5.023,8.998
		c-0.268,0.267-0.268,0.706,0,0.973l1.004,1.005c0.266,0.268,0.705,0.268,0.973,0L10.977,7c0.268-0.268,0.268-0.707,0-0.975
		L9.973,5.023z"/>
</g>
<g display="none">
	<path display="inline" fill="#C0392B" d="M7.589,10.216h0.945c0.549,0,1.061-0.446,1.135-0.991l1.119-8.233
		C10.863,0.446,10.475,0,9.924,0H6.066C5.516,0,5.133,0.445,5.213,0.989l1.228,8.237C6.523,9.771,7.039,10.216,7.589,10.216z"/>
	<circle display="inline" fill="#C0392B" cx="8.042" cy="13.795" r="2.205"/>
</g>
<path display="none" fill="#C0392B" d="M15.541,7.196L9.41,2.647C8.797,2.192,8.295,2.444,8.295,3.208v2.501l-6.916,0.77
	C0.621,6.562,0,7.248,0,8c0,0.753,0.621,1.438,1.379,1.521l6.916,0.77v2.501c0,0.762,0.502,1.016,1.117,0.563l6.127-4.514
	C16.154,8.391,16.154,7.649,15.541,7.196z"/>
<g>
	<g>
		<path fill="#C0392B" d="M1.522,9.414h0.603c0.35,0,0.676-0.285,0.723-0.633l0.714-5.252c0.048-0.348-0.201-0.632-0.551-0.632H0.55
			c-0.35,0-0.596,0.284-0.543,0.631l0.784,5.254C0.842,9.129,1.171,9.414,1.522,9.414z"/>
		<circle fill="#C0392B" cx="1.812" cy="11.697" r="1.406"/>
	</g>
	<g>
		<path fill="#C0392B" d="M7.738,9.414h0.603c0.35,0,0.676-0.285,0.724-0.633l0.715-5.252c0.047-0.348-0.202-0.632-0.553-0.632
			H6.766c-0.35,0-0.596,0.284-0.543,0.631l0.784,5.254C7.057,9.129,7.387,9.414,7.738,9.414z"/>
		<circle fill="#C0392B" cx="8.027" cy="11.697" r="1.406"/>
	</g>
	<g>
		<g>
			<path fill="#C0392B" d="M13.953,9.414h0.604c0.35,0,0.676-0.285,0.723-0.633l0.715-5.252c0.048-0.348-0.201-0.632-0.552-0.632
				h-2.461c-0.351,0-0.596,0.284-0.544,0.631l0.784,5.254C13.272,9.129,13.603,9.414,13.953,9.414z"/>
			<circle fill="#C0392B" cx="14.243" cy="11.697" r="1.406"/>
		</g>
	</g>
</g>
</svg>
