<?xml version="1.0" encoding="utf-8"?>
<!-- Generator: Adobe Illustrator 16.0.0, SVG Export Plug-In . SVG Version: 6.00 Build 0)  -->
<!DOCTYPE svg PUBLIC "-//W3C//DTD SVG 1.1//EN" "http://www.w3.org/Graphics/SVG/1.1/DTD/svg11.dtd">
<svg version="1.1" id="Layer_1" xmlns="http://www.w3.org/2000/svg" xmlns:xlink="http://www.w3.org/1999/xlink" x="0px" y="0px"
	 width="16px" height="16px" viewBox="0 0 16 16" enable-background="new 0 0 16 16" xml:space="preserve">
<rect fill="none" width="16" height="16"/>
<g>
	<path fill="#2ECC71" d="M15.643,5.539H15.07c-0.379-0.002-0.689-0.311-0.689-0.689l-0.004-0.578c0-0.379-0.311-0.689-0.689-0.689
		l-0.578-0.003c-0.379,0-0.688-0.311-0.689-0.689l-0.002-0.577c-0.002-0.379-0.311-0.689-0.691-0.689L11.152,1.62
		c-0.379,0-0.688-0.311-0.689-0.689l-0.002-0.575c0-0.379-0.221-0.469-0.486-0.201l-9.82,9.819
		c-0.268,0.268-0.178,0.488,0.201,0.488l0.574,0.003c0.379,0,0.689,0.31,0.689,0.689l0.004,0.574c0,0.38,0.311,0.689,0.689,0.689
		l0.576,0.003c0.379,0,0.689,0.311,0.691,0.689v0.578c0.002,0.379,0.312,0.689,0.691,0.689l0.576,0.003
		c0.379,0,0.688,0.31,0.689,0.688l0.002,0.575c0,0.38,0.221,0.47,0.488,0.202l9.818-9.821C16.113,5.757,16.023,5.539,15.643,5.539z
		 M12.924,7.001l-5.922,5.922c-0.268,0.268-0.705,0.268-0.973,0L3.076,9.973C2.809,9.705,2.809,9.268,3.076,9L9,3.078
		c0.266-0.268,0.705-0.268,0.973,0l2.951,2.951C13.191,6.296,13.191,6.734,12.924,7.001z"/>
	<path fill="#2ECC71" d="M9.973,5.023C9.705,4.755,9.266,4.755,9,5.023L5.023,8.998c-0.268,0.267-0.268,0.706,0,0.973l1.004,1.005
		c0.266,0.268,0.705,0.268,0.973,0L10.977,7c0.268-0.268,0.268-0.707,0-0.975L9.973,5.023z"/>
</g>
<g display="none">
	<path display="inline" fill="#2ECC71" d="M7.589,10.216h0.945c0.549,0,1.061-0.446,1.135-0.991l1.119-8.233
		C10.863,0.446,10.475,0,9.924,0H6.066C5.516,0,5.133,0.445,5.213,0.989l1.228,8.237C6.523,9.771,7.039,10.216,7.589,10.216z"/>
	<circle display="inline" fill="#2ECC71" cx="8.042" cy="13.795" r="2.205"/>
</g>
</svg>
