<svg xmlns="http://www.w3.org/2000/svg" viewBox="0 0 226 226" width="50px" height="50px"><g style="mix-blend-mode:normal" fill="none" stroke-miterlimit="10" font-family="none" font-size="none" font-weight="none" text-anchor="none"><path d="M0,226v-226h226v226z"/><path fill="#fc0" d="M178.91667,178.91667c0,0 -42.375,-14.125 -65.91667,-14.125c-23.54167,0 -65.91667,14.125 -65.91667,14.125c0,0 14.125,-47.08333 14.125,-65.91667c0,-18.83333 -14.125,-65.91667 -14.125,-65.91667c0,0 42.375,14.125 65.91667,14.125c23.54167,0 65.91667,-14.125 65.91667,-14.125c0,0 -14.125,47.08333 -14.125,65.91667c0,18.83333 14.125,65.91667 14.125,65.91667z"/><path fill="#fc0" d="M202.45833,113c0,0 -38.71192,22.49642 -52.83692,36.62142c-14.125,14.125 -36.62142,52.83692 -36.62142,52.83692c0,0 -20.14225,-36.35775 -36.62142,-52.83692c-16.47917,-16.47917 -52.83692,-36.62142 -52.83692,-36.62142c0,0 38.70721,-22.49171 52.83692,-36.61671c14.12971,-14.125 36.62142,-52.84162 36.62142,-52.84162c0,0 22.50113,38.71663 36.62142,52.84162c14.12029,14.125 52.83692,36.61671 52.83692,36.61671z"/><path fill="#fded72" d="M65.91667,113c0,26.00883 21.07921,47.08333 47.08333,47.08333c26.00412,0 47.08333,-21.0745 47.08333,-47.08333c0,-26.00883 -21.07921,-47.08333 -47.08333,-47.08333c-26.00412,0 -47.08333,21.0745 -47.08333,47.08333"/></g></svg>