<svg xmlns="http://www.w3.org/2000/svg" viewBox="0 0 172 172" width="50px" height="50px"><g style="mix-blend-mode:normal" fill="none" stroke-miterlimit="10" font-family="none" font-size="none" font-weight="none" text-anchor="none"><path d="M0,172v-172h172v172z"/><path fill="#506581" d="M45.77708,17.12161c-0.27775,0.00602 -0.55469,0.03222 -0.82865,0.07839h-10.54844c-2.06765,-0.02924 -3.99087,1.05709 -5.03322,2.843c-1.04236,1.78592 -1.04236,3.99474 0,5.78066c1.04236,1.78592 2.96558,2.87225 5.03322,2.843h5.73333v11.46667c0,26.4413 17.84317,40.43938 25.59844,45.86667c-7.75527,5.42728 -25.59844,19.42536 -25.59844,45.86667v11.46667h-5.73333c-2.06765,-0.02924 -3.99087,1.05709 -5.03322,2.843c-1.04236,1.78592 -1.04236,3.99474 0,5.78066c1.04236,1.78592 2.96558,2.87225 5.03322,2.843h10.50365c0.61915,0.10233 1.2509,0.10233 1.87005,0h78.39661c0.61915,0.10233 1.2509,0.10233 1.87005,0h10.55964c2.06765,0.02924 3.99087,-1.05709 5.03322,-2.843c1.04236,-1.78592 1.04236,-3.99474 0,-5.78066c-1.04236,-1.78592 -2.96558,-2.87225 -5.03322,-2.843h-5.73333v-11.46667c0,-26.4413 -17.84317,-40.43938 -25.59844,-45.86667c7.75527,-5.42728 25.59844,-19.42536 25.59844,-45.86667v-11.46667h5.73333c2.06765,0.02924 3.99087,-1.05709 5.03322,-2.843c1.04236,-1.78592 1.04236,-3.99474 0,-5.78066c-1.04236,-1.78592 -2.96558,-2.87225 -5.03322,-2.843h-10.58203c-0.32192,-0.05381 -0.64784,-0.08003 -0.97422,-0.07839c-0.27775,0.00602 -0.55469,0.03222 -0.82864,0.07839h-78.4638c-0.32192,-0.05381 -0.64784,-0.08003 -0.97422,-0.07839zM52.1151,45.86667h67.76979c-3.4851,21.54904 -25.36328,35.21745 -25.36328,35.21745c-1.72623,1.03646 -2.78234,2.9024 -2.78234,4.91589c0,2.01349 1.0561,3.87943 2.78234,4.91589c0,0 21.87818,13.66841 25.36328,35.21745h-11.76901c-2.55762,-9.87403 -11.44259,-17.2 -22.11589,-17.2c-10.67329,0 -19.55827,7.32597 -22.11589,17.2h-11.76901c3.4851,-21.54904 25.36328,-35.21745 25.36328,-35.21745c1.72623,-1.03646 2.78234,-2.9024 2.78234,-4.91589c0,-2.01349 -1.0561,-3.87943 -2.78234,-4.91589c0,0 -21.87818,-13.66841 -25.36328,-35.21745zM71.66667,57.33333c0,7.91773 6.4156,14.33333 14.33333,14.33333c7.91773,0 14.33333,-6.4156 14.33333,-14.33333z"/></g></svg>