<svg xmlns="http://www.w3.org/2000/svg" viewBox="0 0 172 172" width="50px" height="50px"><g style="mix-blend-mode:normal" fill="none" stroke-miterlimit="10" font-family="none" font-size="none" font-weight="none" text-anchor="none"><path d="M0,172v-172h172v172z"/><path d="M 78.833 43 L 78.833 28.666 L 93.167 28.666 L 93.167 43 L 78.833 43 Z M 114.667 57.333 L 157.667 57.333 L 157.667 14.333 L 114.667 14.333 L 114.667 57.333 Z M 64.5 57.333 L 100.333 57.333 L 107.5 57.333 L 107.5 14.333 L 64.5 14.333 L 64.5 57.333 Z M 14.333 57.333 L 57.333 57.333 L 57.333 14.333 L 14.333 14.333 L 14.333 57.333 Z M 157.667 150.5 L 157.667 86 L 93.167 86 L 119.118 111.951 C 109.182 120.317 96.428 125.416 82.417 125.416 C 57.09 125.416 35.654 108.971 28.065 86.196 L 11.1 91.851 C 21.054 121.743 49.178 143.333 82.417 143.333 C 101.38 143.333 118.638 136.264 131.841 124.674 L 157.667 150.5 Z" stroke-miterlimit="10" font-family="none" font-size="none" font-weight="none" text-anchor="none" style="mix-blend-mode: normal; fill: rgb(76, 175, 80);" transform="matrix(-1, 0, 0, -1, 168.767002, 164.832993)"></path></g></svg>