<svg xmlns="http://www.w3.org/2000/svg" viewBox="0 0 172 172" width="50px" height="50px"><g style="mix-blend-mode:normal" fill="none" stroke-miterlimit="10" font-family="none" font-size="none" font-weight="none" text-anchor="none"><path d="M0,172v-172h172v172z"/><path fill="#34b0db" d="M157.66667,14.33333l-25.8252,25.8252c-13.20358,-11.58993 -30.46159,-18.65853 -49.4248,-18.65853c-33.239,0 -61.36223,21.59026 -71.31673,51.48242l16.96484,5.65494c7.5895,-22.77566 29.02489,-39.2207 54.35189,-39.2207c14.01155,0 26.76521,5.09958 36.70117,13.46549l-25.95117,25.95117h64.5zM14.33333,107.5v43h43v-43zM64.5,107.5v43h43v-43h-7.16667zM114.66667,107.5v43h43v-43zM78.83333,121.83333h14.33333v14.33333h-14.33333z"/></g></svg>