<?xml version="1.0" encoding="iso-8859-1"?>
<!-- Generator: Adobe Illustrator 15.0.1, SVG Export Plug-In . SVG Version: 6.00 Build 0)  -->
<!DOCTYPE svg PUBLIC "-//W3C//DTD SVG 1.1//EN" "http://www.w3.org/Graphics/SVG/1.1/DTD/svg11.dtd">
<svg version="1.1" xmlns="http://www.w3.org/2000/svg" xmlns:xlink="http://www.w3.org/1999/xlink" x="0px" y="0px" width="51px"
	 height="50.667px" viewBox="0 0 51 50.667" style="enable-background:new 0 0 51 50.667;" xml:space="preserve">
<g id="catalog">
	<g>
		<path style="fill:#FFFFFF;" d="M45.744,41.946c-5.553-1.468-11.229-2.315-16.922-2.545c0.689,0.012,1.383,0.032,2.072,0.062
			c-2.732-0.17-3.408-0.656-3.408-3.533c0.008,1.143,0.016,2.287,0.021,3.43c-0.006,0-0.016,0-0.021,0
			C27.48,29.23,27.477,19.1,27.471,8.969c0.014,0,0.025,0,0.037,0c-0.008,1.135-0.016,2.269-0.021,3.402
			c0-2.857,0.676-3.39,3.408-3.222c-0.367-0.034-0.734-0.065-1.104-0.094C34,9.275,38.193,9.834,42.334,10.732
			c-0.508-0.098-1.018-0.19-1.525-0.279c2.49,0.503,3.234,1.157,3.336,3.502c0.004,5.251,0.008,10.502,0.012,15.754
			c0,1.966,0,3.932,0,5.898c0,0.003,0.105,1.427,1.57,1.81c2.139,0.58,1.795-2.028,1.797-2.034c0-0.127-0.016-0.253-0.041-0.377
			c-0.006-7.709-0.012-15.416-0.014-23.124c-0.08-1.813-1.514-3.67-3.305-4.106C38.633,6.438,32.992,5.708,27.34,5.59
			c-0.633,0.014-1.215,0.212-1.712,0.535c-0.498-0.323-1.082-0.521-1.715-0.535C18.26,5.708,12.62,6.438,7.089,7.776
			c-1.791,0.436-3.225,2.293-3.302,4.106C3.782,22.227,3.777,32.57,3.771,42.916c-0.025,0.127-0.041,0.252-0.041,0.377
			c0.002,0.008-0.342,2.616,1.796,2.035c1.464-0.381,1.571-1.807,1.57-1.811c0-4.603,0-9.206,0-13.809
			c0.004-5.251,0.007-10.502,0.012-15.753c0.101-2.345,0.845-3,3.337-3.502c-0.51,0.088-1.019,0.182-1.526,0.279
			c4.139-0.897,8.333-1.456,12.542-1.675c-0.369,0.028-0.734,0.059-1.102,0.094c2.732-0.168,3.408,0.364,3.408,3.222
			c-0.008-1.134-0.016-2.268-0.023-3.402c0.014,0,0.023,0,0.037-0.001C23.778,19.1,23.772,29.23,23.768,39.36
			c-0.008,0.002-0.016,0.002-0.023,0.002c0.008-1.145,0.016-2.287,0.023-3.432c0,2.878-0.676,3.364-3.408,3.533
			c0.691-0.03,1.381-0.051,2.072-0.062c-5.695,0.229-11.369,1.078-16.922,2.545c-0.918,0.245-1.659,1.216-1.659,2.148
			s0.74,1.472,1.659,1.229c5.434-1.436,10.982-2.28,16.553-2.529c0-0.002,0-0.006,0-0.011c0.568-0.024,1.135-0.044,1.705-0.057
			c0.686-0.017,1.324-0.228,1.859-0.575c0.535,0.348,1.173,0.559,1.861,0.575c0.568,0.013,1.137,0.033,1.705,0.057
			c0,0.005,0,0.009,0,0.011c5.568,0.249,11.119,1.094,16.551,2.529c0.92,0.244,1.658-0.296,1.658-1.229
			C47.402,43.162,46.662,42.19,45.744,41.946z M44.143,11.148c0,0.383,0,0.767,0,1.151c-0.002-0.384-0.004-0.769-0.006-1.153
			C44.139,11.146,44.141,11.147,44.143,11.148z M7.11,12.298c0-0.383,0-0.767,0-1.15c0.001-0.001,0.003-0.001,0.005-0.002
			C7.114,11.53,7.112,11.915,7.11,12.298z"/>
		<path style="fill:#FFFFFF;" d="M11.463,18.735c2.395-0.446,4.807-0.779,7.227-1c1.201-0.107,2.18-1.128,2.18-2.322
			c0-1.194-0.979-2.106-2.18-2c-2.42,0.221-4.83,0.555-7.227,1.001C10.272,14.632,9.312,15.807,9.312,17
			S10.272,18.952,11.463,18.735z"/>
		<path style="fill:#FFFFFF;" d="M11.463,26.303c2.395-0.446,4.807-0.779,7.227-1c1.201-0.107,2.18-1.128,2.18-2.322
			c0-1.194-0.979-2.106-2.18-1.999c-2.42,0.222-4.83,0.555-7.227,1c-1.191,0.218-2.152,1.393-2.152,2.586
			C9.312,25.762,10.272,26.521,11.463,26.303z"/>
		<path style="fill:#FFFFFF;" d="M11.463,33.871c2.395-0.444,4.807-0.779,7.227-1c1.201-0.106,2.18-1.128,2.18-2.322
			c0-1.195-0.979-2.107-2.18-1.999c-2.42,0.222-4.83,0.554-7.227,1.001c-1.191,0.217-2.152,1.394-2.152,2.586
			C9.312,33.33,10.272,34.089,11.463,33.871z"/>
		<path style="fill:#FFFFFF;" d="M32.469,17.747c2.418,0.205,4.83,0.522,7.227,0.951c1.191,0.216,2.152-0.543,2.152-1.737
			c0-1.194-0.961-2.369-2.152-2.585c-2.395-0.429-4.807-0.746-7.227-0.95c-1.201-0.106-2.178,0.807-2.178,2
			S31.266,17.641,32.469,17.747z"/>
		<path style="fill:#FFFFFF;" d="M32.469,25.314c2.418,0.205,4.83,0.522,7.227,0.951c1.191,0.217,2.152-0.542,2.152-1.736
			c0-1.195-0.961-2.368-2.152-2.585c-2.395-0.429-4.807-0.747-7.227-0.951c-1.201-0.106-2.178,0.808-2.178,2
			C30.291,24.188,31.266,25.209,32.469,25.314z"/>
		<path style="fill:#FFFFFF;" d="M32.469,32.884c2.418,0.205,4.83,0.521,7.227,0.95c1.191,0.218,2.152-0.543,2.152-1.736
			s-0.961-2.369-2.152-2.584c-2.395-0.43-4.807-0.748-7.227-0.953c-1.201-0.104-2.178,0.809-2.178,2.002
			S31.266,32.777,32.469,32.884z"/>
	</g>
</g>
<g id="Layer_1">
</g>
</svg>
