<?xml version="1.0" encoding="utf-8"?>
<!-- Generator: Adobe Illustrator 16.0.0, SVG Export Plug-In . SVG Version: 6.00 Build 0)  -->
<!DOCTYPE svg PUBLIC "-//W3C//DTD SVG 1.1//EN" "http://www.w3.org/Graphics/SVG/1.1/DTD/svg11.dtd">
<svg version="1.1" id="Layer_1" xmlns="http://www.w3.org/2000/svg" xmlns:xlink="http://www.w3.org/1999/xlink" x="0px" y="0px"
	 width="375px" height="115px" viewBox="0 0 375 115" enable-background="new 0 0 375 115"
	 xml:space="preserve">
<g>
	<path fill="#DE761C" d="M55.119,0c-6.531,0-12.8,1.109-18.642,3.124c1.064-0.056,2.132-0.09,3.219-0.09
		c15.535,0,37.113,8.847,44.659,23.088c1.085,1.939,1.945,3.884,1.945,6.253c0,4.533-3.019,7.982-7.553,7.982
		c-2.155,0-3.451-0.646-4.745-2.156c-1.295-1.51-1.723-3.236-2.587-4.962C65.157,22.454,52.21,15.765,39.911,15.765
		C15.535,15.765,0,34.966,0,58.483c0,23.085,15.75,42.718,39.696,42.718c12.084,0,25.892-6.04,31.498-17.474
		c0.65-1.511,1.085-3.021,2.379-4.317c1.723-2.158,3.019-2.588,5.822-2.588c4.098,0,6.474,4.101,6.474,7.982
		c0,2.155-0.863,4.316-1.945,6.259c-6.517,12.293-23.169,20.556-37.735,22.582c2.909,0.458,5.89,0.697,8.93,0.697
		c31.578,0,57.171-25.595,57.171-57.173C112.29,25.597,86.697,0,55.119,0z"/>
</g>
<g>
	<path fill="#58595B" d="M165.578,57.004c-0.716,0-1.146-0.214-1.578-0.719c-0.429-0.5-0.573-1.072-0.859-1.645
		c-2.077-3.582-6.377-5.804-10.46-5.804c-8.097,0-13.254,6.377-13.254,14.186c0,7.667,5.23,14.185,13.183,14.185
		c4.012,0,8.596-2.004,10.459-5.802c0.213-0.502,0.359-1.002,0.792-1.434c0.572-0.716,1.002-0.859,1.931-0.859
		c1.361,0,2.15,1.361,2.15,2.649c0,0.719-0.287,1.435-0.646,2.077c-2.506,4.731-9.528,7.668-14.759,7.668
		c-10.531,0-17.911-8.095-17.911-18.484c0-10.388,7.452-18.413,17.983-18.413c5.158,0,12.323,2.936,14.832,7.668
		c0.356,0.643,0.643,1.289,0.643,2.077C168.084,55.859,167.082,57.004,165.578,57.004z"/>
	<path fill="#58595B" d="M182.415,38.878c-1.574,0-2.865-1.291-2.865-2.866c0-1.507,1.291-2.792,2.865-2.792
		c1.502,0,2.793,1.285,2.793,2.792C185.208,37.587,183.917,38.878,182.415,38.878z M182.415,80.648
		c-1.364,0-2.509-1.146-2.509-2.437V48.048c0-1.361,1.145-2.436,2.509-2.436c1.289,0,2.363,1.075,2.363,2.436v30.164
		C184.778,79.502,183.704,80.648,182.415,80.648z"/>
	<path fill="#58595B" d="M212.503,48.91c-7.951,0-10.314,5.585-10.314,12.68v16.549c0,1.291-1.005,2.437-2.369,2.437
		c-1.285,0-2.434-1.146-2.434-2.437V61.589c0-10.46,4.014-16.907,15.117-16.907c1.218,0,2.077,1.002,2.077,2.147
		C214.58,47.905,213.721,48.91,212.503,48.91z"/>
	<path fill="#58595B" d="M252.479,65.028H223.46c1.219,7.093,6.021,12.179,13.543,12.179c5.085,0,8.526-2.29,11.249-6.377
		c0.499-0.713,1.002-1.288,1.931-1.288c1.146,0,2.223,1.074,2.223,2.22c0,0.433-0.143,0.858-0.358,1.218
		c-3.365,5.878-8.74,8.527-15.403,8.527c-10.245,0-17.767-8.381-17.767-18.484c0-10.388,7.449-18.413,17.979-18.413
		c9.888,0,17.699,8.241,17.699,17.983C254.556,63.88,253.91,65.028,252.479,65.028z M236.716,48.836
		c-7.095,0-12.254,5.016-13.039,11.895h26.223C248.682,53.995,243.879,48.836,236.716,48.836z"/>
	<path fill="#58595B" d="M275.688,81.506c-6.877,0-12.897-3.725-12.897-11.249c0-1.289,1.078-2.363,2.366-2.363
		s2.007,0.858,2.437,2.437c0.716,2.795,1.435,6.876,8.237,6.876c3.584,0,7.236-2.363,7.236-6.088
		c0-8.024-18.698-5.302-18.698-16.837c0-5.804,4.659-9.672,11.035-9.885c6.088-0.216,11.39,2.936,11.39,9.17
		c0,1.288-0.932,2.363-2.22,2.363c-1.291,0-1.863-0.646-2.22-1.575c-0.646-1.791-0.719-5.731-6.81-5.731
		c-2.865,0-6.16,2.15-6.16,5.299c0,8.097,18.481,5.085,18.481,16.907C287.865,77.709,283.212,81.506,275.688,81.506z"/>
	<path fill="#58595B" d="M315.096,81.506c-10.317,0-18.99-8.24-18.99-18.628s8.813-18.269,18.99-18.269
		c10.172,0,18.839,8.024,18.839,18.342C333.935,73.339,325.341,81.506,315.096,81.506z M315.096,48.836
		c-7.813,0-14.188,6.447-14.188,14.186c0,7.808,6.374,14.185,14.188,14.185c7.809,0,14.042-6.447,14.042-14.255
		C329.138,55.213,322.831,48.836,315.096,48.836z"/>
	<path fill="#58595B" d="M371.836,80.648c-1.358,0-2.437-1.146-2.437-2.437V61.661c0-7.166-2.217-12.465-10.171-12.465
		c-7.096,0-10.464,6.949-10.464,13.181v15.835c0,1.291-1.072,2.437-2.436,2.437c-1.286,0-2.363-1.146-2.363-2.437V46.973
		c0-1.288,1.145-2.436,2.436-2.436s2.363,1.218,2.363,2.436v3.009c1.937-3.295,7.382-5.445,11.036-5.445
		c3.581,0,7.163,1.218,9.886,3.581c3.873,3.368,4.513,8.673,4.513,13.543v16.551C374.199,79.502,373.2,80.648,371.836,80.648z"/>
</g>
</svg>
