<?xml version="1.0" encoding="iso-8859-1"?>
<!-- Generator: Adobe Illustrator 15.0.1, SVG Export Plug-In . SVG Version: 6.00 Build 0)  -->
<!DOCTYPE svg PUBLIC "-//W3C//DTD SVG 1.1//EN" "http://www.w3.org/Graphics/SVG/1.1/DTD/svg11.dtd">
<svg version="1.1" xmlns="http://www.w3.org/2000/svg" xmlns:xlink="http://www.w3.org/1999/xlink" x="0px" y="0px" width="51px"
	 height="50.667px" viewBox="0 0 51 50.667" style="enable-background:new 0 0 51 50.667;" xml:space="preserve">
<g id="configure">
	<g>
		<g id="comments">
			<path style="fill:#FFFFFF;" d="M47.619,8.514c-0.293-1.918-1.934-3.392-3.932-3.396L7.439,5.135
				c-2.118,0.095-3.81,1.823-3.821,3.963l0.016,24.194c0.094,2.126,1.833,3.825,3.982,3.825h2.125v0.011l1.763-0.003
				c0.034,0.002,0.067,0.011,0.103,0.011l29.948-0.016v-0.003h2.125c2.057,0,3.73-1.559,3.955-3.556L47.619,8.514z M7.618,9.135
				l1.279-0.001L7.628,9.143l-0.009,1.394L7.618,9.135z M42.135,33.12l-26.336,0.014c-0.052-0.004-0.101-0.016-0.153-0.016
				l-6.322,0.011c-1.174-0.12-1.569-0.476-1.69-1.531L7.62,11.585c0.067-2.021,0.481-2.391,2.722-2.451L40.295,9.12l0.666,0.005
				c-0.115-0.003-0.248-0.004-0.373-0.005l3.031-0.001l0.002,2.418l-0.018-2.395l-2.643-0.018c2.266,0.05,2.611,0.429,2.66,2.982
				l0.012,19.423C43.504,32.604,43.137,32.99,42.135,33.12z M37.646,19.118l-4.078,0.018c-1.105,0-2,0.896-2,2s0.895,2,2,2
				l4.078-0.018c1.104,0,2-0.896,2-2C39.646,20.013,38.75,19.118,37.646,19.118z M27.645,19.118l-4.077,0.018c-1.104,0-2,0.896-2,2
				s0.896,2,2,2l4.077-0.018c1.105,0,2-0.896,2-2C29.645,20.013,28.75,19.118,27.645,19.118z M17.645,19.118l-4.077,0.018
				c-1.104,0-2,0.896-2,2s0.896,2,2,2l4.077-0.018c1.105,0,2-0.896,2-2C19.645,20.013,18.75,19.118,17.645,19.118z"/>
		</g>
		<path style="fill:#FFFFFF;" d="M33.385,37.087c0,1.104-0.895,1.999-2,1.999h-9.74c-1.104,0-2-0.895-2-1.999l0,0
			c0-1.104,0.896-2,2-2h9.74C32.49,35.087,33.385,35.982,33.385,37.087L33.385,37.087z"/>
		<path style="fill:#FFFFFF;" d="M36.385,43.118c0,1.104-0.895,2-2,2h-15.74c-1.104,0-2-0.896-2-2l0,0c0-1.104,0.896-1.999,2-1.999
			h15.74C35.49,41.119,36.385,42.014,36.385,43.118L36.385,43.118z"/>
	</g>
</g>
<g id="Layer_1">
</g>
</svg>
