<?xml version="1.0" encoding="utf-8"?>
<!-- Generator: Adobe Illustrator 15.0.1, SVG Export Plug-In  -->
<!DOCTYPE svg PUBLIC "-//W3C//DTD SVG 1.1//EN" "http://www.w3.org/Graphics/SVG/1.1/DTD/svg11.dtd" [
	<!ENTITY ns_flows "http://ns.adobe.com/Flows/1.0/">
]>
<svg version="1.1"
	 xmlns="http://www.w3.org/2000/svg" xmlns:xlink="http://www.w3.org/1999/xlink" xmlns:a="http://ns.adobe.com/AdobeSVGViewerExtensions/3.0/"
	 x="0px" y="0px" width="51px" height="51px" viewBox="-1.548 -1.094 51 51"
	 overflow="visible" enable-background="new -1.548 -1.094 51 51" xml:space="preserve">
<defs>
</defs>
<path display="none" fill="#15465D" d="M24.08,2.021c-12.152,0-22.004,9.852-22.004,22.003c0,3.821,0.984,7.41,2.699,10.542
	c0.091,0.33,0.258,0.629,0.491,0.867c0.012,0.02,0.022,0.04,0.034,0.061l0.018-0.013c0.359,0.342,0.842,0.555,1.377,0.555
	c1.104,0,2-0.896,2-2l-0.02-0.186c0-0.217-0.043-0.421-0.106-0.616l0.011-0.008c-0.01-0.019-0.02-0.037-0.03-0.056
	c-0.072-0.198-0.175-0.38-0.302-0.544c-1.408-2.566-2.23-5.498-2.23-8.632c0-9.959,8.074-18.032,18.033-18.032
	s18.031,8.073,18.031,18.032S34.009,42.027,24.05,42.027c-3.947,0-7.582-1.286-10.551-3.438c-0.359-0.411-0.882-0.677-1.473-0.677
	c-1.082,0-1.961,0.878-1.961,1.961l0.019,0.183c0,0.493,0.188,0.938,0.489,1.283l-0.027,0.027c0.049,0.038,0.104,0.071,0.153,0.109
	c0.119,0.113,0.255,0.207,0.399,0.287c3.642,2.67,8.12,4.264,12.98,4.264c12.15,0,22.002-9.852,22.002-22.003
	S36.23,2.021,24.08,2.021z"/>
<path display="none" fill="#15465D" d="M47.571,23.634L25.512,1.638c-0.001-0.001-0.002-0.003-0.004-0.005
	c-0.001-0.001-0.003-0.002-0.005-0.004l-0.027-0.027c-0.781-0.781-2.047-0.781-2.828,0c-0.101,0.101-0.188,0.21-0.263,0.325
	l-21.8,21.738c-0.781,0.781-0.781,2.048,0,2.829c0.473,0.473,1.124,0.655,1.737,0.555l3.348-0.007
	c1.989,0.083,2.321,0.507,2.369,2.673l-0.018-2.671l-0.787-0.005l0.846-0.002l0.015,16.166c0.092,2.128,1.832,3.829,3.982,3.829h4
	c2.209,0,4-1.791,4-4v-2.125h0.012l-0.005-3.575l0.006-0.269c-0.003,0.034-0.004,0.073-0.006,0.107l-0.004-2.124h0.054l-0.044,2.016
	c0.12-1.581,0.594-1.939,2.322-2.02l3.162-0.004c1.86,0.071,2.369,0.423,2.493,2.2l-0.048-2.195l-1.032-0.007l1.093-0.001
	l0.004,2.624c-0.005-0.14-0.008-0.294-0.017-0.42l0.018,0.797l0.008,5.154c0.085,2.134,1.829,3.842,3.984,3.842h4
	c2.209,0,4-1.791,4-4v-2.125h0.015l-0.015-13.905c0-1.104-0.896-2-2-2s-2,0.896-2,2l0.013,12.211l-0.008,1.201
	c0.006-0.28,0.008-0.601,0.009-0.941l0.003,3.563h-0.029l0.018-2.622c-0.044,1.977-0.34,2.477-2.086,2.604
	c-1.946-0.156-1.902-0.851-1.902-3.954l-0.006,0.646l-0.004-2.491h-0.007v-2.125c0-2.209-1.791-4-4-4h-2v-0.056l-4,0.006v0.05h-2
	c-2.198,0-3.978,1.773-3.997,3.965l0.009,5.103c-0.021,2.175-0.215,2.721-1.933,2.855c-1.464-0.101-1.933-0.473-2.063-1.809
	l-0.012-11.99h-0.004v-2.125c0-2.209-1.791-4-4-4H6.824L24.094,5.872l20.648,20.591c0.781,0.78,2.048,0.78,2.828,0
	C48.352,25.682,48.352,24.416,47.571,23.634z M32.094,43.038l0.916,0.006l-0.916,0.002V43.038z M12.095,43.038l0.923,0.006
	l-0.923,0.002V43.038z M8.039,29.716l0.009,1.426C8.048,30.596,8.048,30.127,8.039,29.716z"/>
<path display="none" fill="#15465D" d="M46.071,7.42c-0.293-1.918-1.934-3.392-3.932-3.396L5.891,4.041
	C3.773,4.136,2.081,5.864,2.07,8.004l0.016,24.194c0.094,2.126,1.833,3.825,3.982,3.825h2.125v0.011l1.763-0.003
	c0.034,0.002,0.067,0.011,0.103,0.011l29.947-0.016v-0.003h2.125c2.057,0,3.73-1.559,3.955-3.556L46.071,7.42z M6.07,8.041
	L7.349,8.04L6.081,8.049L6.071,9.442L6.07,8.041z M40.586,32.026L14.25,32.04c-0.052-0.004-0.101-0.016-0.153-0.016l-6.322,0.011
	c-1.174-0.12-1.569-0.476-1.69-1.531L6.072,10.491C6.139,8.47,6.553,8.101,8.793,8.04l29.954-0.014l0.665,0.005
	c-0.115-0.003-0.247-0.004-0.373-0.005l3.031-0.001l0.002,2.418l-0.018-2.395l-2.643-0.018c2.267,0.05,2.611,0.429,2.66,2.982
	l0.012,19.423C41.957,31.51,41.588,31.896,40.586,32.026z M36.098,18.024l-4.078,0.018c-1.105,0-2,0.896-2,2s0.895,2,2,2
	l4.078-0.018c1.104,0,2-0.896,2-2C38.098,18.919,37.202,18.024,36.098,18.024z M26.097,18.024l-4.077,0.018c-1.104,0-2,0.896-2,2
	s0.896,2,2,2l4.077-0.018c1.104,0,2-0.896,2-2C28.097,18.919,27.202,18.024,26.097,18.024z M16.097,18.024l-4.077,0.018
	c-1.104,0-2,0.896-2,2s0.896,2,2,2l4.077-0.018c1.105,0,2-0.896,2-2C18.097,18.919,17.203,18.024,16.097,18.024z"/>
<path display="none" fill="#15465D" d="M31.836,35.993c0,1.104-0.895,1.999-2,1.999h-9.739c-1.104,0-2-0.895-2-1.999l0,0
	c0-1.104,0.896-2,2-2h9.739C30.942,33.993,31.836,34.889,31.836,35.993L31.836,35.993z"/>
<path display="none" fill="#15465D" d="M34.836,42.024c0,1.104-0.895,2-2,2H17.097c-1.104,0-2-0.896-2-2l0,0
	c0-1.104,0.896-1.999,2-1.999h15.739C33.942,40.025,34.836,40.92,34.836,42.024L34.836,42.024z"/>
<path display="none" fill="#15465D" d="M14.014,16.028l20.078-0.019c1.104,0,2-0.895,2-1.999c0-1.105-0.896-2.001-2-2.001
	l-20.078,0.019c-1.104,0-2,0.896-2,2S12.91,16.028,14.014,16.028z M42.062,29.558L42.045,5.833
	c-0.094-2.122-1.829-3.818-3.974-3.823L9.891,2.027C7.764,2.119,6.062,3.859,6.062,6.009v2.125H6.045l0.015,31.75h0.002v2.125
	c0,2.209,1.791,4,4,4h2v0.012l5.904-0.011c1.104,0,2-0.896,2-2c0-1.105-0.896-2-2-2l-6.339,0.012l2.433-0.061c-3.209,0-4-0.604-4-4
	l0.027,4.062h-0.027L10.044,6.027h0.043l-0.026,4.03c0-3.396,0.791-4,4-4l-1.293-0.031l23.113-0.013l-1.817,0.044
	c2.966,0,3.864,0.521,3.983,3.279l0.014,18.657l-7.873,0.01v0.006h-2.125c-2.209,0-4,1.791-4,4v2h-0.014l0.013,9.612
	c-0.13,0.636,0.051,1.321,0.544,1.814c0.198,0.199,0.429,0.346,0.674,0.443c0.24,0.103,0.505,0.159,0.782,0.159
	c0.698,0,1.311-0.358,1.669-0.899l13.354-13.39c0.036-0.021,0.065-0.052,0.1-0.075c0.062-0.039,0.117-0.085,0.173-0.13
	c0.027-0.023,0.056-0.043,0.081-0.066c0.41-0.366,0.673-0.894,0.673-1.486C42.112,29.842,42.092,29.698,42.062,29.558z
	 M38.038,6.011h0.008l0.001,1.363L38.038,6.011z M28.056,39.148l-0.005-3.346c0.03-3.032,0.739-3.794,4.06-3.794l-4.035,0.026
	l-0.024,3.571l-0.005-3.6l7.143-0.009L28.056,39.148z M14.014,24.028l20.078-0.018c1.104,0,2-0.896,2-2c0-1.105-0.896-2.001-2-2.001
	l-20.078,0.019c-1.104,0-2,0.896-2,2S12.91,24.028,14.014,24.028z"/>
<path display="none" fill="#15465D" d="M47.5,44.634l-6.405-6.405l-0.011,0.016l-6.879-6.879l-2.9-0.05
	c-0.021,0.026-0.042,0.054-0.064,0.08c-2.884,2.827-6.828,4.574-11.186,4.574c-8.828,0-15.984-7.156-15.984-15.984
	C4.071,11.156,11.227,4,20.055,4S36.04,11.156,36.04,19.985c0,1.768-0.3,3.462-0.83,5.052l0.029,0.012
	c-0.084,0.222-0.137,0.46-0.137,0.711l0.018,0.186c0,1.104,0.896,2,2,2c0.979,0,1.791-0.704,1.963-1.633
	c0.658-1.98,1.031-4.09,1.031-6.292C40.114,8.964,31.151,0,20.092,0S0.071,8.964,0.071,20.021c0,11.059,8.963,20.022,20.021,20.022
	c4.801,0,9.203-1.692,12.652-4.509l11.928,11.928c0.781,0.78,2.047,0.78,2.828,0C48.282,46.682,48.282,45.415,47.5,44.634z"/>
<path display="none" fill="#15465D" d="M44.007,43.881c0-0.191-0.035-0.372-0.086-0.547C42.976,36.242,38.34,30.32,31.99,27.59
	c3.692-2.526,6.117-6.77,6.117-11.58c0-7.747-6.279-14.027-14.025-14.027c-7.747,0-14.027,6.28-14.027,14.027
	c0,4.812,2.427,9.057,6.121,11.583c-6.291,2.708-10.899,8.549-11.9,15.555c-0.09,0.228-0.143,0.474-0.143,0.733l0.018,0.186
	c0,1.104,0.896,2,2,2s2-0.896,2-2l-0.003-0.024h0.051c0.948-7.75,7.426-13.779,15.372-14.032c0.171,0.007,0.339,0.026,0.512,0.026
	s0.341-0.02,0.513-0.026c7.947,0.252,14.425,6.281,15.374,14.032h0.054l0.003,0.024c0,1.104,0.895,2,2,2c1.104,0,2-0.896,2-2
	L44.007,43.881z M24.078,26.032c-5.533,0-10.019-4.485-10.019-10.019s4.485-10.02,10.019-10.02s10.018,4.486,10.018,10.02
	S29.611,26.032,24.078,26.032z"/>
<polygon display="none" fill="#15465D" points="32.344,8.318 32.344,7.256 30.608,8.011 "/>
<path display="none" fill="#15465D" d="M36.103,41.594c-0.159-7.144-4.47-13.252-10.617-16.026c2.845-2.205,4.684-5.646,4.684-9.525
	c0-6.659-5.399-12.059-12.059-12.059c-6.66,0-12.059,5.399-12.059,12.059c0,3.869,1.83,7.304,4.662,9.511
	C4.607,28.294,0.307,34.325,0.073,41.396c-0.038,0.155-0.065,0.315-0.065,0.483l0.018,0.186c0,1.104,0.896,2,2,2s2-0.896,2-2
	l-0.002-0.024h0.039c0-0.003-0.001-0.005-0.001-0.007c0-7.371,5.68-13.405,12.899-13.992c0.379,0.036,0.762,0.059,1.15,0.059
	s0.771-0.022,1.15-0.059c7.122,0.579,12.734,6.462,12.885,13.697c-0.003,0.047-0.014,0.093-0.014,0.141l0.018,0.186
	c0,1.104,0.896,2,2,2s2-0.896,2-2l-0.018-0.186C36.132,41.782,36.117,41.688,36.103,41.594z M18.076,24.036
	c-4.43,0-8.021-3.591-8.021-8.021c0-4.43,3.592-8.021,8.021-8.021c4.431,0,8.021,3.592,8.021,8.021
	C26.097,20.445,22.506,24.036,18.076,24.036z M48.132,41.88c0-0.098-0.016-0.191-0.029-0.286c-0.154-6.9-4.187-12.825-10.001-15.722
	c-0.002-0.057-0.005-0.115-0.005-0.17l-0.025-0.258c0-0.121-0.021-0.237-0.035-0.354c2.521-2.209,4.133-5.432,4.133-9.048
	c0-6.207-4.698-11.295-10.728-11.961c-0.14-0.035-0.283-0.059-0.433-0.059c-1.05,0-1.909,0.938-1.909,1.987l0.018,0.177
	c0,1.011,0.79,1.838,1.786,1.897c0.037,0.002,0.076,0.003,0.114,0.003c0.298,0,0.577-0.075,0.828-0.197
	c0.075,0.125,0.165,0.239,0.237,0.367c3.457,0.892,6.014,4.022,6.014,7.758c0,2.797-1.434,5.254-3.604,6.687l-0.083,0.12
	c-1.1,0.371-1.896,1.398-1.896,2.623l0.025,0.258c0,1.185,1.963,2.894,3.565,3.615c0.01,0.014,0.021,0.026,0.03,0.039
	c4.651,2.211,7.892,6.894,8.015,12.358c-0.005,0.055-0.017,0.108-0.017,0.165l0.018,0.186c0,1.104,0.896,2,2,2s2-0.896,2-2
	L48.132,41.88z"/>
<path display="none" fill="#15465D" d="M24.049,19.855c-1.104,0-2,0.896-2,2l0.008,12.186c0,1.104,0.896,2,2,2s2-0.896,2-2
	l-0.008-12.186C26.049,20.751,25.154,19.855,24.049,19.855z M24.079,2.021c-12.151,0-22.003,9.852-22.003,22.003
	c0,3.821,0.984,7.41,2.698,10.542c0.091,0.33,0.259,0.629,0.492,0.867c0.012,0.02,0.022,0.04,0.034,0.061l0.018-0.013
	c0.359,0.342,0.842,0.555,1.376,0.555c1.104,0,2-0.896,2-2l-0.019-0.186c0-0.217-0.044-0.421-0.107-0.616l0.012-0.008
	c-0.011-0.019-0.021-0.037-0.031-0.056c-0.072-0.198-0.174-0.38-0.302-0.544c-1.408-2.566-2.229-5.498-2.229-8.632
	c0-9.959,8.073-18.032,18.032-18.032s18.032,8.073,18.032,18.032s-8.073,18.032-18.032,18.032c-3.946,0-7.582-1.286-10.551-3.438
	c-0.359-0.411-0.882-0.677-1.472-0.677c-1.083,0-1.962,0.878-1.962,1.961l0.019,0.183c0,0.493,0.188,0.938,0.489,1.283l-0.027,0.027
	c0.05,0.038,0.104,0.071,0.153,0.109c0.119,0.113,0.255,0.207,0.4,0.287c3.641,2.67,8.119,4.264,12.979,4.264
	c12.151,0,22.003-9.852,22.003-22.003S36.23,2.021,24.079,2.021z M26.199,13.988c0-1.187-0.963-2.149-2.149-2.149
	S21.9,12.802,21.9,13.988l0.009,0.064c0,1.188,0.962,2.149,2.148,2.149c1.188,0,2.149-0.962,2.149-2.149L26.199,13.988z"/>
<path display="none" fill="#15465D" d="M24.08,2.021c-12.152,0-22.004,9.852-22.004,22.003c0,3.821,0.984,7.409,2.698,10.541
	c0.233,0.846,1.001,1.471,1.921,1.471c1.104,0,2-0.896,2-2l-0.02-0.186c0-0.468-0.166-0.893-0.436-1.232
	c-1.404-2.564-2.223-5.494-2.223-8.623c0-9.959,8.074-18.032,18.033-18.032s18.031,8.073,18.031,18.032S34.009,42.027,24.05,42.027
	c-3.952,0-7.592-1.289-10.562-3.445c-0.361-0.407-0.881-0.669-1.469-0.669c-1.086,0-1.969,0.883-1.969,1.973l0.019,0.183
	c0,0.495,0.188,0.941,0.488,1.288l-0.011,0.01c0.016,0.013,0.033,0.023,0.049,0.035c0.186,0.202,0.409,0.368,0.665,0.479
	c3.612,2.6,8.03,4.147,12.819,4.147c12.15,0,22.002-9.852,22.002-22.003S36.23,2.021,24.08,2.021z M11.974,23.958
	c0,1.104,0.896,2,2,2l8.116-0.021l0.022,8.075c0,1.104,0.832,2,1.938,2c1.104,0,2-0.896,2-2l0.002-8.087l8.107-0.021
	c1.105,0,2-0.833,2-1.938s-0.895-2-2-2l-8.105-0.003l0.004-8.137c0-1.104-0.896-2-2-2c-1.105,0-2,0.896-2,2l0.021,8.135
	l-8.105-0.003C12.871,21.958,11.974,22.854,11.974,23.958z"/>
<path display="none" fill="#15465D" d="M28.214,46.096h-8.269c-0.999,0-1.809-0.81-1.809-1.809v-3.353l-0.325-0.116
	c-0.199-0.07-0.397-0.141-0.593-0.222c-0.211-0.087-0.412-0.183-0.613-0.28l-0.28-0.132l-2.371,2.371
	c-0.679,0.679-1.88,0.679-2.558,0l-5.848-5.848c-0.706-0.706-0.706-1.852,0-2.558l3.313-3.313c0.707-0.707,1.852-0.707,2.559,0
	s0.707,1.852,0,2.558L9.386,35.43l3.289,3.288l2.035-2.035c0.578-0.581,1.477-0.697,2.188-0.284l0.2,0.119
	c0.076,0.046,0.153,0.094,0.232,0.136c0.032,0.017,0.111,0.064,0.143,0.083c0.043,0.021,0.141,0.062,0.236,0.105l0.47,0.217
	c0.138,0.067,0.274,0.135,0.418,0.193c0.136,0.056,0.273,0.104,0.413,0.152l0.413,0.148c0.166,0.062,0.332,0.123,0.503,0.175
	c0.078,0.023,0.17,0.046,0.261,0.068l0.216,0.055c0.796,0.208,1.351,0.928,1.351,1.749v2.878h4.651L26.405,39.6
	c0-0.817,0.551-1.535,1.343-1.748l0.238-0.06c0.085-0.021,0.17-0.042,0.254-0.067c0.154-0.046,0.314-0.105,0.473-0.165l0.41-0.146
	c0.146-0.051,0.293-0.101,0.436-0.161c0.133-0.054,0.262-0.117,0.393-0.18l0.403-0.19c0.16-0.074,0.318-0.146,0.476-0.229
	c0.031-0.018,0.104-0.054,0.139-0.069c-0.026,0.013,0.019-0.017,0.064-0.046c0.073-0.047,0.148-0.094,0.225-0.138
	c0.71-0.414,1.611-0.3,2.191,0.283l2.035,2.034l3.288-3.289l-2.034-2.035c-0.581-0.58-0.698-1.479-0.285-2.188l0.119-0.2
	c0.046-0.076,0.094-0.153,0.137-0.232c0.013-0.025,0.042-0.075,0.064-0.113c0.05-0.1,0.085-0.182,0.122-0.264l0.211-0.455
	c0.069-0.143,0.139-0.286,0.2-0.434c0.059-0.143,0.107-0.285,0.158-0.427l0.148-0.416c0.059-0.161,0.119-0.321,0.169-0.485
	c0.023-0.08,0.046-0.172,0.068-0.263l0.055-0.216c0.208-0.796,0.928-1.351,1.749-1.351h2.878v-4.651h-2.878
	c-0.817,0-1.534-0.55-1.747-1.34l-0.062-0.243c-0.021-0.083-0.041-0.168-0.066-0.251c-0.048-0.159-0.108-0.322-0.169-0.487
	L37.474,19c-0.052-0.152-0.105-0.305-0.167-0.454c-0.058-0.141-0.122-0.273-0.187-0.405l-0.189-0.401
	c-0.071-0.154-0.143-0.312-0.225-0.464c-0.02-0.036-0.057-0.112-0.074-0.15c0.013,0.028-0.013-0.01-0.041-0.053
	c-0.047-0.075-0.096-0.152-0.141-0.231c-0.411-0.709-0.295-1.605,0.285-2.187l2.035-2.035L35.482,9.33l-2.036,2.035
	c-0.581,0.581-1.476,0.698-2.188,0.284l-0.197-0.116c-0.077-0.047-0.154-0.095-0.234-0.138c-0.025-0.014-0.076-0.043-0.113-0.065
	c-0.099-0.05-0.18-0.085-0.261-0.12l-0.47-0.218c-0.142-0.068-0.281-0.137-0.428-0.197c-0.137-0.057-0.279-0.105-0.421-0.156
	l-0.411-0.146c-0.16-0.06-0.32-0.119-0.484-0.168c-0.094-0.028-0.186-0.051-0.278-0.074l-0.206-0.052
	c-0.796-0.208-1.351-0.928-1.351-1.749V5.571h-4.65v2.878c0,0.818-0.551,1.535-1.343,1.748l-0.229,0.058
	c-0.085,0.021-0.171,0.042-0.255,0.068c-0.173,0.051-0.336,0.111-0.5,0.173l-0.372,0.133c-0.151,0.052-0.304,0.105-0.453,0.168
	c-0.037,0.015-0.124,0.047-0.161,0.059c-0.019,0.011-0.102,0.054-0.185,0.095l-0.451,0.218c-0.162,0.074-0.322,0.147-0.479,0.231
	c-0.073,0.039-0.149,0.087-0.227,0.133l-0.2,0.119c-0.71,0.413-1.608,0.296-2.188-0.285l-2.035-2.034l-3.289,3.289l2.035,2.035
	c0.58,0.58,0.696,1.478,0.285,2.187l-0.117,0.196c-0.045,0.077-0.093,0.153-0.136,0.233c-0.015,0.029-0.045,0.082-0.069,0.122
	c-0.042,0.085-0.075,0.161-0.108,0.237l-0.212,0.454c-0.075,0.153-0.149,0.308-0.215,0.465c-0.051,0.124-0.096,0.252-0.14,0.38
	l-0.146,0.406c-0.065,0.178-0.131,0.354-0.187,0.536c-0.026,0.088-0.047,0.173-0.067,0.258l-0.057,0.222
	C10.043,21.146,9.324,21.7,8.503,21.7H5.625v4.651l2.878-0.001c0.999,0,1.809,0.81,1.809,1.809s-0.81,1.809-1.809,1.809
	l-4.688,0.001c-0.479,0-0.939-0.19-1.279-0.529c-0.338-0.34-0.529-0.8-0.529-1.279v-8.269c0-0.999,0.81-1.809,1.809-1.809h3.353
	l0.124-0.348c0.066-0.19,0.135-0.38,0.212-0.566c0.092-0.226,0.196-0.442,0.301-0.659l0.113-0.238L5.547,13.9
	c-0.706-0.707-0.706-1.852,0-2.558l5.848-5.848c0.706-0.706,1.852-0.706,2.558,0l2.371,2.371l0.304-0.147
	c0.154-0.076,0.308-0.152,0.466-0.22c0.042-0.018,0.142-0.055,0.184-0.069c0.149-0.063,0.364-0.141,0.581-0.216l0.277-0.099V3.762
	c0-0.999,0.81-1.809,1.809-1.809h8.268c0.999,0,1.809,0.81,1.809,1.809v3.354l0.31,0.11c0.204,0.071,0.409,0.144,0.61,0.228
	c0.209,0.086,0.409,0.183,0.609,0.277l0.282,0.133l2.371-2.37c0.707-0.706,1.852-0.706,2.558,0l5.848,5.848
	c0.706,0.706,0.706,1.852,0,2.558l-2.371,2.371l0.145,0.303c0.093,0.195,0.186,0.39,0.269,0.59c0.087,0.21,0.164,0.425,0.239,0.642
	l0.098,0.276h3.354c0.999,0,1.809,0.81,1.809,1.809v8.269c0,0.999-0.81,1.809-1.809,1.809h-3.354l-0.109,0.31
	c-0.072,0.205-0.145,0.409-0.229,0.61c-0.086,0.212-0.187,0.42-0.286,0.627l-0.125,0.265l2.371,2.371
	c0.339,0.34,0.53,0.8,0.53,1.279s-0.191,0.94-0.53,1.278l-5.848,5.848c-0.706,0.706-1.852,0.706-2.558,0l-2.371-2.371l-0.316,0.149
	c-0.189,0.093-0.379,0.182-0.573,0.263c-0.207,0.085-0.417,0.16-0.627,0.234l-0.295,0.104l0.001,3.354
	c0,0.479-0.19,0.939-0.529,1.278C29.154,45.904,28.694,46.096,28.214,46.096z"/>
<path display="none" fill="#15465D" d="M24.079,30.692c-3.677,0-6.668-2.991-6.668-6.668s2.991-6.668,6.668-6.668
	s6.669,2.991,6.669,6.668S27.755,30.692,24.079,30.692z M24.079,20.975c-1.682,0-3.05,1.368-3.05,3.05s1.368,3.05,3.05,3.05
	s3.05-1.368,3.05-3.05S25.76,20.975,24.079,20.975z"/>
<path display="none" fill="#15465D" d="M44.197,40.853c-5.553-1.468-11.229-2.315-16.922-2.545c0.689,0.012,1.383,0.032,2.072,0.062
	c-2.732-0.17-3.408-0.656-3.408-3.533c0.008,1.143,0.016,2.287,0.021,3.43c-0.006,0-0.016,0-0.021,0
	c-0.006-10.13-0.01-20.261-0.016-30.392c0.014,0,0.025,0,0.037,0c-0.008,1.135-0.016,2.269-0.021,3.402
	c0-2.857,0.676-3.39,3.408-3.222c-0.367-0.034-0.734-0.065-1.104-0.094c4.209,0.219,8.402,0.778,12.543,1.676
	c-0.508-0.098-1.018-0.19-1.525-0.279c2.49,0.503,3.234,1.157,3.336,3.502c0.004,5.251,0.008,10.502,0.012,15.754
	c0,1.966,0,3.932,0,5.898c0,0.003,0.105,1.427,1.57,1.81c2.139,0.58,1.795-2.029,1.797-2.034c0-0.126-0.016-0.253-0.041-0.377
	c-0.006-7.708-0.012-15.416-0.014-23.124c-0.08-1.813-1.514-3.67-3.305-4.106c-5.531-1.338-11.172-2.068-16.824-2.186
	C25.16,4.51,24.578,4.708,24.08,5.031c-0.498-0.323-1.082-0.521-1.715-0.535C16.712,4.614,11.072,5.344,5.541,6.682
	C3.75,7.118,2.316,8.976,2.239,10.788c-0.004,10.345-0.01,20.689-0.015,31.034c-0.025,0.127-0.041,0.252-0.041,0.377
	c0.002,0.008-0.342,2.616,1.796,2.035c1.464-0.381,1.571-1.807,1.57-1.811c0-4.603,0-9.206,0-13.809
	c0.004-5.251,0.007-10.502,0.012-15.753c0.101-2.345,0.845-3,3.337-3.502c-0.51,0.088-1.019,0.182-1.526,0.279
	c4.139-0.897,8.333-1.456,12.542-1.675c-0.369,0.028-0.734,0.059-1.102,0.094c2.732-0.168,3.408,0.364,3.408,3.222
	c-0.008-1.134-0.016-2.268-0.023-3.402c0.014,0,0.023,0,0.037-0.001c-0.004,10.131-0.01,20.261-0.014,30.391
	c-0.008,0.002-0.016,0.002-0.023,0.002c0.008-1.145,0.016-2.287,0.023-3.432c0,2.878-0.676,3.364-3.408,3.533
	c0.691-0.03,1.381-0.051,2.072-0.062c-5.695,0.229-11.369,1.078-16.922,2.545c-0.918,0.245-1.659,1.216-1.659,2.148
	s0.74,1.472,1.659,1.229c5.434-1.436,10.982-2.28,16.553-2.529c0-0.002,0-0.006,0-0.011c0.568-0.024,1.135-0.044,1.705-0.057
	c0.686-0.017,1.324-0.228,1.859-0.575c0.535,0.348,1.174,0.559,1.861,0.575c0.568,0.013,1.137,0.033,1.705,0.057
	c0,0.005,0,0.009,0,0.011c5.568,0.249,11.119,1.094,16.551,2.529c0.92,0.244,1.658-0.296,1.658-1.229
	C45.855,42.068,45.115,41.097,44.197,40.853z M42.595,10.055c0,0.383,0,0.767,0,1.151c-0.002-0.384-0.004-0.769-0.006-1.153
	C42.591,10.053,42.593,10.054,42.595,10.055z M5.562,11.204c0-0.383,0-0.767,0-1.15c0.001-0.001,0.003-0.001,0.005-0.002
	C5.566,10.436,5.564,10.821,5.562,11.204z"/>
<path display="none" fill="#15465D" d="M9.916,17.641c2.395-0.446,4.807-0.779,7.227-1c1.201-0.107,2.18-1.128,2.18-2.322
	c0-1.194-0.979-2.106-2.18-2c-2.42,0.221-4.83,0.555-7.227,1.001c-1.191,0.218-2.152,1.393-2.152,2.586S8.724,17.858,9.916,17.641z"
	/>
<path display="none" fill="#15465D" d="M9.916,25.209c2.395-0.446,4.807-0.779,7.227-1c1.201-0.107,2.18-1.128,2.18-2.322
	c0-1.194-0.979-2.106-2.18-1.999c-2.42,0.222-4.83,0.555-7.227,1c-1.191,0.218-2.152,1.393-2.152,2.586
	C7.764,24.668,8.724,25.428,9.916,25.209z"/>
<path display="none" fill="#15465D" d="M9.916,32.778c2.395-0.445,4.807-0.779,7.227-1c1.201-0.107,2.18-1.128,2.18-2.323
	c0-1.195-0.979-2.107-2.18-1.999c-2.42,0.221-4.83,0.554-7.227,1.001c-1.191,0.217-2.152,1.394-2.152,2.586
	C7.764,32.237,8.724,32.995,9.916,32.778z"/>
<path display="none" fill="#15465D" d="M30.921,16.653c2.418,0.205,4.83,0.522,7.227,0.951c1.191,0.216,2.152-0.543,2.152-1.737
	c0-1.194-0.961-2.369-2.152-2.585c-2.395-0.429-4.807-0.746-7.227-0.95c-1.201-0.106-2.178,0.807-2.178,2
	S29.718,16.547,30.921,16.653z"/>
<path display="none" fill="#15465D" d="M30.921,24.221c2.418,0.205,4.83,0.522,7.227,0.951c1.191,0.217,2.152-0.542,2.152-1.736
	c0-1.195-0.961-2.368-2.152-2.585c-2.395-0.429-4.807-0.747-7.227-0.951c-1.201-0.106-2.178,0.808-2.178,2
	C28.744,23.094,29.718,24.115,30.921,24.221z"/>
<path display="none" fill="#15465D" d="M30.921,31.79c2.418,0.205,4.83,0.521,7.227,0.951c1.191,0.217,2.152-0.543,2.152-1.737
	c0-1.193-0.961-2.369-2.152-2.584c-2.395-0.43-4.807-0.748-7.227-0.952c-1.201-0.105-2.178,0.808-2.178,2.001
	S29.718,31.684,30.921,31.79z"/>
<path fill="#15465D" d="M33.035,13.974c-1.806,0.594-2.966,2.419-2.645,4.351l4.111,24.402c0.434,2.033,2.378,3.387,4.449,3.052
	l4.572-0.782c2.04-0.436,3.399-2.394,3.051-4.471L46.23,38.47l0.01-0.002l-0.288-1.702c-0.004-0.034,0-0.067-0.006-0.102
	l-3.088-18.311l-0.003,0l-0.346-2.054c-0.332-1.988-2.111-3.353-4.078-3.247L33.035,13.974z M38.337,41.905l-0.209-1.235
	l0.215,1.225l1.348-0.219L38.337,41.905z M38.898,18.44l2.5,14.821c0.004,0.051,0,0.1,0.009,0.151l1.035,6.111
	c0.075,1.153-0.204,1.592-1.206,1.879l-0.53,0.105c-1.966,0.262-2.39-0.078-2.812-2.236l-3.086-18.317l-0.104-0.644
	c0.017,0.112,0.037,0.24,0.055,0.362l-0.49-2.93l2.336-0.395l-2.311,0.405l0.41,2.557c-0.32-2.198-0.975-2.431,1.486-2.893
	l0.928-0.167C38.175,17.2,38.61,17.493,38.898,18.44z"/>
<path fill="#15465D" d="M20.104,2.65c-1.958,0.22-3.485,1.86-3.485,3.876v2.083h-0.003L16.6,37.961c0,0.035,0.009,0.066,0.011,0.101
	l-0.003,1.727h0.011v2.085c0,2.105,1.666,3.811,3.749,3.902l5.619,0.016c2.097-0.012,3.791-1.67,3.884-3.745l0.017-35.527
	c-0.004-1.958-1.448-3.566-3.328-3.854L20.104,2.65z M24.578,41.869l1.365-0.01l0.009-1.242l-0.001,1.254L24.578,41.869z
	 M22.094,6.572l0.942,0.012c2.504,0.048,2.875,0.386,2.924,2.607l-0.018-2.59l-2.348-0.017l2.371,0.002l-0.002,2.971
	c0-0.124-0.002-0.253-0.004-0.366l0.004,0.652L25.952,39.2c-0.06,2.196-0.421,2.603-2.402,2.669l-1.521-0.014
	c-1.034-0.119-1.383-0.506-1.501-1.656l0.012-6.196c0-0.052-0.012-0.1-0.016-0.15l0.014-25.812
	C20.663,7.059,21.042,6.698,22.094,6.572z"/>
<rect x="19.965" y="12.997" fill="#15465D" width="6.698" height="4.247"/>
<path fill="#15465D" d="M6.773,8.531c-1.956,0.22-3.484,1.86-3.484,3.876v2.083H3.286L3.27,37.961c0,0.035,0.01,0.066,0.012,0.101
	l-0.004,1.727h0.011v2.085c0,2.105,1.666,3.811,3.749,3.902l4.64,0.016c2.096-0.012,3.791-1.67,3.884-3.745l0.017-29.646
	c-0.004-1.958-1.449-3.566-3.328-3.853L6.773,8.531z M10.267,41.869l1.365-0.01l0.01-1.242l-0.002,1.254L10.267,41.869z
	 M8.764,12.453l0.942,0.012c2.504,0.048,1.895,0.386,1.943,2.607l-0.018-2.59l-2.348-0.017l2.371,0.001l-0.001,2.971
	c-0.001-0.124-0.002-0.253-0.005-0.366l0.005,0.652L11.642,39.2c-0.06,2.196-0.422,2.603-2.403,2.669l-0.541-0.014
	c-1.034-0.119-1.383-0.506-1.501-1.656l0.012-6.196c0-0.052-0.012-0.1-0.016-0.15l0.014-19.931
	C7.333,12.939,7.712,12.579,8.764,12.453z"/>
<rect x="6.5" y="18.061" fill="#15465D" width="6.697" height="4.247"/>
<rect x="34.225" y="22.834" transform="matrix(0.9862 -0.1658 0.1658 0.9862 -3.6178 6.5749)" fill="#15465D" width="6.697" height="4.247"/>
</svg>
