<?xml version="1.0" encoding="iso-8859-1"?>
<!-- Generator: Adobe Illustrator 15.0.1, SVG Export Plug-In . SVG Version: 6.00 Build 0)  -->
<!DOCTYPE svg PUBLIC "-//W3C//DTD SVG 1.1//EN" "http://www.w3.org/Graphics/SVG/1.1/DTD/svg11.dtd">
<svg version="1.1" xmlns="http://www.w3.org/2000/svg" xmlns:xlink="http://www.w3.org/1999/xlink" x="0px" y="0px" width="51px"
	 height="50.667px" viewBox="0 0 51 50.667" style="enable-background:new 0 0 51 50.667;" xml:space="preserve">
<g id="knowledgebase">
	<g>
		<path style="fill:#FFFFFF;" d="M27.113,6.994c0.928,0,1.68,0.752,1.68,1.68v33.277c0,0.928-0.752,1.68-1.68,1.68h-3.428
			c-0.929,0-1.68-0.752-1.68-1.68V8.674c0-0.928,0.751-1.68,1.68-1.68H27.113 M27.113,3.744h-3.428c-2.718,0-4.93,2.211-4.93,4.93
			v33.277c0,2.719,2.212,4.93,4.93,4.93h3.428c2.717,0,4.93-2.211,4.93-4.93V8.674C32.043,5.956,29.83,3.744,27.113,3.744
			L27.113,3.744z"/>
		<path style="fill:#FFFFFF;" d="M11.821,11.994c0.928,0,1.68,0.752,1.68,1.68v28.277c0,0.928-0.752,1.68-1.68,1.68H9.393
			c-0.929,0-1.68-0.752-1.68-1.68V13.674c0-0.928,0.751-1.68,1.68-1.68H11.821 M11.821,8.744H9.393c-2.718,0-4.93,2.211-4.93,4.93
			v28.277c0,2.719,2.212,4.93,4.93,4.93h2.428c2.718,0,4.93-2.211,4.93-4.93V13.674C16.75,10.956,14.539,8.744,11.821,8.744
			L11.821,8.744z"/>
		<path style="fill:#FFFFFF;" d="M38.846,17.228c0.908-0.185,1.795,0.403,1.98,1.312l4.629,22.812
			c0.184,0.909-0.402,1.796-1.312,1.98l-1.398,0.284c-0.91,0.185-1.797-0.403-1.98-1.312l-4.629-22.812
			c-0.186-0.909,0.4-1.795,1.311-1.98L38.846,17.228 M38.199,14.042l-1.4,0.284c-2.662,0.541-4.391,3.147-3.85,5.812l4.629,22.812
			c0.541,2.665,3.148,4.392,5.812,3.851l1.398-0.283c2.664-0.541,4.393-3.147,3.852-5.812L44.01,17.893
			C43.469,15.229,40.861,13.502,38.199,14.042L38.199,14.042z"/>
		<rect x="20.604" y="14.312" style="fill:#FFFFFF;" width="9.687" height="3.25"/>
		<rect x="5.542" y="19.778" style="fill:#FFFFFF;" width="9.688" height="3.25"/>
		<rect x="5.542" y="25.466" style="fill:#FFFFFF;" width="9.688" height="3.25"/>
		
			<rect x="35.119" y="23.615" transform="matrix(0.98 -0.1989 0.1989 0.98 -4.2215 8.4524)" style="fill:#FFFFFF;" width="9.688" height="3.25"/>
		<rect x="20.604" y="21.776" style="fill:#FFFFFF;" width="9.687" height="3.25"/>
	</g>
</g>
<g id="Layer_1">
</g>
</svg>
