<?xml version="1.0" encoding="iso-8859-1"?>
<!-- Generator: Adobe Illustrator 15.0.1, SVG Export Plug-In . SVG Version: 6.00 Build 0)  -->
<!DOCTYPE svg PUBLIC "-//W3C//DTD SVG 1.1//EN" "http://www.w3.org/Graphics/SVG/1.1/DTD/svg11.dtd">
<svg version="1.1" xmlns="http://www.w3.org/2000/svg" xmlns:xlink="http://www.w3.org/1999/xlink" x="0px" y="0px" width="51px"
	 height="50.667px" viewBox="0 0 51 50.667" style="enable-background:new 0 0 51 50.667;" xml:space="preserve">
<g id="myitems">
	<g>
		<g id="data">
			<path style="fill:#FFFFFF;" d="M45.555,44.975c0-0.191-0.035-0.372-0.086-0.547c-0.945-7.092-5.58-13.014-11.932-15.744
				c3.693-2.526,6.117-6.77,6.117-11.58c0-7.747-6.279-14.027-14.025-14.027c-7.747,0-14.027,6.28-14.027,14.027
				c0,4.812,2.427,9.057,6.121,11.583c-6.291,2.708-10.899,8.549-11.9,15.555c-0.09,0.228-0.143,0.474-0.143,0.733l0.018,0.186
				c0,1.104,0.896,2,2,2s2-0.896,2-2l-0.003-0.024h0.051c0.948-7.75,7.426-13.779,15.372-14.032
				c0.171,0.007,0.339,0.026,0.512,0.026s0.341-0.02,0.513-0.026c7.947,0.252,14.424,6.281,15.373,14.032h0.055l0.002,0.024
				c0,1.104,0.895,2,2,2c1.104,0,2-0.896,2-2L45.555,44.975z M25.625,27.126c-5.533,0-10.019-4.485-10.019-10.019
				s4.485-10.02,10.019-10.02c5.533,0,10.017,4.486,10.017,10.02S31.158,27.126,25.625,27.126z"/>
		</g>
	</g>
</g>
<g id="Layer_1">
</g>
</svg>
