<?xml version="1.0" encoding="utf-8"?>
<!-- Generator: Adobe Illustrator 15.0.1, SVG Export Plug-In . SVG Version: 6.00 Build 0)  -->
<!DOCTYPE svg PUBLIC "-//W3C//DTD SVG 1.1//EN" "http://www.w3.org/Graphics/SVG/1.1/DTD/svg11.dtd">
<svg version="1.1" id="Layer_1" xmlns="http://www.w3.org/2000/svg" xmlns:xlink="http://www.w3.org/1999/xlink" x="0px" y="0px"
	 width="51px" height="50.667px" viewBox="0 0 51 50.667" enable-background="new 0 0 51 50.667" xml:space="preserve">
<g id="Layer_1_1_" display="none">
	<g display="inline">
		<g id="about_1_">
			<path d="M25.627,3.115c-12.152,0-22.004,9.852-22.004,22.003c0,3.821,0.984,7.41,2.699,10.542
				c0.091,0.33,0.258,0.629,0.491,0.867c0.012,0.02,0.022,0.04,0.034,0.061l0.018-0.012c0.359,0.342,0.842,0.555,1.377,0.555
				c1.104,0,2-0.896,2-2l-0.02-0.187c0-0.217-0.043-0.421-0.106-0.616l0.011-0.008c-0.01-0.02-0.02-0.037-0.03-0.056
				c-0.072-0.198-0.175-0.38-0.302-0.544c-1.408-2.566-2.23-5.498-2.23-8.632c0-9.959,8.074-18.032,18.033-18.032
				c9.958,0,18.031,8.073,18.031,18.032c0,9.958-8.072,18.033-18.031,18.033c-3.947,0-7.582-1.287-10.551-3.438
				c-0.359-0.411-0.882-0.677-1.473-0.677c-1.082,0-1.961,0.877-1.961,1.961l0.019,0.183c0,0.493,0.188,0.938,0.489,1.283
				l-0.027,0.026c0.049,0.039,0.104,0.072,0.153,0.109c0.119,0.113,0.255,0.207,0.399,0.287c3.642,2.67,8.12,4.264,12.98,4.264
				c12.149,0,22.002-9.852,22.002-22.002C47.628,12.965,37.777,3.115,25.627,3.115z"/>
		</g>
	</g>
</g>
<g id="Layer_2" display="none">
	<g id="home" display="inline">
		<path d="M49.119,24.728L27.061,2.732c-0.002-0.001-0.002-0.003-0.004-0.005c-0.002-0.001-0.004-0.002-0.006-0.004l-0.027-0.027
			c-0.78-0.781-2.046-0.781-2.828,0c-0.101,0.101-0.188,0.21-0.263,0.325l-21.8,21.738c-0.781,0.781-0.781,2.048,0,2.829
			c0.473,0.474,1.124,0.656,1.737,0.556l3.348-0.007c1.989,0.082,2.321,0.507,2.369,2.673l-0.018-2.671l-0.787-0.006l0.846-0.002
			l0.015,16.166c0.092,2.129,1.832,3.83,3.982,3.83h4c2.209,0,4-1.791,4-4v-2.125h0.012l-0.005-3.576l0.006-0.268
			c-0.003,0.033-0.004,0.072-0.006,0.106l-0.004-2.124h0.054l-0.044,2.016c0.12-1.58,0.594-1.939,2.322-2.02l3.162-0.004
			c1.86,0.07,2.369,0.423,2.493,2.199l-0.049-2.194l-1.031-0.007l1.093-0.002l0.004,2.625c-0.005-0.141-0.008-0.295-0.017-0.42
			l0.018,0.797l0.008,5.154c0.086,2.133,1.83,3.842,3.984,3.842h4c2.209,0,4-1.791,4-4v-2.125h0.016l-0.016-13.905
			c0-1.104-0.896-2-2-2s-2,0.896-2,2l0.014,12.211l-0.009,1.2c0.007-0.279,0.009-0.6,0.009-0.94l0.004,3.563h-0.029l0.018-2.623
			c-0.044,1.978-0.34,2.478-2.086,2.604c-1.945-0.155-1.902-0.851-1.902-3.954l-0.006,0.646l-0.004-2.491h-0.007v-2.125
			c0-2.209-1.791-4-4-4h-2v-0.056l-4,0.006v0.05h-2c-2.198,0-3.978,1.772-3.997,3.965l0.009,5.103
			c-0.021,2.176-0.215,2.722-1.933,2.855c-1.464-0.102-1.933-0.473-2.063-1.809l-0.012-11.99h-0.004v-2.125c0-2.209-1.791-4-4-4
			H8.372l17.27-17.221L46.29,27.557c0.78,0.78,2.048,0.78,2.828,0C49.9,26.776,49.9,25.509,49.119,24.728z M33.643,44.132
			l0.916,0.006l-0.916,0.002V44.132z M13.643,44.132l0.923,0.006l-0.923,0.002V44.132z M9.587,30.81l0.009,1.426
			C9.596,31.69,9.596,31.221,9.587,30.81z"/>
	</g>
</g>
<g id="Layer_3" display="none">
	<g display="inline">
		<g id="comments">
			<path d="M47.619,8.514c-0.293-1.918-1.934-3.392-3.932-3.396L7.439,5.135C5.321,5.23,3.629,6.958,3.618,9.098l0.016,24.194
				c0.094,2.125,1.833,3.824,3.982,3.824h2.125v0.012l1.763-0.004c0.034,0.002,0.067,0.012,0.103,0.012l29.948-0.016v-0.004h2.125
				c2.057,0,3.729-1.559,3.954-3.556L47.619,8.514z M7.618,9.135l1.279-0.001L7.628,9.143l-0.009,1.394L7.618,9.135z M42.134,33.121
				l-26.336,0.014c-0.052-0.004-0.101-0.016-0.153-0.016l-6.322,0.01c-1.174-0.119-1.569-0.476-1.69-1.53L7.62,11.585
				c0.067-2.021,0.481-2.391,2.722-2.451L40.295,9.12l0.665,0.005c-0.114-0.003-0.247-0.004-0.373-0.005l3.031-0.001l0.002,2.418
				l-0.019-2.395L40.96,9.125c2.267,0.05,2.61,0.429,2.66,2.982l0.012,19.424C43.504,32.604,43.137,32.99,42.134,33.121z
				 M37.646,19.118l-4.078,0.018c-1.105,0-2,0.896-2,2c0,1.104,0.895,2,2,2l4.078-0.018c1.104,0,2-0.896,2-2
				C39.646,20.013,38.75,19.118,37.646,19.118z M27.645,19.118l-4.077,0.018c-1.104,0-2,0.896-2,2c0,1.104,0.896,2,2,2l4.077-0.018
				c1.104,0,2-0.896,2-2C29.645,20.013,28.75,19.118,27.645,19.118z M17.645,19.118l-4.077,0.018c-1.104,0-2,0.896-2,2
				c0,1.104,0.896,2,2,2l4.077-0.018c1.105,0,2-0.896,2-2C19.645,20.013,18.75,19.118,17.645,19.118z"/>
		</g>
		<path d="M33.384,37.087c0,1.104-0.896,1.998-2,1.998h-9.739c-1.104,0-2-0.895-2-1.998l0,0c0-1.104,0.896-2,2-2h9.739
			C32.49,35.087,33.384,35.982,33.384,37.087L33.384,37.087z"/>
		<path d="M36.384,43.119c0,1.104-0.896,2-2,2H18.645c-1.104,0-2-0.896-2-2l0,0c0-1.104,0.896-2,2-2h15.739
			C35.49,41.119,36.384,42.014,36.384,43.119L36.384,43.119z"/>
	</g>
</g>
<g id="Layer_4" display="none">
	<g display="inline">
		<g id="drafts">
			<path d="M15.562,17.122l20.079-0.019c1.104,0,2-0.895,2-1.999c0-1.105-0.896-2.001-2-2.001l-20.079,0.019c-1.104,0-2,0.896-2,2
				S14.458,17.122,15.562,17.122z M43.609,30.652L43.593,6.927C43.5,4.805,41.764,3.109,39.62,3.104L11.439,3.121
				C9.312,3.212,7.61,4.953,7.61,7.103v2.125H7.593l0.015,31.75H7.61v2.125c0,2.209,1.791,4,4,4h2v0.012l5.904-0.011
				c1.104,0,2-0.896,2-2s-0.896-2-2-2l-6.339,0.013l2.433-0.062c-3.209,0-4-0.604-4-4l0.027,4.062h-0.027L11.592,7.121h0.043
				l-0.026,4.03c0-3.396,0.791-4,4-4L14.316,7.12L37.43,7.107l-1.818,0.044c2.967,0,3.865,0.521,3.984,3.279l0.014,18.657
				l-7.873,0.01v0.006h-2.125c-2.209,0-4,1.791-4,4v2h-0.014l0.013,9.611c-0.13,0.637,0.051,1.322,0.544,1.814
				c0.197,0.199,0.429,0.346,0.674,0.443c0.24,0.104,0.505,0.158,0.781,0.158c0.699,0,1.312-0.357,1.67-0.898l13.354-13.391
				c0.036-0.021,0.065-0.051,0.1-0.074c0.062-0.039,0.117-0.085,0.174-0.13c0.027-0.022,0.056-0.044,0.08-0.066
				c0.41-0.366,0.674-0.894,0.674-1.485C43.66,30.936,43.641,30.792,43.609,30.652z M39.585,7.105h0.008l0.001,1.363L39.585,7.105z
				 M29.604,40.242L29.6,36.896c0.029-3.031,0.738-3.794,4.06-3.794l-4.035,0.026L29.6,36.701L29.594,33.1l7.143-0.009
				L29.604,40.242z M15.562,25.122l20.079-0.018c1.104,0,2-0.896,2-2c0-1.105-0.896-2.001-2-2.001l-20.079,0.019
				c-1.104,0-2,0.896-2,2S14.458,25.122,15.562,25.122z"/>
		</g>
	</g>
</g>
<g id="Layer_5" display="none">
	<g id="search" display="inline">
		<path d="M49.048,45.728l-6.405-6.404l-0.011,0.016l-6.879-6.879l-2.899-0.051c-0.021,0.026-0.043,0.055-0.064,0.08
			c-2.885,2.827-6.828,4.574-11.186,4.574c-8.828,0-15.984-7.156-15.984-15.984c0-8.829,7.156-15.985,15.984-15.985
			c8.829,0,15.984,7.156,15.984,15.985c0,1.768-0.3,3.462-0.83,5.052l0.029,0.012c-0.084,0.223-0.138,0.46-0.138,0.711l0.019,0.186
			c0,1.104,0.896,2,2,2c0.979,0,1.791-0.703,1.963-1.633c0.658-1.98,1.031-4.09,1.031-6.292c0-11.058-8.964-20.021-20.021-20.021
			c-11.058,0-20.021,8.963-20.021,20.02c0,11.058,8.963,20.022,20.021,20.022c4.801,0,9.203-1.692,12.652-4.509l11.929,11.929
			c0.78,0.78,2.047,0.78,2.827,0C49.83,47.775,49.83,46.509,49.048,45.728z"/>
	</g>
</g>
<g id="Layer_7" display="none">
	<g display="inline">
		<polygon points="33.893,9.412 33.893,8.35 32.156,9.104 		"/>
		<g>
			<g id="friends">
				<path d="M37.65,42.688c-0.158-7.144-4.469-13.252-10.616-16.026c2.845-2.205,4.684-5.646,4.684-9.524
					c0-6.659-5.399-12.059-12.059-12.059c-6.66,0-12.059,5.399-12.059,12.059c0,3.869,1.83,7.304,4.662,9.511
					C6.155,29.388,1.855,35.419,1.621,42.49c-0.038,0.155-0.065,0.315-0.065,0.483l0.018,0.187c0,1.104,0.896,2,2,2s2-0.896,2-2
					l-0.002-0.025H5.61c0-0.002-0.001-0.004-0.001-0.006c0-7.371,5.68-13.405,12.899-13.992c0.379,0.035,0.762,0.059,1.15,0.059
					c0.388,0,0.771-0.021,1.15-0.059c7.122,0.578,12.734,6.462,12.885,13.697c-0.004,0.047-0.014,0.092-0.014,0.141l0.018,0.186
					c0,1.104,0.896,2,2,2c1.104,0,2-0.896,2-2l-0.018-0.186C37.68,42.876,37.665,42.783,37.65,42.688z M19.624,25.13
					c-4.43,0-8.021-3.591-8.021-8.021c0-4.43,3.592-8.021,8.021-8.021c4.431,0,8.021,3.592,8.021,8.021
					C27.645,21.539,24.054,25.13,19.624,25.13z M49.68,42.974c0-0.098-0.016-0.191-0.029-0.286c-0.153-6.899-4.187-12.825-10-15.722
					c-0.002-0.057-0.006-0.115-0.006-0.17l-0.024-0.258c0-0.121-0.021-0.238-0.035-0.354c2.521-2.209,4.133-5.432,4.133-9.048
					c0-6.207-4.698-11.295-10.728-11.961c-0.141-0.035-0.283-0.059-0.434-0.059c-1.05,0-1.908,0.938-1.908,1.987l0.018,0.177
					c0,1.011,0.79,1.838,1.786,1.896c0.036,0.002,0.075,0.003,0.114,0.003c0.297,0,0.576-0.075,0.828-0.197
					c0.074,0.125,0.164,0.239,0.236,0.367c3.457,0.892,6.014,4.022,6.014,7.758c0,2.797-1.434,5.254-3.604,6.687l-0.083,0.12
					c-1.101,0.371-1.896,1.398-1.896,2.624l0.024,0.258c0,1.185,1.963,2.894,3.565,3.615c0.01,0.014,0.021,0.025,0.029,0.039
					c4.651,2.211,7.893,6.893,8.016,12.357c-0.006,0.055-0.018,0.107-0.018,0.165l0.019,0.187c0,1.104,0.896,2,2,2
					c1.104,0,2-0.896,2-2L49.68,42.974z"/>
			</g>
		</g>
	</g>
</g>
<g id="Layer_8" display="none">
	<g display="inline">
		<g id="about">
			<path d="M25.597,20.949c-1.104,0-2,0.896-2,2l0.008,12.185c0,1.105,0.896,2,2,2s2-0.895,2-2l-0.008-12.185
				C27.598,21.845,26.702,20.949,25.597,20.949z M25.626,3.115c-12.151,0-22.003,9.852-22.003,22.003
				c0,3.821,0.984,7.41,2.698,10.542c0.091,0.33,0.259,0.629,0.492,0.867c0.012,0.02,0.022,0.04,0.034,0.061l0.018-0.012
				c0.359,0.342,0.842,0.555,1.376,0.555c1.104,0,2-0.896,2-2l-0.019-0.187c0-0.217-0.044-0.421-0.107-0.616l0.012-0.008
				c-0.011-0.02-0.021-0.037-0.031-0.056c-0.072-0.198-0.174-0.38-0.302-0.544c-1.408-2.566-2.229-5.498-2.229-8.632
				c0-9.959,8.073-18.032,18.032-18.032c9.959,0,18.032,8.073,18.032,18.032c0,9.958-8.072,18.033-18.032,18.033
				c-3.946,0-7.582-1.287-10.551-3.438c-0.359-0.411-0.882-0.677-1.472-0.677c-1.083,0-1.962,0.877-1.962,1.961l0.019,0.183
				c0,0.493,0.188,0.938,0.489,1.283l-0.027,0.026c0.05,0.039,0.104,0.072,0.153,0.109c0.119,0.113,0.255,0.207,0.4,0.287
				c3.641,2.67,8.119,4.264,12.979,4.264c12.15,0,22.003-9.852,22.003-22.002C47.628,12.965,37.777,3.115,25.626,3.115z
				 M27.747,15.082c0-1.187-0.963-2.149-2.149-2.149s-2.149,0.963-2.149,2.149l0.009,0.064c0,1.188,0.962,2.149,2.148,2.149
				c1.188,0,2.149-0.962,2.149-2.149L27.747,15.082z"/>
		</g>
	</g>
</g>
<g id="Layer_9" display="none">
	<g display="inline">
		<g id="add">
			<path d="M25.627,3.115c-12.152,0-22.004,9.852-22.004,22.003c0,3.821,0.984,7.409,2.698,10.542
				c0.233,0.846,1.001,1.471,1.921,1.471c1.104,0,2-0.896,2-2l-0.02-0.187c0-0.468-0.166-0.894-0.436-1.231
				c-1.404-2.564-2.223-5.494-2.223-8.624c0-9.959,8.074-18.032,18.033-18.032c9.958,0,18.031,8.073,18.031,18.032
				c0,9.959-8.072,18.032-18.031,18.032c-3.952,0-7.592-1.289-10.562-3.445c-0.361-0.406-0.881-0.668-1.469-0.668
				c-1.086,0-1.969,0.883-1.969,1.973l0.019,0.184c0,0.494,0.188,0.94,0.488,1.287l-0.011,0.01c0.016,0.014,0.033,0.023,0.049,0.035
				c0.186,0.203,0.409,0.369,0.665,0.479c3.612,2.601,8.03,4.147,12.819,4.147c12.15,0,22.002-9.853,22.002-22.003
				C47.627,12.968,37.777,3.115,25.627,3.115z M13.522,25.052c0,1.104,0.896,2,2,2l8.116-0.021l0.022,8.075c0,1.104,0.832,2,1.938,2
				c1.104,0,2-0.896,2-2l0.002-8.087l8.107-0.021c1.105,0,2-0.832,2-1.938c0-1.105-0.895-2-2-2l-8.105-0.003l0.004-8.137
				c0-1.104-0.896-2-2-2c-1.105,0-2,0.896-2,2l0.021,8.135l-8.105-0.003C14.418,23.052,13.522,23.947,13.522,25.052z"/>
		</g>
	</g>
</g>
<g id="Layer_10" display="none">
	<g display="inline">
		<path d="M29.762,47.189h-8.269c-0.999,0-1.809-0.811-1.809-1.809v-3.354l-0.325-0.115c-0.199-0.07-0.397-0.142-0.593-0.223
			c-0.211-0.087-0.412-0.184-0.613-0.279l-0.28-0.133l-2.371,2.371c-0.679,0.68-1.88,0.68-2.558,0L7.096,37.8
			c-0.706-0.707-0.706-1.852,0-2.559l3.313-3.312c0.707-0.707,1.852-0.707,2.559,0c0.707,0.707,0.707,1.852,0,2.558l-2.035,2.035
			l3.289,3.288l2.035-2.035c0.578-0.581,1.477-0.697,2.188-0.283l0.2,0.118c0.076,0.046,0.153,0.095,0.232,0.136
			c0.032,0.018,0.111,0.064,0.143,0.084c0.043,0.021,0.141,0.062,0.236,0.104l0.47,0.217c0.138,0.067,0.274,0.136,0.418,0.192
			c0.136,0.057,0.273,0.105,0.413,0.152l0.413,0.148c0.166,0.062,0.332,0.123,0.503,0.175c0.078,0.022,0.17,0.046,0.261,0.068
			l0.216,0.055c0.796,0.208,1.351,0.929,1.351,1.749v2.878h4.651l-0.001-2.878c0-0.816,0.551-1.535,1.343-1.748l0.238-0.061
			c0.085-0.021,0.17-0.041,0.254-0.066c0.153-0.046,0.313-0.105,0.473-0.165l0.41-0.146c0.146-0.051,0.293-0.102,0.437-0.162
			c0.133-0.053,0.262-0.116,0.393-0.18l0.402-0.189c0.16-0.074,0.318-0.146,0.477-0.229c0.031-0.019,0.104-0.055,0.139-0.07
			c-0.025,0.014,0.02-0.016,0.064-0.045c0.072-0.047,0.148-0.094,0.225-0.139c0.711-0.414,1.611-0.3,2.191,0.283l2.035,2.034
			l3.287-3.289l-2.033-2.035c-0.581-0.58-0.698-1.479-0.285-2.188l0.119-0.199c0.046-0.076,0.094-0.153,0.137-0.232
			c0.014-0.025,0.042-0.074,0.064-0.113c0.05-0.1,0.084-0.182,0.121-0.264l0.211-0.455c0.07-0.143,0.14-0.285,0.201-0.434
			c0.059-0.143,0.106-0.285,0.158-0.428l0.147-0.416c0.059-0.16,0.118-0.32,0.169-0.484c0.023-0.08,0.046-0.172,0.068-0.264
			l0.055-0.215c0.208-0.797,0.928-1.352,1.749-1.352h2.878V22.79H41.2c-0.817,0-1.534-0.55-1.747-1.34l-0.062-0.243
			c-0.021-0.083-0.041-0.168-0.065-0.251c-0.048-0.159-0.108-0.322-0.169-0.487l-0.137-0.376c-0.052-0.152-0.104-0.305-0.166-0.454
			c-0.059-0.141-0.123-0.273-0.188-0.405l-0.189-0.401c-0.07-0.154-0.143-0.312-0.225-0.464c-0.02-0.036-0.057-0.112-0.074-0.15
			c0.014,0.028-0.013-0.01-0.041-0.053c-0.047-0.075-0.096-0.152-0.141-0.231c-0.411-0.709-0.295-1.605,0.285-2.187l2.035-2.035
			l-3.289-3.289l-2.036,2.035c-0.581,0.581-1.476,0.698-2.188,0.284l-0.197-0.116c-0.076-0.047-0.153-0.095-0.233-0.138
			c-0.024-0.014-0.076-0.043-0.113-0.065c-0.099-0.05-0.18-0.085-0.261-0.12l-0.471-0.218c-0.141-0.068-0.28-0.137-0.428-0.197
			c-0.137-0.057-0.279-0.105-0.42-0.156l-0.412-0.146c-0.16-0.06-0.32-0.119-0.483-0.168c-0.095-0.028-0.187-0.051-0.278-0.074
			L29.3,11.293c-0.796-0.208-1.351-0.928-1.351-1.749V6.665H23.3v2.878c0,0.818-0.551,1.535-1.343,1.748l-0.229,0.058
			c-0.085,0.021-0.171,0.042-0.255,0.068c-0.173,0.051-0.336,0.111-0.5,0.173l-0.372,0.133c-0.151,0.052-0.304,0.105-0.453,0.168
			c-0.037,0.015-0.124,0.047-0.161,0.059c-0.019,0.011-0.102,0.054-0.185,0.095l-0.451,0.218c-0.162,0.074-0.322,0.147-0.479,0.231
			c-0.073,0.039-0.149,0.087-0.227,0.133l-0.2,0.119c-0.71,0.413-1.608,0.296-2.188-0.285l-2.035-2.034l-3.289,3.289l2.035,2.035
			c0.58,0.58,0.696,1.478,0.285,2.187l-0.117,0.196C13.09,18.21,13.042,18.286,13,18.366c-0.015,0.029-0.045,0.082-0.069,0.122
			c-0.042,0.085-0.075,0.161-0.108,0.237L12.61,19.18c-0.075,0.153-0.149,0.308-0.215,0.465c-0.051,0.124-0.096,0.252-0.14,0.38
			l-0.146,0.406c-0.065,0.178-0.131,0.354-0.187,0.536c-0.026,0.088-0.047,0.173-0.067,0.258l-0.057,0.222
			c-0.208,0.793-0.928,1.348-1.748,1.348H7.173v4.651l2.878-0.001c0.999,0,1.809,0.811,1.809,1.809c0,1-0.81,1.81-1.809,1.81
			l-4.688,0.001c-0.479,0-0.939-0.189-1.279-0.529c-0.338-0.34-0.529-0.8-0.529-1.279v-8.269c0-0.999,0.81-1.809,1.809-1.809h3.353
			l0.124-0.348c0.066-0.19,0.135-0.38,0.212-0.566c0.092-0.226,0.196-0.442,0.301-0.659l0.113-0.238l-2.371-2.371
			c-0.706-0.707-0.706-1.852,0-2.558l5.848-5.848c0.706-0.706,1.852-0.706,2.558,0l2.371,2.371l0.304-0.147
			c0.154-0.076,0.308-0.152,0.466-0.22c0.042-0.018,0.142-0.055,0.184-0.069c0.149-0.063,0.364-0.141,0.581-0.216l0.277-0.099V4.855
			c0-0.999,0.81-1.809,1.809-1.809h8.268c1,0,1.809,0.81,1.809,1.809v3.354l0.311,0.11c0.204,0.071,0.409,0.144,0.61,0.228
			C32.7,8.633,32.9,8.73,33.1,8.824l0.282,0.133l2.371-2.37c0.707-0.706,1.853-0.706,2.558,0l5.849,5.848
			c0.706,0.706,0.706,1.852,0,2.558l-2.371,2.371l0.146,0.303c0.092,0.195,0.186,0.39,0.269,0.59
			c0.087,0.21,0.164,0.425,0.239,0.642l0.098,0.276h3.354c1,0,1.81,0.81,1.81,1.809v8.27c0,0.998-0.81,1.809-1.81,1.809h-3.354
			l-0.109,0.311c-0.072,0.205-0.145,0.408-0.229,0.609c-0.086,0.212-0.188,0.42-0.286,0.627l-0.125,0.266l2.371,2.371
			c0.339,0.34,0.53,0.799,0.53,1.278s-0.191,0.94-0.53,1.278l-5.849,5.848c-0.705,0.706-1.852,0.706-2.558,0l-2.371-2.371
			l-0.315,0.148c-0.189,0.094-0.379,0.183-0.573,0.264c-0.207,0.085-0.417,0.16-0.627,0.234l-0.296,0.104l0.002,3.354
			c0,0.479-0.19,0.939-0.529,1.279C30.702,46.998,30.242,47.189,29.762,47.189z"/>
		<path d="M25.626,31.787c-3.677,0-6.668-2.992-6.668-6.668c0-3.677,2.991-6.668,6.668-6.668s6.669,2.991,6.669,6.668
			C32.295,28.794,29.303,31.787,25.626,31.787z M25.626,22.068c-1.682,0-3.05,1.368-3.05,3.05s1.368,3.049,3.05,3.049
			c1.683,0,3.05-1.367,3.05-3.049S27.309,22.068,25.626,22.068z"/>
	</g>
</g>
<g>
	<g id="about_2_">
		<path fill="#FFFFFF" d="M25.501,3.33c-12.152,0-22.004,9.852-22.004,22.003c0,3.822,0.984,7.41,2.699,10.542
			c0.092,0.33,0.258,0.629,0.492,0.867c0.012,0.02,0.021,0.039,0.033,0.061l0.018-0.014c0.359,0.342,0.842,0.555,1.377,0.555
			c1.104,0,2-0.895,2-2l-0.02-0.186c0-0.217-0.043-0.42-0.105-0.615l0.01-0.008c-0.01-0.02-0.02-0.037-0.029-0.057
			c-0.072-0.197-0.176-0.379-0.303-0.543c-1.408-2.566-2.23-5.498-2.23-8.632c0-9.959,8.074-18.032,18.033-18.032
			s18.031,8.073,18.031,18.032c0,9.958-8.072,18.033-18.031,18.033c-3.947,0-7.582-1.287-10.551-3.438
			c-0.359-0.412-0.881-0.678-1.473-0.678c-1.082,0-1.961,0.879-1.961,1.961l0.02,0.184c0,0.492,0.188,0.938,0.488,1.283
			l-0.027,0.027c0.049,0.037,0.104,0.07,0.154,0.109c0.119,0.113,0.254,0.207,0.398,0.287c3.643,2.67,8.121,4.264,12.98,4.264
			c12.15,0,22.002-9.852,22.002-22.003C47.503,13.182,37.651,3.33,25.501,3.33z"/>
	</g>
</g>
<path fill="#FFFFFF" d="M24.597,34.016c-0.447,0-0.885-0.15-1.24-0.43l-7.768-6.143c-0.866-0.686-1.014-1.943-0.329-2.809
	c0.687-0.866,1.943-1.013,2.81-0.329l6.123,4.841l8.353-11.663c0.644-0.899,1.893-1.106,2.79-0.462
	c0.898,0.644,1.105,1.893,0.462,2.79L26.223,33.18c-0.318,0.445-0.805,0.74-1.347,0.816C24.783,34.01,24.689,34.016,24.597,34.016z"
	/>
</svg>
