<?xml version="1.0" encoding="iso-8859-1"?>
<!-- Generator: Adobe Illustrator 15.0.1, SVG Export Plug-In . SVG Version: 6.00 Build 0)  -->
<!DOCTYPE svg PUBLIC "-//W3C//DTD SVG 1.1//EN" "http://www.w3.org/Graphics/SVG/1.1/DTD/svg11.dtd">
<svg version="1.1" xmlns="http://www.w3.org/2000/svg" xmlns:xlink="http://www.w3.org/1999/xlink" x="0px" y="0px" width="51px"
	 height="50.667px" viewBox="0 0 51 50.667" style="enable-background:new 0 0 51 50.667;" xml:space="preserve">
<g id="myrequests">
	<g>
		<g>
			<g id="about_3_">
				<path style="fill:#3C444F;" d="M25.501,3.116c-12.151,0-22.004,9.852-22.004,22.003c0,3.823,0.983,7.411,2.698,10.542
					c0.093,0.33,0.259,0.629,0.492,0.867c0.013,0.021,0.021,0.039,0.033,0.061l0.018-0.014c0.359,0.342,0.843,0.555,1.378,0.555
					c1.104,0,2-0.895,2-2l-0.021-0.186c0-0.217-0.043-0.42-0.104-0.615l0.01-0.008c-0.01-0.02-0.021-0.037-0.028-0.057
					c-0.072-0.197-0.177-0.379-0.304-0.543c-1.407-2.566-2.229-5.498-2.229-8.632c0-9.959,8.074-18.032,18.033-18.032
					c9.958,0,18.031,8.073,18.031,18.032c0,9.958-8.072,18.033-18.031,18.033c-3.947,0-7.582-1.287-10.552-3.438
					c-0.358-0.412-0.881-0.678-1.473-0.678c-1.082,0-1.962,0.879-1.962,1.961l0.021,0.184c0,0.492,0.188,0.938,0.488,1.283
					l-0.027,0.027c0.05,0.037,0.104,0.07,0.154,0.109c0.119,0.112,0.254,0.207,0.397,0.286c3.644,2.671,8.121,4.265,12.98,4.265
					c12.15,0,22.001-9.853,22.001-22.003C47.504,12.968,37.65,3.116,25.501,3.116z"/>
			</g>
		</g>
		<path style="fill:#3C444F;" d="M24.598,33.802c-0.447,0-0.886-0.149-1.24-0.431l-7.769-6.143
			c-0.866-0.686-1.014-1.943-0.329-2.809c0.688-0.866,1.943-1.013,2.811-0.329l6.123,4.841l8.353-11.663
			c0.643-0.899,1.893-1.106,2.789-0.462c0.898,0.644,1.105,1.893,0.463,2.79l-9.576,13.369c-0.318,0.444-0.804,0.739-1.346,0.815
			C24.784,33.795,24.69,33.802,24.598,33.802z"/>
	</g>
</g>
<g id="Layer_1">
</g>
</svg>
