<?xml version="1.0" encoding="iso-8859-1"?>
<!-- Generator: Adobe Illustrator 15.0.1, SVG Export Plug-In . SVG Version: 6.00 Build 0)  -->
<!DOCTYPE svg PUBLIC "-//W3C//DTD SVG 1.1//EN" "http://www.w3.org/Graphics/SVG/1.1/DTD/svg11.dtd">
<svg version="1.1" xmlns="http://www.w3.org/2000/svg" xmlns:xlink="http://www.w3.org/1999/xlink" x="0px" y="0px" width="51px"
	 height="50.667px" viewBox="0 0 51 50.667" style="enable-background:new 0 0 51 50.667;" xml:space="preserve">
<g id="search">
	<g id="search_1_">
		<path style="fill:#3C444F;" d="M49.049,45.728l-6.406-6.405l-0.01,0.016l-6.879-6.879l-2.9-0.05
			c-0.021,0.026-0.043,0.054-0.064,0.08c-2.885,2.827-6.829,4.574-11.186,4.574c-8.828,0-15.984-7.156-15.984-15.984
			c0-8.829,7.156-15.985,15.984-15.985c8.829,0,15.985,7.156,15.985,15.985c0,1.768-0.301,3.462-0.83,5.052l0.029,0.012
			c-0.084,0.223-0.137,0.461-0.137,0.712l0.018,0.186c0,1.104,0.896,2,2,2c0.979,0,1.791-0.704,1.963-1.633
			c0.658-1.98,1.031-4.09,1.031-6.292c0-11.058-8.963-20.021-20.022-20.021c-11.059,0-20.021,8.964-20.021,20.021
			c0,11.059,8.963,20.022,20.021,20.022c4.801,0,9.204-1.692,12.653-4.509l11.928,11.928c0.781,0.78,2.047,0.78,2.828,0
			C49.83,47.775,49.83,46.509,49.049,45.728z"/>
	</g>
</g>
<g id="Layer_1">
</g>
</svg>
