<?xml version="1.0" encoding="iso-8859-1"?>
<!-- Generator: Adobe Illustrator 15.0.1, SVG Export Plug-In . SVG Version: 6.00 Build 0)  -->
<!DOCTYPE svg PUBLIC "-//W3C//DTD SVG 1.1//EN" "http://www.w3.org/Graphics/SVG/1.1/DTD/svg11.dtd">
<svg version="1.1" xmlns="http://www.w3.org/2000/svg" xmlns:xlink="http://www.w3.org/1999/xlink" x="0px" y="0px" width="51px"
	 height="50.667px" viewBox="0 0 51 50.667" style="enable-background:new 0 0 51 50.667;" xml:space="preserve">
<g id="teamitems">
	<g>
		<polygon style="fill:#3C444F;" points="33.893,9.412 33.893,8.35 32.156,9.104 		"/>
		<g>
			<g id="friends">
				<path style="fill:#3C444F;" d="M37.65,42.688c-0.158-7.144-4.469-13.252-10.617-16.026c2.846-2.205,4.684-5.646,4.684-9.525
					c0-6.659-5.398-12.059-12.058-12.059c-6.66,0-12.059,5.399-12.059,12.059c0,3.869,1.83,7.304,4.662,9.511
					C6.155,29.388,1.855,35.419,1.621,42.49c-0.038,0.155-0.065,0.315-0.065,0.483l0.018,0.186c0,1.104,0.896,2,2,2s2-0.896,2-2
					l-0.002-0.024H5.61c0-0.003-0.001-0.005-0.001-0.007c0-7.371,5.68-13.405,12.899-13.992c0.379,0.036,0.762,0.059,1.15,0.059
					s0.771-0.022,1.15-0.059c7.123,0.579,12.734,6.462,12.884,13.697c-0.002,0.047-0.014,0.093-0.014,0.141l0.018,0.186
					c0,1.104,0.896,2,2,2c1.105,0,2-0.896,2-2l-0.018-0.186C37.68,42.876,37.664,42.782,37.65,42.688z M19.624,25.13
					c-4.43,0-8.021-3.591-8.021-8.021c0-4.43,3.592-8.021,8.021-8.021c4.431,0,8.021,3.592,8.021,8.021
					C27.645,21.539,24.054,25.13,19.624,25.13z M49.68,42.974c0-0.098-0.016-0.191-0.029-0.286c-0.154-6.9-4.186-12.825-10-15.722
					c-0.002-0.057-0.006-0.115-0.006-0.17l-0.025-0.258c0-0.121-0.02-0.237-0.035-0.354c2.521-2.209,4.133-5.432,4.133-9.048
					c0-6.207-4.697-11.295-10.727-11.961c-0.141-0.035-0.283-0.059-0.434-0.059c-1.049,0-1.908,0.938-1.908,1.987l0.018,0.177
					c0,1.011,0.789,1.838,1.785,1.897c0.037,0.002,0.076,0.003,0.115,0.003c0.297,0,0.576-0.075,0.828-0.197
					c0.074,0.125,0.164,0.239,0.236,0.367c3.457,0.892,6.014,4.022,6.014,7.758c0,2.797-1.434,5.254-3.604,6.687l-0.084,0.12
					c-1.1,0.371-1.896,1.398-1.896,2.623l0.025,0.258c0,1.185,1.963,2.894,3.566,3.615c0.01,0.014,0.02,0.026,0.029,0.039
					c4.652,2.211,7.893,6.894,8.016,12.358c-0.006,0.055-0.018,0.108-0.018,0.165l0.018,0.186c0,1.104,0.896,2,2,2
					c1.105,0,2-0.896,2-2L49.68,42.974z"/>
			</g>
		</g>
	</g>
</g>
<g id="Layer_1">
</g>
</svg>
