<?xml version="1.0" encoding="utf-8"?>
<!-- Generator: Adobe Illustrator 16.0.0, SVG Export Plug-In . SVG Version: 6.00 Build 0)  -->
<!DOCTYPE svg PUBLIC "-//W3C//DTD SVG 1.1//EN" "http://www.w3.org/Graphics/SVG/1.1/DTD/svg11.dtd">
<svg version="1.1" id="Layer_1" xmlns="http://www.w3.org/2000/svg" xmlns:xlink="http://www.w3.org/1999/xlink" x="0px" y="0px"
	 width="36px" height="36px" viewBox="0 0 36 36" enable-background="new 0 0 36 36" xml:space="preserve">
<g>
	<path fill="#3C444F" d="M8.536,1.264c0.005-0.687-0.703-1.251-1.578-1.252L2.233,0C1.366-0.003,0.65,0.554,0.65,1.241L0.642,4.617
		h7.889L8.536,1.264z"/>
	<path fill="#3C444F" d="M0.642,28.263c0.078-0.036,0.214-0.007,0.416,0.121l0.567,0.341c0.432,0.266,1.133,0.268,1.559,0.004
		l0.565-0.336c0.434-0.258,1.132-0.258,1.563,0.003l0.555,0.34C6.299,29.001,7,29.004,7.431,28.737l0.565-0.338
		c0.204-0.121,0.464-0.152,0.544-0.118V6.786H0.637L0.642,28.263z"/>
	<path fill="#3C444F" d="M8.166,30.604L7.235,31.17c-0.318,0.186-0.838,0.185-1.15-0.009l-0.923-0.564
		c-0.312-0.192-0.832-0.194-1.146-0.002l-0.931,0.566c-0.317,0.186-0.832,0.183-1.147-0.009l-0.925-0.564
		c-0.315-0.192-0.462-0.12-0.313,0.165l1.721,2.472l0.847,1.213l0.76,1.088c0.312,0.632,0.822,0.634,1.145,0.003l0.754-1.085
		l0.848-1.211l1.707-2.456C8.625,30.489,8.48,30.415,8.166,30.604z"/>
	<rect x="14.574" y="3.852" fill="#3C444F" width="20.79" height="2.446"/>
	<rect x="14.574" y="9.021" fill="#3C444F" width="20.79" height="2.446"/>
	<rect x="14.574" y="14.192" fill="#3C444F" width="20.79" height="2.446"/>
	<rect x="14.574" y="19.362" fill="#3C444F" width="20.79" height="2.446"/>
	<rect x="14.574" y="24.532" fill="#3C444F" width="20.79" height="2.446"/>
	<rect x="14.574" y="29.702" fill="#3C444F" width="2.693" height="2.446"/>
	<rect x="19.744" y="29.702" fill="#3C444F" width="2.693" height="2.446"/>
	<rect x="24.914" y="29.702" fill="#3C444F" width="2.693" height="2.446"/>
</g>
</svg>
