<?xml version="1.0" encoding="utf-8"?>
<!-- Generator: Adobe Illustrator 16.0.0, SVG Export Plug-In . SVG Version: 6.00 Build 0)  -->
<!DOCTYPE svg PUBLIC "-//W3C//DTD SVG 1.1//EN" "http://www.w3.org/Graphics/SVG/1.1/DTD/svg11.dtd">
<svg version="1.1" id="Layer_1" xmlns="http://www.w3.org/2000/svg" xmlns:xlink="http://www.w3.org/1999/xlink" x="0px" y="0px"
	 width="36px" height="36px" viewBox="0 0 36 36" enable-background="new 0 0 36 36" xml:space="preserve">
<path fill="#3C444F" d="M35.139,2.124c-0.057-0.004-1.406-0.126-3.283-0.126c-1.992,0-3.787,0.135-5.334,0.401
	c-2.752,0.475-5.857,1.562-7.574,2.214v26.74c1.517-0.56,5.527-1.989,7.894-2.397c1.209-0.207,3.002-0.317,5.188-0.317
	c0.814,0,1.543,0.016,2.076,0.031v3.399l-16.139-0.558L1.895,32.069v-3.408c0.551-0.021,1.317-0.042,2.18-0.042
	c2.045,0,3.803,0.117,5.081,0.337c2.583,0.446,6.434,1.841,7.897,2.392V4.655c-1.908-0.679-5.494-1.897-7.575-2.256
	C8.212,2.181,6.312,2.07,3.832,2.07c-1.647,0-2.923,0.052-2.923,0.052C0.401,2.142,0,2.56,0,3.068v24.121v0.567v5.293
	c0,0.257,0.104,0.503,0.289,0.682s0.44,0.295,0.69,0.265l16.988-0.592l17.053,0.592c0.01,0.001,0.021,0.001,0.033,0.001
	c0.244,0,0.48-0.095,0.656-0.266C35.895,33.553,36,33.307,36,33.05v-5.293v-0.567V3.068C36,2.579,35.627,2.17,35.139,2.124z
	 M30.74,20.06l-7.809,1.278c-0.053,0.009-0.104,0.013-0.156,0.013c-0.455,0-0.857-0.33-0.932-0.795
	c-0.086-0.517,0.264-1.003,0.779-1.088l7.812-1.278c0.521-0.085,1.004,0.265,1.088,0.782C31.609,19.488,31.258,19.975,30.74,20.06z
	 M30.74,14.768l-7.809,1.28c-0.053,0.009-0.104,0.013-0.156,0.013c-0.455,0-0.857-0.33-0.932-0.794
	c-0.086-0.517,0.264-1.004,0.779-1.089l7.812-1.28c0.518-0.083,1.004,0.265,1.088,0.781C31.609,14.195,31.258,14.683,30.74,14.768z
	 M30.74,9.476l-7.809,1.28c-0.053,0.009-0.104,0.013-0.156,0.013c-0.455,0-0.857-0.33-0.932-0.794
	c-0.086-0.517,0.264-1.004,0.779-1.089l7.812-1.28c0.518-0.082,1.004,0.266,1.088,0.781C31.609,8.903,31.258,9.391,30.74,9.476z
	 M5.564,7.605l7.81,1.28c0.517,0.085,0.868,0.572,0.783,1.089c-0.076,0.464-0.477,0.794-0.934,0.794
	c-0.05,0-0.102-0.004-0.154-0.013l-7.812-1.28C4.741,9.391,4.391,8.903,4.476,8.387C4.559,7.871,5.044,7.52,5.564,7.605z
	 M5.564,12.897l7.81,1.28c0.517,0.085,0.868,0.572,0.783,1.089c-0.076,0.464-0.477,0.794-0.934,0.794
	c-0.05,0-0.102-0.004-0.154-0.013l-7.812-1.28c-0.516-0.085-0.866-0.572-0.781-1.089C4.559,13.162,5.044,12.811,5.564,12.897z
	 M5.564,18.189l7.81,1.278c0.517,0.085,0.868,0.571,0.783,1.088c-0.076,0.464-0.477,0.795-0.934,0.795
	c-0.05,0-0.102-0.004-0.154-0.013L5.257,20.06c-0.516-0.085-0.866-0.571-0.781-1.088C4.559,18.455,5.046,18.104,5.564,18.189z"/>
<rect fill="none" width="36" height="36"/>
</svg>
