<?xml version="1.0" encoding="utf-8"?>
<!-- Generator: Adobe Illustrator 16.0.0, SVG Export Plug-In . SVG Version: 6.00 Build 0)  -->
<!DOCTYPE svg PUBLIC "-//W3C//DTD SVG 1.1//EN" "http://www.w3.org/Graphics/SVG/1.1/DTD/svg11.dtd">
<svg version="1.1" id="Layer_1" xmlns="http://www.w3.org/2000/svg" xmlns:xlink="http://www.w3.org/1999/xlink" x="0px" y="0px"
	 width="36px" height="36px" viewBox="0 0 36 36" enable-background="new 0 0 36 36" xml:space="preserve">
<rect fill="none" width="36" height="36"/>
<g>
	<path fill="#FFFFFF" d="M35.053,3.522H0.947C0.424,3.522,0,3.946,0,4.47v22.254c0,0.524,0.424,0.947,0.947,0.947h10.884v2.913
		H7.309c-0.523,0-0.947,0.424-0.947,0.947s0.424,0.947,0.947,0.947h5.47h10.447h5.468c0.523,0,0.947-0.424,0.947-0.947
		s-0.424-0.947-0.947-0.947h-4.521v-2.913h10.88c0.523,0,0.947-0.423,0.947-0.947V4.47C36,3.946,35.576,3.522,35.053,3.522z
		 M34.105,25.776h-10.88H12.778H1.895V5.417h32.211V25.776z"/>
	<path fill="#FFFFFF" d="M32.338,7.273H3.664v16.647h28.674V7.273z M11.982,15.848H7.977c-0.412,0-0.745-0.344-0.745-0.77
		s0.333-0.77,0.745-0.77h4.006c0.413,0,0.748,0.344,0.748,0.77S12.396,15.848,11.982,15.848z M20.004,15.848h-4.008
		c-0.411,0-0.746-0.344-0.746-0.77s0.335-0.77,0.746-0.77h4.008c0.411,0,0.746,0.344,0.746,0.77S20.415,15.848,20.004,15.848z
		 M28.025,15.848h-4.008c-0.413,0-0.746-0.344-0.746-0.77s0.333-0.77,0.746-0.77h4.008c0.41,0,0.745,0.344,0.745,0.77
		S28.436,15.848,28.025,15.848z"/>
</g>
</svg>
