<?xml version="1.0" encoding="utf-8"?>
<!-- Generator: Adobe Illustrator 16.0.0, SVG Export Plug-In . SVG Version: 6.00 Build 0)  -->
<!DOCTYPE svg PUBLIC "-//W3C//DTD SVG 1.1//EN" "http://www.w3.org/Graphics/SVG/1.1/DTD/svg11.dtd">
<svg version="1.1" id="Layer_1" xmlns="http://www.w3.org/2000/svg" xmlns:xlink="http://www.w3.org/1999/xlink" x="0px" y="0px"
	 width="36px" height="36px" viewBox="0 0 36 36" enable-background="new 0 0 36 36" xml:space="preserve">
<rect fill="none" width="36" height="36"/>
<g>
	<path fill="#FFFFFF" d="M35.979,31.085L31.055,9.462c-0.104-0.453-0.554-0.735-1.006-0.632l-7.757,1.767
		c-0.327,0.074-0.562,0.333-0.63,0.641V9.261c0-0.465-0.376-0.84-0.84-0.84H10.597c-0.464,0-0.84,0.375-0.84,0.84v23.778
		c0,0.465,0.376,0.84,0.84,0.84h10.226c0.464,0,0.84-0.375,0.84-0.84V11.615l4.924,21.609c0.101,0.453,0.552,0.735,1.006,0.633
		l7.754-1.767C35.799,31.987,36.082,31.538,35.979,31.085z M15.71,12.045c1.267,0,2.297,1.03,2.297,2.297s-1.03,2.297-2.297,2.297
		s-2.297-1.03-2.297-2.297S14.443,12.045,15.71,12.045z M16.55,29.089c0,0.465-0.375,0.84-0.84,0.84c-0.464,0-0.84-0.375-0.84-0.84
		v-5.153c0-0.464,0.376-0.84,0.84-0.84c0.465,0,0.84,0.376,0.84,0.84V29.089z M19.982,20.825h-8.546v-1.68h8.546V20.825z
		 M24.551,16.736l6.119-1.395l0.372,1.639l-6.117,1.393L24.551,16.736z M26.305,24.432l-0.374-1.639l6.119-1.394l0.372,1.638
		L26.305,24.432z"/>
	<circle fill="#FFFFFF" cx="15.71" cy="14.342" r="0.617"/>
	<path fill="#FFFFFF" d="M8.878,2.12H0.84C0.375,2.12,0,2.496,0,2.96v30.079c0,0.465,0.375,0.84,0.84,0.84h8.038
		c0.465,0,0.84-0.375,0.84-0.84V2.96C9.718,2.496,9.343,2.12,8.878,2.12z M4.019,7.821c0-0.465,0.376-0.84,0.84-0.84
		c0.465,0,0.84,0.375,0.84,0.84v1.192c0,0.465-0.375,0.84-0.84,0.84c-0.464,0-0.84-0.375-0.84-0.84V7.821z M5.698,29.089
		c0,0.465-0.375,0.84-0.84,0.84c-0.464,0-0.84-0.375-0.84-0.84v-9.478c0-0.464,0.376-0.839,0.84-0.839
		c0.465,0,0.84,0.375,0.84,0.839V29.089z M8.038,15.182H1.68v-1.68h6.358V15.182z"/>
</g>
</svg>
