<?xml version="1.0" encoding="utf-8"?>
<!-- Generator: Adobe Illustrator 16.0.0, SVG Export Plug-In . SVG Version: 6.00 Build 0)  -->
<!DOCTYPE svg PUBLIC "-//W3C//DTD SVG 1.1//EN" "http://www.w3.org/Graphics/SVG/1.1/DTD/svg11.dtd">
<svg version="1.1" id="Layer_1" xmlns="http://www.w3.org/2000/svg" xmlns:xlink="http://www.w3.org/1999/xlink" x="0px" y="0px"
	 width="36px" height="36px" viewBox="0 0 36 36" enable-background="new 0 0 36 36" xml:space="preserve">
<rect fill="none" width="36" height="36"/>
<g>
	<path fill="#3C444F" d="M13.791,25.268c1.288-1.016,2.12-2.586,2.12-4.351c0-3.053-2.482-5.537-5.535-5.537
		c-3.055,0-5.539,2.484-5.539,5.537c0,1.765,0.833,3.335,2.121,4.351C2.914,26.684,0,30.529,0,35.053C0,35.576,0.424,36,0.947,36
		h18.852c0.008,0,0.012-0.001,0.02,0c0.523,0,0.947-0.424,0.947-0.947c0-0.068-0.008-0.134-0.021-0.198
		C20.66,30.418,17.774,26.663,13.791,25.268z"/>
	<path fill="#3C444F" d="M26.229,0.13c-5.387,0-9.768,4.382-9.768,9.77c0,5.387,4.381,9.77,9.768,9.77
		c5.389,0,9.771-4.383,9.771-9.77C36,4.512,31.617,0.13,26.229,0.13z M29.986,8.545l-4.047,4.048
		c-0.178,0.178-0.418,0.277-0.67,0.277s-0.492-0.1-0.67-0.277l-2.127-2.127c-0.371-0.37-0.371-0.97,0-1.34
		c0.369-0.37,0.969-0.37,1.34,0l1.457,1.457l3.377-3.378c0.369-0.37,0.969-0.37,1.34,0C30.355,7.575,30.355,8.175,29.986,8.545z"/>
</g>
</svg>
