<?xml version="1.0" encoding="utf-8"?>
<!-- Generator: Adobe Illustrator 16.0.0, SVG Export Plug-In . SVG Version: 6.00 Build 0)  -->
<!DOCTYPE svg PUBLIC "-//W3C//DTD SVG 1.1//EN" "http://www.w3.org/Graphics/SVG/1.1/DTD/svg11.dtd">
<svg version="1.1" id="Layer_1" xmlns="http://www.w3.org/2000/svg" xmlns:xlink="http://www.w3.org/1999/xlink" x="0px" y="0px"
	 width="36px" height="36px" viewBox="0 0 36 36" enable-background="new 0 0 36 36" xml:space="preserve">
<rect fill="none" width="36" height="36"/>
<g>
	<path fill="#3C444F" d="M17.623,0C7.906,0,0,7.905,0,17.623c0,4.679,1.806,9.054,5.097,12.376l-1.586,4.933
		c-0.093,0.29-0.018,0.608,0.197,0.824C3.864,35.914,4.075,36,4.29,36c0.081,0,0.161-0.012,0.24-0.036l6.497-1.996
		c2.094,0.846,4.311,1.274,6.596,1.274c9.717,0,17.622-7.904,17.622-17.619C35.244,7.905,27.34,0,17.623,0z M25.986,25.549
		c0,0.452-0.365,0.818-0.818,0.818H10.074c-0.451,0-0.818-0.366-0.818-0.818V10.452c0-0.452,0.367-0.817,0.818-0.817h15.094
		c0.453,0,0.818,0.365,0.818,0.817V25.549z"/>
	<path fill="#3C444F" d="M21.119,14.492l-4.814,4.812l-2.181-2.18c-0.406-0.406-1.064-0.406-1.47,0
		c-0.406,0.406-0.406,1.065,0,1.471l2.916,2.914c0.203,0.203,0.47,0.305,0.735,0.305s0.532-0.102,0.734-0.305l5.549-5.548
		c0.404-0.406,0.404-1.063,0-1.47C22.184,14.086,21.525,14.086,21.119,14.492z"/>
</g>
</svg>
