<?xml version="1.0" encoding="utf-8"?>
<!-- Generator: Adobe Illustrator 16.0.0, SVG Export Plug-In . SVG Version: 6.00 Build 0)  -->
<!DOCTYPE svg PUBLIC "-//W3C//DTD SVG 1.1//EN" "http://www.w3.org/Graphics/SVG/1.1/DTD/svg11.dtd">
<svg version="1.1" id="Layer_1" xmlns="http://www.w3.org/2000/svg" xmlns:xlink="http://www.w3.org/1999/xlink" x="0px" y="0px"
	 width="36px" height="36px" viewBox="0 0 36 36" enable-background="new 0 0 36 36" xml:space="preserve">
<rect fill="none" width="36" height="36"/>
<g>
	<path fill="#3C444F" d="M31.97,4.024C29.374,1.43,25.923,0,22.252,0s-7.125,1.43-9.724,4.026
		c-5.131,5.132-5.332,13.337-0.633,18.729l-1.585,1.592L9.395,23.43c-0.355-0.355-0.984-0.355-1.34,0l-7.777,7.783
		c-0.37,0.369-0.37,0.969,0,1.34l3.166,3.17C3.621,35.9,3.862,36,4.113,36c0.252,0,0.492-0.1,0.67-0.277l7.777-7.785
		c0.37-0.369,0.37-0.969,0-1.34l-0.911-0.91l1.586-1.592c2.502,2.186,5.664,3.389,9.015,3.389c3.672,0,7.122-1.43,9.717-4.025
		C37.325,18.102,37.325,9.384,31.97,4.024z M30.627,22.121c-2.237,2.236-5.211,3.469-8.377,3.469c-3.164,0-6.139-1.232-8.378-3.469
		C9.252,17.5,9.25,9.985,13.868,5.366c2.241-2.239,5.218-3.472,8.384-3.472c3.164,0,6.14,1.231,8.379,3.47
		C35.247,9.985,35.245,17.5,30.627,22.121z"/>
	<path fill="#3C444F" d="M28.948,7.046c-1.789-1.789-4.167-2.773-6.696-2.773c-2.531,0-4.91,0.985-6.701,2.774
		c-3.691,3.692-3.69,9.7,0.003,13.391c1.79,1.789,4.167,2.773,6.696,2.773c2.53,0,4.907-0.984,6.695-2.773
		C32.637,16.747,32.638,10.739,28.948,7.046z M26.495,17.985c-0.137,0.137-0.318,0.207-0.498,0.207c-0.181,0-0.36-0.07-0.499-0.207
		c-0.276-0.275-0.276-0.723,0-0.998c1.787-1.789,1.789-4.697,0.002-6.486c-0.276-0.275-0.276-0.722,0-0.999
		c0.273-0.275,0.722-0.275,0.997,0C28.834,11.84,28.834,15.647,26.495,17.985z"/>
</g>
</svg>
