<?xml version="1.0" encoding="utf-8"?>
<!-- Generator: Adobe Illustrator 16.0.0, SVG Export Plug-In . SVG Version: 6.00 Build 0)  -->
<!DOCTYPE svg PUBLIC "-//W3C//DTD SVG 1.1//EN" "http://www.w3.org/Graphics/SVG/1.1/DTD/svg11.dtd">
<svg version="1.1" id="Layer_1" xmlns="http://www.w3.org/2000/svg" xmlns:xlink="http://www.w3.org/1999/xlink" x="0px" y="0px"
	 width="36px" height="36px" viewBox="0 0 36 36" enable-background="new 0 0 36 36" xml:space="preserve">
<rect fill="none" width="36" height="36"/>
<g>
	<path fill="#3C444F" d="M35.99,15.966c-0.043-2.213-1.492-4.07-3.482-4.758c0.65-0.504,1.078-1.285,1.078-2.172
		c0-1.516-1.234-2.752-2.752-2.752s-2.752,1.236-2.752,2.752c0,0.887,0.428,1.668,1.08,2.172c-2.021,0.699-3.484,2.6-3.484,4.855
		c0,0.262,0.211,0.471,0.471,0.471h9.371c0.004,0,0.006,0,0.01,0c0.26,0,0.471-0.209,0.471-0.471
		C36,16.03,35.998,15.997,35.99,15.966z"/>
	<path fill="#3C444F" d="M19.164,17.573c2.469-1.342,4.148-3.957,4.148-6.959c0-4.363-3.549-7.914-7.912-7.914
		s-7.914,3.551-7.914,7.914c0,3.002,1.68,5.617,4.148,6.959C4.961,19.26,0,25.297,0,32.488c0,0.447,0.363,0.811,0.811,0.811h29.176
		c0.006,0,0.012,0,0.016,0c0.447,0,0.811-0.363,0.811-0.811c0-0.057-0.006-0.113-0.018-0.166
		C30.719,25.203,25.785,19.246,19.164,17.573z M22.584,27.949c0,0.447-0.363,0.811-0.811,0.811h-5.637
		c-0.447,0-0.811-0.363-0.811-0.811v-2.045c0-0.449,0.363-0.811,0.811-0.811h5.637c0.447,0,0.811,0.361,0.811,0.811V27.949z"/>
</g>
</svg>
