<?xml version="1.0" encoding="utf-8"?>
<!-- Generator: Adobe Illustrator 16.0.0, SVG Export Plug-In . SVG Version: 6.00 Build 0)  -->
<!DOCTYPE svg PUBLIC "-//W3C//DTD SVG 1.1//EN" "http://www.w3.org/Graphics/SVG/1.1/DTD/svg11.dtd">
<svg width="2048" height="2048" viewBox="-448 -384 2048 2048" xmlns="http://www.w3.org/2000/svg">
  <g transform="scale(1 -1) translate(0 -1280)">
    <path d="M320 768h512v192q0 106 -75 181t-181 75t-181 -75t-75 -181v-192zM1152 672v-576q0 -40 -28 -68t-68 -28h-960q-40 0 -68 28t-28 68v576q0 40 28 68t68 28h32v192q0 184 132 316t316 132t316 -132t132 -316v-192h32q40 0 68 -28t28 -68z" fill="white" />
  </g>
</svg>