<?xml version="1.0" encoding="UTF-8" standalone="no"?>
<!-- Generator: Adobe Illustrator 16.0.0, SVG Export Plug-In . SVG Version: 6.00 Build 0)  -->

<svg
   xmlns:dc="http://purl.org/dc/elements/1.1/"
   xmlns:cc="http://creativecommons.org/ns#"
   xmlns:rdf="http://www.w3.org/1999/02/22-rdf-syntax-ns#"
   xmlns:svg="http://www.w3.org/2000/svg"
   xmlns="http://www.w3.org/2000/svg"
   xmlns:sodipodi="http://sodipodi.sourceforge.net/DTD/sodipodi-0.dtd"
   xmlns:inkscape="http://www.inkscape.org/namespaces/inkscape"
   version="1.1"
   id="Layer_1"
   x="0px"
   y="0px"
   width="32px"
   height="32px"
   viewBox="0 0 32 32"
   enable-background="new 0 0 32 32"
   xml:space="preserve"
   inkscape:version="0.48.4 r9939"
   sodipodi:docname="new-kb.svg"><metadata
   id="metadata3401"><rdf:RDF><cc:Work
       rdf:about=""><dc:format>image/svg+xml</dc:format><dc:type
         rdf:resource="http://purl.org/dc/dcmitype/StillImage" /><dc:title></dc:title></cc:Work></rdf:RDF></metadata><defs
   id="defs3399" /><sodipodi:namedview
   pagecolor="#ffffff"
   bordercolor="#666666"
   borderopacity="1"
   objecttolerance="10"
   gridtolerance="10"
   guidetolerance="10"
   inkscape:pageopacity="0"
   inkscape:pageshadow="2"
   inkscape:window-width="1350"
   inkscape:window-height="661"
   id="namedview3397"
   showgrid="false"
   inkscape:zoom="7.375"
   inkscape:cx="16"
   inkscape:cy="17.491525"
   inkscape:window-x="39"
   inkscape:window-y="101"
   inkscape:window-maximized="0"
   inkscape:current-layer="Layer_1" />

<g
   transform="matrix(0.34029514,0,0,0.29739798,-15.857182,-6.0021019)"
   id="g3460"><path
     fill="#3C444F"
     inkscape:connector-curvature="0"
     d="m 65.808863,115.98474 h 56.003997 c 2.593,0 4.703,-2.109 4.703,-4.703 V 30.687739 c 0,-2.593 -2.11,-4.703 -4.703,-4.703 H 65.808863 c -2.593,0 -4.703,2.11 -4.703,4.703 v 80.594001 c 0,2.594 2.11,4.703 4.703,4.703 z m 54.129997,-10.511 c 0,0.288 -0.234,0.522 -0.522,0.522 H 93.288863 c -0.289,0 -0.522,-0.234 -0.522,-0.522 v -3.658 c 0,-0.287 0.234,-0.522 0.522,-0.522 h 26.127997 c 0.288,0 0.522,0.235 0.522,0.522 v 3.658 z m 0,-10.713001 c 0,0.288 -0.234,0.523 -0.522,0.523 H 93.288863 c -0.289,0 -0.522,-0.235 -0.522,-0.523 v -3.657 c 0,-0.288 0.234,-0.522 0.522,-0.522 h 26.127997 c 0.288,0 0.522,0.234 0.522,0.522 v 3.657 z m -52.255997,-58.527 c 0,-0.288 0.234,-0.522 0.522,-0.522 h 51.210997 c 0.288,0 0.522,0.234 0.522,0.522 v 14.632 c 0,0.288 -0.234,0.522 -0.522,0.522 H 68.204863 c -0.288,0 -0.522,-0.234 -0.522,-0.522 v -14.632 z m 0,21.948 c 0,-0.289 0.234,-0.523 0.522,-0.523 h 51.210997 c 0.288,0 0.522,0.234 0.522,0.523 v 3.658 c 0,0.289 -0.234,0.522 -0.522,0.522 H 68.204863 c -0.288,0 -0.522,-0.234 -0.522,-0.522 v -3.658 z m 0,10.974 c 0,-0.288 0.234,-0.522 0.522,-0.522 h 51.210997 c 0.288,0 0.522,0.234 0.522,0.522 v 3.658 c 0,0.288 -0.234,0.522 -0.522,0.522 H 68.204863 c -0.288,0 -0.522,-0.234 -0.522,-0.522 v -3.658 z m 0,10.974 c 0,-0.287 0.234,-0.522 0.522,-0.522 h 51.210997 c 0.288,0 0.522,0.235 0.522,0.522 v 3.658 c 0,0.288 -0.234,0.522 -0.522,0.522 H 68.204863 c -0.288,0 -0.522,-0.234 -0.522,-0.522 v -3.658 z m 0,10.974 c 0,-0.288 0.234,-0.522 0.522,-0.522 h 19.858 c 0.288,0 0.522,0.234 0.522,0.522 v 14.632001 c 0,0.287 -0.234,0.522 -0.522,0.522 h -19.858 c -0.288,0 -0.522,-0.235 -0.522,-0.522 V 91.103739 z"
     id="path3462" /></g></svg>