<?xml version="1.0" encoding="utf-8"?>
<!-- Generator: Adobe Illustrator 16.0.0, SVG Export Plug-In . SVG Version: 6.00 Build 0)  -->
<!DOCTYPE svg PUBLIC "-//W3C//DTD SVG 1.1//EN" "http://www.w3.org/Graphics/SVG/1.1/DTD/svg11.dtd">
<svg version="1.1" id="Layer_1" xmlns="http://www.w3.org/2000/svg" xmlns:xlink="http://www.w3.org/1999/xlink" x="0px" y="0px"
	 width="32px" height="32px" viewBox="0 0 32 32" enable-background="new 0 0 32 32" xml:space="preserve">
<g>
	<g>
		<path fill="#FFFFFF" d="M12.056,4.522H8.538V1.005c0-0.553-0.455-1.004-1.004-1.004H5.526c-0.549,0-1.004,0.451-1.004,1.004v3.518
			H1.004C0.452,4.522,0,4.978,0,5.526v2.008c0,0.549,0.451,1.004,1.004,1.004h3.518v3.518c0,0.553,0.455,1.004,1.004,1.004h2.008
			c0.549,0,1.004-0.451,1.004-1.004V8.538h3.518c0.553,0,1.004-0.455,1.004-1.004V5.526C13.06,4.978,12.608,4.522,12.056,4.522z"/>
	</g>
	<g>
		<path fill="#FFFFFF" d="M31.408,14.705h-0.945c-0.627-0.004-1.141-0.514-1.141-1.139l-0.004-0.955
			c0-0.627-0.514-1.142-1.142-1.142l-0.957-0.004c-0.623,0-1.133-0.514-1.137-1.141l-0.004-0.953
			c-0.004-0.627-0.514-1.141-1.146-1.141l-0.949-0.004c-0.623,0-1.137-0.514-1.137-1.14l-0.004-0.951
			c0-0.627-0.365-0.776-0.804-0.333L5.804,22.038c-0.443,0.441-0.294,0.806,0.333,0.806l0.949,0.006c0.624,0,1.137,0.51,1.137,1.14
			l0.008,0.948c0,0.628,0.514,1.14,1.141,1.14l0.953,0.004c0.623,0,1.137,0.514,1.141,1.142v0.957
			c0.004,0.625,0.518,1.139,1.146,1.139l0.949,0.004c0.627,0,1.137,0.512,1.141,1.139l0.004,0.949c0,0.631,0.365,0.777,0.809,0.336
			l16.23-16.237C32.188,15.067,32.04,14.705,31.408,14.705z M26.914,17.125l-9.788,9.792c-0.443,0.441-1.169,0.441-1.607,0
			l-4.883-4.878c-0.443-0.443-0.443-1.167,0-1.61l9.792-9.79c0.439-0.443,1.165-0.443,1.608,0l4.878,4.878
			C27.357,15.959,27.357,16.681,26.914,17.125z"/>
		<path fill="#FFFFFF" d="M22.036,13.854c-0.443-0.443-1.169-0.443-1.608,0l-6.572,6.568c-0.443,0.443-0.443,1.168,0,1.612
			l1.659,1.661c0.438,0.441,1.164,0.441,1.607,0l6.572-6.575c0.443-0.443,0.443-1.169,0-1.612L22.036,13.854z"/>
	</g>
</g>
</svg>
