<?xml version="1.0" encoding="UTF-8" standalone="no"?>
<!-- Generator: Adobe Illustrator 16.0.0, SVG Export Plug-In . SVG Version: 6.00 Build 0)  -->

<svg
   xmlns:dc="http://purl.org/dc/elements/1.1/"
   xmlns:cc="http://creativecommons.org/ns#"
   xmlns:rdf="http://www.w3.org/1999/02/22-rdf-syntax-ns#"
   xmlns:svg="http://www.w3.org/2000/svg"
   xmlns="http://www.w3.org/2000/svg"
   xmlns:sodipodi="http://sodipodi.sourceforge.net/DTD/sodipodi-0.dtd"
   xmlns:inkscape="http://www.inkscape.org/namespaces/inkscape"
   version="1.1"
   id="Layer_1"
   x="0px"
   y="0px"
   width="32px"
   height="32px"
   viewBox="0 0 32 32"
   enable-background="new 0 0 32 32"
   xml:space="preserve"
   inkscape:version="0.48.4 r9939"
   sodipodi:docname="new-problem-white.svg"><metadata
   id="metadata3017"><rdf:RDF><cc:Work
       rdf:about=""><dc:format>image/svg+xml</dc:format><dc:type
         rdf:resource="http://purl.org/dc/dcmitype/StillImage" /><dc:title></dc:title></cc:Work></rdf:RDF></metadata><defs
   id="defs3015" /><sodipodi:namedview
   pagecolor="#ffffff"
   bordercolor="#666666"
   borderopacity="1"
   objecttolerance="10"
   gridtolerance="10"
   guidetolerance="10"
   inkscape:pageopacity="0"
   inkscape:pageshadow="2"
   inkscape:window-width="777"
   inkscape:window-height="547"
   id="namedview3013"
   showgrid="false"
   showguides="true"
   inkscape:guide-bbox="true"
   inkscape:zoom="7.375"
   inkscape:cx="15.625235"
   inkscape:cy="11.118644"
   inkscape:window-x="291"
   inkscape:window-y="179"
   inkscape:window-maximized="0"
   inkscape:current-layer="Layer_1" />
<g
   id="g3003">
	<g
   id="g3005">
		
		
	</g>
	<path
   fill="#FFFFFF"
   d="M14.011,4.504h-3.504V1c0-0.551-0.453-1-1-1h-2c-0.547,0-1,0.449-1,1v3.504H3.002c-0.551,0-1,0.453-1,1v2   c0,0.547,0.449,1,1,1h3.504v3.504c0,0.551,0.453,1,1,1h2c0.547,0,1-0.449,1-1V8.504h3.504c0.551,0,1-0.453,1-1v-2   C15.011,4.957,14.562,4.504,14.011,4.504z"
   id="path3011" />
</g>
<path
   style="fill:#ffffff"
   inkscape:connector-curvature="0"
   d="m 19.70573,13.736038 -3.473,3.983 c -0.137,0.157 -0.389,0.186 -0.557,0.06 l -2.275,-1.677 c -0.162,-0.118 -0.2,-0.343 -0.089,-0.495 l 0.611,-0.827 c 0.113,-0.151 0.338,-0.179 0.5,-0.06 l 1.308,0.977 2.681,-3.093 c 0.133,-0.15 0.357,-0.173 0.501,-0.047 l 0.774,0.676 c 0.142,0.125 0.153,0.351 0.019,0.503 z"
   id="path3291" /><path
   style="fill:#ffffff"
   inkscape:connector-curvature="0"
   d="m 29.05773,15.165038 c 0,0.536 -0.449,0.974 -1,0.974 l -4.828,-0.004 c -0.55,0 -1,-0.438 -1,-0.973 0,-0.534 0.45,-0.971 1,-0.971 h 4.828 c 0.551,10e-4 1,0.439 1,0.974 z"
   id="path3295" /><path
   style="fill:#ffffff"
   inkscape:connector-curvature="0"
   d="m 19.70573,19.044038 -3.474,3.982 c -0.137,0.158 -0.389,0.186 -0.557,0.061 l -2.274,-1.677 c -0.162,-0.117 -0.2,-0.342 -0.089,-0.494 l 0.611,-0.828 c 0.113,-0.15 0.338,-0.178 0.5,-0.059 l 1.308,0.977 2.681,-3.094 c 0.133,-0.15 0.357,-0.172 0.501,-0.047 l 0.774,0.676 c 0.142,0.124 0.153,0.351 0.019,0.503 z"
   id="path3299" /><path
   style="fill:#ffffff"
   inkscape:connector-curvature="0"
   d="m 29.05773,20.474038 c 0,0.535 -0.449,0.973 -1,0.973 l -4.828,-0.004 c -0.55,0 -1,-0.438 -1,-0.973 0,-0.533 0.45,-0.971 1,-0.971 h 4.828 c 0.551,0 1,0.44 1,0.975 z"
   id="path3303" /><path
   style="fill:#ffffff"
   inkscape:connector-curvature="0"
   d="m 19.70573,24.352038 -3.474,3.983 c -0.137,0.157 -0.389,0.186 -0.557,0.06 l -2.275,-1.677 c -0.162,-0.118 -0.2,-0.343 -0.089,-0.495 l 0.611,-0.827 c 0.113,-0.151 0.338,-0.179 0.5,-0.06 l 1.308,0.977 2.681,-3.093 c 0.133,-0.15 0.357,-0.173 0.501,-0.047 l 0.774,0.676 c 0.143,0.125 0.154,0.352 0.02,0.503 z"
   id="path3307" /><path
   style="fill:#ffffff"
   inkscape:connector-curvature="0"
   d="m 29.05773,25.782038 c 0,0.536 -0.449,0.974 -1,0.974 l -4.828,-0.004 c -0.55,0 -1,-0.438 -1,-0.973 0,-0.534 0.45,-0.971 1,-0.971 h 4.828 c 0.551,0 1,0.438 1,0.974 z"
   id="path3311" /></svg>