<?xml version="1.0" encoding="UTF-8" standalone="no"?>
<!-- Generator: Adobe Illustrator 16.0.0, SVG Export Plug-In . SVG Version: 6.00 Build 0)  -->

<svg
   xmlns:dc="http://purl.org/dc/elements/1.1/"
   xmlns:cc="http://creativecommons.org/ns#"
   xmlns:rdf="http://www.w3.org/1999/02/22-rdf-syntax-ns#"
   xmlns:svg="http://www.w3.org/2000/svg"
   xmlns="http://www.w3.org/2000/svg"
   xmlns:sodipodi="http://sodipodi.sourceforge.net/DTD/sodipodi-0.dtd"
   xmlns:inkscape="http://www.inkscape.org/namespaces/inkscape"
   version="1.1"
   id="Layer_1"
   x="0px"
   y="0px"
   width="32px"
   height="32px"
   viewBox="0 0 32 32"
   enable-background="new 0 0 32 32"
   xml:space="preserve"
   inkscape:version="0.48.4 r9939"
   sodipodi:docname="new-problem-white.svg"><metadata
   id="metadata3017"><rdf:RDF><cc:Work
       rdf:about=""><dc:format>image/svg+xml</dc:format><dc:type
         rdf:resource="http://purl.org/dc/dcmitype/StillImage" /><dc:title></dc:title></cc:Work></rdf:RDF></metadata><defs
   id="defs3015" /><sodipodi:namedview
   pagecolor="#ffffff"
   bordercolor="#666666"
   borderopacity="1"
   objecttolerance="10"
   gridtolerance="10"
   guidetolerance="10"
   inkscape:pageopacity="0"
   inkscape:pageshadow="2"
   inkscape:window-width="777"
   inkscape:window-height="547"
   id="namedview3013"
   showgrid="false"
   showguides="true"
   inkscape:guide-bbox="true"
   inkscape:zoom="7.375"
   inkscape:cx="15.625235"
   inkscape:cy="11.118644"
   inkscape:window-x="291"
   inkscape:window-y="179"
   inkscape:window-maximized="0"
   inkscape:current-layer="Layer_1" />
<g
   id="g3003">
	<g
   id="g3005">
		
		
	</g>
	<path
   fill="#FFFFFF"
   d="M14.011,4.504h-3.504V1c0-0.551-0.453-1-1-1h-2c-0.547,0-1,0.449-1,1v3.504H3.002c-0.551,0-1,0.453-1,1v2   c0,0.547,0.449,1,1,1h3.504v3.504c0,0.551,0.453,1,1,1h2c0.547,0,1-0.449,1-1V8.504h3.504c0.551,0,1-0.453,1-1v-2   C15.011,4.957,14.562,4.504,14.011,4.504z"
   id="path3011" />
</g>
<g
   transform="matrix(1.3898034,0,0,1.5845681,8.169197,10.001422)"
   id="g3089"><g
     id="g3091"><path
       style="fill:#ffffff"
       inkscape:connector-curvature="0"
       d="m 1.522,9.414 h 0.603 c 0.35,0 0.676,-0.285 0.723,-0.633 L 3.562,3.529 C 3.61,3.181 3.361,2.897 3.011,2.897 H 0.55 c -0.35,0 -0.596,0.284 -0.543,0.631 l 0.784,5.254 c 0.051,0.347 0.38,0.632 0.731,0.632 z"
       id="path3093" /><circle
       d="m 3.2180001,11.697 c 0,0.776512 -0.6294877,1.406 -1.4060001,1.406 -0.7765123,0 -1.40599998,-0.629488 -1.40599998,-1.406 0,-0.776513 0.62948768,-1.406 1.40599998,-1.406 0.7765124,0 1.4060001,0.629487 1.4060001,1.406 z"
       style="fill:#ffffff"
       sodipodi:ry="1.406"
       sodipodi:rx="1.406"
       sodipodi:cy="11.697"
       sodipodi:cx="1.812"
       cx="1.812"
       cy="11.697"
       r="1.406"
       id="circle3095" /></g><g
     id="g3097"><path
       style="fill:#ffffff"
       inkscape:connector-curvature="0"
       d="m 7.738,9.414 h 0.603 c 0.35,0 0.676,-0.285 0.724,-0.633 L 9.78,3.529 C 9.827,3.181 9.578,2.897 9.227,2.897 H 6.766 c -0.35,0 -0.596,0.284 -0.543,0.631 l 0.784,5.254 c 0.05,0.347 0.38,0.632 0.731,0.632 z"
       id="path3099" /><circle
       d="m 9.4330004,11.697 c 0,0.776512 -0.6294876,1.406 -1.406,1.406 -0.7765123,0 -1.406,-0.629488 -1.406,-1.406 0,-0.776513 0.6294877,-1.406 1.406,-1.406 0.7765124,0 1.406,0.629487 1.406,1.406 z"
       style="fill:#ffffff"
       sodipodi:ry="1.406"
       sodipodi:rx="1.406"
       sodipodi:cy="11.697"
       sodipodi:cx="8.0270004"
       cx="8.0270004"
       cy="11.697"
       r="1.406"
       id="circle3101" /></g><g
     id="g3103"><g
       id="g3105"><path
         style="fill:#ffffff"
         inkscape:connector-curvature="0"
         d="m 13.953,9.414 h 0.604 c 0.35,0 0.676,-0.285 0.723,-0.633 L 15.995,3.529 C 16.043,3.181 15.794,2.897 15.443,2.897 h -2.461 c -0.351,0 -0.596,0.284 -0.544,0.631 l 0.784,5.254 c 0.05,0.347 0.381,0.632 0.731,0.632 z"
         id="path3107" /><circle
         d="m 15.649,11.697 c 0,0.776512 -0.629488,1.406 -1.406,1.406 -0.776512,0 -1.406,-0.629488 -1.406,-1.406 0,-0.776513 0.629488,-1.406 1.406,-1.406 0.776512,0 1.406,0.629487 1.406,1.406 z"
         style="fill:#ffffff"
         sodipodi:ry="1.406"
         sodipodi:rx="1.406"
         sodipodi:cy="11.697"
         sodipodi:cx="14.243"
         cx="14.243"
         cy="11.697"
         r="1.406"
         id="circle3109" /></g></g></g></svg>