<?xml version="1.0" encoding="utf-8"?>
<!-- Generator: Adobe Illustrator 16.0.0, SVG Export Plug-In . SVG Version: 6.00 Build 0)  -->
<!DOCTYPE svg PUBLIC "-//W3C//DTD SVG 1.1//EN" "http://www.w3.org/Graphics/SVG/1.1/DTD/svg11.dtd">
<svg version="1.1" id="Layer_1" xmlns="http://www.w3.org/2000/svg" xmlns:xlink="http://www.w3.org/1999/xlink" x="0px" y="0px"
	 width="32px" height="32px" viewBox="0 0 32 32" enable-background="new 0 0 32 32" xml:space="preserve">
<g>
	<g>
		<path fill="#FFFFFF" d="M23.581,20.432h1.891c1.098,0,2.121-0.893,2.27-1.982l2.238-16.467C30.128,0.893,29.351,0,28.249,0h-7.715
			c-1.102,0-1.867,0.891-1.707,1.979l2.457,16.475C21.448,19.541,22.479,20.432,23.581,20.432z"/>
		<path fill="#FFFFFF" d="M24.487,23.182c-2.434,0-4.406,1.973-4.406,4.41c0,2.432,1.973,4.408,4.406,4.408
			c2.438,0,4.41-1.977,4.41-4.408C28.897,25.154,26.925,23.182,24.487,23.182z"/>
	</g>
	<path fill="#FFFFFF" d="M14.011,4.504h-3.504V1c0-0.551-0.453-1-1-1h-2c-0.547,0-1,0.449-1,1v3.504H3.002c-0.551,0-1,0.453-1,1v2
		c0,0.547,0.449,1,1,1h3.504v3.504c0,0.551,0.453,1,1,1h2c0.547,0,1-0.449,1-1V8.504h3.504c0.551,0,1-0.453,1-1v-2
		C15.011,4.957,14.562,4.504,14.011,4.504z"/>
</g>
</svg>
