<?xml version="1.0" encoding="utf-8"?>
<!-- Generator: Adobe Illustrator 16.0.0, SVG Export Plug-In . SVG Version: 6.00 Build 0)  -->
<!DOCTYPE svg PUBLIC "-//W3C//DTD SVG 1.1//EN" "http://www.w3.org/Graphics/SVG/1.1/DTD/svg11.dtd">
<svg version="1.1" id="Layer_1" xmlns="http://www.w3.org/2000/svg" xmlns:xlink="http://www.w3.org/1999/xlink" x="0px" y="0px"
	 width="32px" height="32px" viewBox="0 0 32 32" enable-background="new 0 0 32 32" xml:space="preserve">
<rect x="0" y="0" fill="none" width="31.988" height="31.988"/>
<g>
	<path fill="#FFFFFF" d="M31.273,11.073H30.13c-0.758-0.004-1.378-0.621-1.378-1.378L28.744,8.54c0-0.758-0.621-1.378-1.379-1.378
		L26.21,7.155c-0.758,0-1.374-0.621-1.378-1.378l-0.004-1.154c-0.004-0.757-0.621-1.378-1.383-1.378l-1.148-0.006
		c-0.758,0-1.375-0.621-1.379-1.378l-0.004-1.15c0-0.758-0.441-0.938-0.972-0.402L0.309,19.938
		c-0.535,0.534-0.355,0.976,0.402,0.976l1.148,0.006c0.757,0,1.378,0.619,1.378,1.379l0.008,1.147c0,0.76,0.621,1.379,1.378,1.379
		l1.152,0.006c0.757,0,1.378,0.621,1.382,1.378v1.155c0.004,0.758,0.625,1.379,1.382,1.379l1.152,0.006
		c0.758,0,1.375,0.619,1.378,1.377l0.004,1.149c0,0.76,0.441,0.939,0.977,0.404L31.68,12.046
		C32.215,11.511,32.035,11.073,31.273,11.073z M25.839,13.998l-11.84,11.84c-0.535,0.535-1.409,0.535-1.944,0l-5.904-5.899
		c-0.535-0.535-0.535-1.41,0-1.944L17.994,6.153c0.531-0.535,1.409-0.535,1.944,0l5.9,5.9
		C26.374,12.588,26.374,13.463,25.839,13.998z"/>
	<path fill="#FFFFFF" d="M19.938,10.042c-0.535-0.535-1.413-0.535-1.944,0l-7.95,7.946c-0.535,0.534-0.535,1.411,0,1.946
		l2.007,2.009c0.531,0.535,1.409,0.535,1.944,0l7.95-7.949c0.535-0.535,0.535-1.414,0-1.948L19.938,10.042z"/>
</g>
<g display="none">
	<path display="inline" fill="#3C444F" d="M15.174,20.424h1.89c1.099,0,2.121-0.892,2.27-1.98L21.57,1.982
		C21.719,0.893,20.941,0,19.841,0h-7.711c-1.102,0-1.867,0.891-1.707,1.978l2.455,16.469C13.042,19.534,14.072,20.424,15.174,20.424
		z"/>
	<path display="inline" fill="#3C444F" d="M16.08,23.174c-2.433,0-4.403,1.972-4.403,4.407c0,2.432,1.971,4.407,4.403,4.407
		c2.438,0,4.409-1.976,4.409-4.407C20.488,25.146,18.518,23.174,16.08,23.174z"/>
</g>
<path display="none" fill="#3C444F" d="M31.07,14.388L18.814,5.293c-1.227-0.91-2.23-0.406-2.23,1.121v5L2.757,12.953
	c-1.515,0.168-2.756,1.539-2.756,3.042c0,1.506,1.241,2.874,2.756,3.042l13.827,1.538v5c0,1.523,1.003,2.03,2.234,1.127
	l12.248-9.023C32.297,16.775,32.297,15.294,31.07,14.388z"/>
<g display="none">
	<g display="inline">
		<path fill="#3C444F" d="M3.044,18.821H4.25c0.7,0,1.352-0.569,1.446-1.265l1.428-10.5C7.22,6.361,6.722,5.793,6.022,5.793H1.101
			c-0.7,0-1.19,0.568-1.086,1.262l1.568,10.504C1.684,18.252,2.343,18.821,3.044,18.821z"/>
		<path fill="#3C444F" d="M3.624,20.574c-1.553,0-2.812,1.258-2.812,2.812c0,1.55,1.258,2.812,2.812,2.812s2.811-1.262,2.811-2.812
			C6.435,21.832,5.177,20.574,3.624,20.574z"/>
	</g>
	<g display="inline">
		<path fill="#3C444F" d="M15.47,18.821h1.206c0.699,0,1.351-0.569,1.447-1.265l1.429-10.5c0.094-0.695-0.403-1.264-1.104-1.264
			h-4.92c-0.7,0-1.191,0.568-1.086,1.262l1.567,10.504C14.109,18.252,14.769,18.821,15.47,18.821z"/>
		<path fill="#3C444F" d="M16.049,20.574c-1.553,0-2.812,1.258-2.812,2.812c0,1.55,1.258,2.812,2.812,2.812
			c1.552,0,2.812-1.262,2.812-2.812C18.861,21.832,17.602,20.574,16.049,20.574z"/>
	</g>
	<g display="inline">
		<g>
			<path fill="#3C444F" d="M27.896,18.821h1.206c0.699,0,1.351-0.569,1.444-1.265l1.43-10.5c0.096-0.695-0.402-1.264-1.104-1.264
				h-4.919c-0.701,0-1.19,0.568-1.088,1.262l1.568,10.504C26.536,18.252,27.196,18.821,27.896,18.821z"/>
			<path fill="#3C444F" d="M28.477,20.574c-1.554,0-2.812,1.258-2.812,2.812c0,1.55,1.258,2.812,2.812,2.812
				c1.552,0,2.811-1.262,2.811-2.812C31.287,21.832,30.028,20.574,28.477,20.574z"/>
		</g>
	</g>
</g>
<g display="none">
	<path display="inline" fill="#3C444F" d="M13.292,2.523l-6.944,7.963c-0.273,0.314-0.777,0.371-1.113,0.119L0.686,7.254
		c-0.324-0.236-0.4-0.686-0.178-0.99L1.73,4.61c0.227-0.303,0.676-0.357,1-0.119l2.615,1.953l5.359-6.183
		c0.266-0.301,0.715-0.346,1.002-0.094l1.548,1.351C13.539,1.768,13.56,2.221,13.292,2.523z"/>
	<g display="inline">
		<path fill="#3C444F" d="M31.988,5.381c0,1.072-0.898,1.947-1.999,1.947L20.336,7.32c-1.099,0-1.998-0.875-1.998-1.945
			c0-1.068,0.899-1.941,1.998-1.941h9.653C31.09,3.435,31.988,4.311,31.988,5.381z"/>
	</g>
	<g display="inline">
		<path fill="#3C444F" d="M13.292,13.136l-6.944,7.961c-0.273,0.316-0.777,0.371-1.113,0.121l-4.549-3.354
			c-0.324-0.234-0.4-0.684-0.178-0.988l1.222-1.655c0.227-0.301,0.676-0.355,1-0.117l2.615,1.952l5.359-6.186
			c0.266-0.301,0.715-0.343,1.002-0.094l1.548,1.352C13.539,12.378,13.56,12.832,13.292,13.136z"/>
		<g>
			<path fill="#3C444F" d="M31.988,15.994c0,1.07-0.898,1.945-1.999,1.945l-9.653-0.008c-1.099,0-1.998-0.875-1.998-1.945
				c0-1.065,0.899-1.94,1.998-1.94h9.653C31.09,14.046,31.988,14.925,31.988,15.994z"/>
		</g>
	</g>
	<g display="inline">
		<path fill="#3C444F" d="M13.292,23.747l-6.944,7.964c-0.273,0.314-0.777,0.371-1.113,0.119l-4.549-3.353
			c-0.324-0.236-0.4-0.686-0.178-0.99l1.222-1.653c0.227-0.302,0.676-0.356,1-0.119l2.615,1.952l5.359-6.183
			c0.266-0.301,0.715-0.346,1.002-0.094l1.548,1.352C13.539,22.992,13.56,23.444,13.292,23.747z"/>
		<g>
			<path fill="#3C444F" d="M31.988,26.605c0,1.071-0.898,1.946-1.999,1.946l-9.653-0.008c-1.099,0-1.998-0.875-1.998-1.944
				c0-1.067,0.899-1.94,1.998-1.94h9.653C31.09,24.659,31.988,25.536,31.988,26.605z"/>
		</g>
	</g>
</g>
<g display="none">
	<path display="inline" fill="#3C444F" d="M31.031,8.445L26.206,5.11c-0.887-0.615-2.011-0.547-2.495,0.158l-1.57,2.261l8.06,5.576
		l1.565-2.261C32.246,10.143,31.926,9.067,31.031,8.445z"/>
	<path display="inline" fill="#3C444F" d="M15.42,17.271c0.105,0.018,0.223,0.145,0.34,0.418l0.34,0.742
		c0.258,0.577,0.972,1.071,1.597,1.108l0.812,0.051c0.629,0.039,1.339,0.532,1.596,1.104l0.328,0.736
		c0.258,0.578,0.973,1.072,1.598,1.105l0.82,0.057c0.293,0.018,0.461,0.088,0.52,0.172l5.946-8.394l-8.063-5.576L15.42,17.271z"/>
	<path display="inline" fill="#3C444F" d="M20.699,24.046c-0.469-0.033-1.011-0.41-1.202-0.837l-0.558-1.26
		c-0.188-0.422-0.73-0.799-1.195-0.822l-1.382-0.084c-0.469-0.033-1.004-0.404-1.199-0.836l-0.559-1.255
		c-0.195-0.432-0.395-0.454-0.445-0.055l0.023,3.827l0.008,1.882l0.012,1.692c-0.129,0.883,0.402,1.249,1.195,0.822l1.574-0.588
		l1.758-0.662l3.557-1.343c0.359-0.193,0.262-0.377-0.203-0.398L20.699,24.046z"/>
	<path display="inline" fill="#3C444F" d="M8.298,20.042H1c-0.551,0-1,0.448-1,0.999v7.304c0,0.551,0.449,1,1,1h7.298
		c0.551,0,1-0.449,1-1v-7.304C9.298,20.49,8.849,20.042,8.298,20.042z"/>
	<path display="inline" fill="#3C444F" d="M8.298,2.644H1c-0.551,0-1,0.449-1,1v7.306c0,0.551,0.449,1,1,1h7.298
		c0.551,0,1-0.449,1-1V3.644C9.298,3.093,8.849,2.644,8.298,2.644z"/>
</g>
<g display="none">
	<path display="inline" fill="#3C444F" d="M31.602,21.133l-4.258-4.881c0.902-1.065,1.519-2.349,1.737-3.77
		c0.312-2.03-0.18-4.064-1.386-5.732c-1.456-2.009-3.803-3.208-6.275-3.208c-1.62,0-3.17,0.506-4.481,1.458
		c-1.663,1.207-2.749,2.993-3.065,5.027c-0.316,2.033,0.18,4.069,1.391,5.734c1.453,2.007,3.795,3.206,6.266,3.206l0,0
		c0.98,0,1.926-0.205,2.816-0.56l3.451,5.485c0.516,0.795,1.562,0.993,2.333,0.434l1.19-0.865
		C32.086,22.908,32.215,21.859,31.602,21.133z M18.5,13.414c-0.585-0.807-0.827-1.792-0.675-2.773
		c0.152-0.974,0.671-1.827,1.463-2.403c0.625-0.457,1.362-0.697,2.132-0.697c1.195,0,2.332,0.584,3.039,1.558
		c0.585,0.806,0.823,1.792,0.671,2.772c-0.152,0.974-0.667,1.828-1.46,2.399C22.08,15.434,19.663,15.022,18.5,13.414z"/>
	<path display="inline" fill="#3C444F" d="M8.301,19.144H1c-0.551,0-1,0.449-1,0.999v7.306c0,0.551,0.449,1,1,1h7.302
		c0.551,0,1-0.449,1-1v-7.306C9.301,19.593,8.852,19.144,8.301,19.144z"/>
	<path display="inline" fill="#3C444F" d="M8.301,3.743H1c-0.551,0-1,0.449-1,1v7.308c0,0.55,0.449,1,1,1h7.302c0.551,0,1-0.449,1-1
		V4.743C9.301,4.192,8.852,3.743,8.301,3.743z"/>
</g>
<g display="none">
	<rect x="10.758" y="12.488" display="inline" fill="#3C444F" width="10.472" height="4.698"/>
	<rect x="10.758" y="20.141" display="inline" fill="#3C444F" width="10.472" height="4.698"/>
	<path display="inline" fill="#3C444F" d="M27.026,2.851h-0.84h-1.012h-3.069l0.352-1.763C22.578,0.491,22.176,0,21.566,0H10.423
		c-0.609,0-1.012,0.49-0.891,1.087l0.352,1.763H6.814h-0.75H4.964c-1.218,0-2.216,0.998-2.216,2.216v24.706
		c0,1.216,0.998,2.216,2.216,2.216h22.062c1.218,0,2.217-1,2.217-2.216V5.067C29.243,3.849,28.244,2.851,27.026,2.851z
		 M26.558,28.208c0,0.609-0.5,1.105-1.109,1.105H6.541c-0.609,0-1.108-0.496-1.108-1.105V6.627c0-0.602,0.492-1.095,1.093-1.101
		h3.89l0.218,1.091c0.117,0.598,0.715,1.087,1.324,1.087h8.075c0.606,0,1.204-0.49,1.323-1.087l0.219-1.091h3.89
		c0.602,0.006,1.094,0.5,1.094,1.101V28.208z"/>
</g>
<g display="none">
	<path display="inline" fill="#3C444F" d="M30.188,10.227H29.56h-0.753h-2.292l0.262-1.321c0.09-0.445-0.207-0.811-0.664-0.811
		h-6.178h-2.007h-0.141c-0.453,0-0.754,0.365-0.664,0.811l0.266,1.321h-2.292h-0.562h-0.82c-0.914,0-1.655,0.74-1.655,1.652v10.014
		v2.001v6.438c0,0.907,0.742,1.657,1.655,1.657h16.474c0.909,0,1.655-0.75,1.655-1.657V11.879
		C31.844,10.967,31.098,10.227,30.188,10.227z M29.837,29.165c0,0.451-0.371,0.822-0.828,0.822H14.89
		c-0.457,0-0.828-0.371-0.828-0.822v-5.271v-2.001v-8.848c0-0.445,0.367-0.82,0.82-0.824h2.901l0.164,0.82
		c0.086,0.445,0.531,0.81,0.988,0.81h0.999h5.029c0.457,0,0.902-0.365,0.992-0.81l0.16-0.82h2.904
		c0.453,0.004,0.816,0.379,0.816,0.824V29.165z"/>
	<path display="inline" fill="#3C444F" d="M17.928,15.631v5.437c0,0.451-0.375,0.824-0.832,0.824h-1.046v2.001h2.226
		c0.909,0,1.659-0.749,1.659-1.659v-6.398h-0.999C18.58,15.836,18.248,15.752,17.928,15.631z"/>
	<path display="inline" fill="#3C444F" d="M2.148,21.068V4.948c0-0.445,0.367-0.818,0.82-0.822H5.87l0.164,0.818
		c0.09,0.445,0.531,0.811,0.988,0.811h6.029c0.457,0,0.902-0.365,0.992-0.811l0.16-0.818h2.909c0.449,0.004,0.816,0.376,0.816,0.822
		v1.162h2.007V3.782c0-0.91-0.75-1.649-1.659-1.649h-0.629h-0.753h-2.289l0.258-1.322C14.956,0.366,14.655,0,14.202,0H5.877
		C5.421,0,5.12,0.366,5.214,0.811l0.262,1.322H3.183H2.625H1.801c-0.91,0-1.656,0.74-1.656,1.649v18.452
		c0,0.91,0.746,1.659,1.656,1.659h8.271v-2.001H2.976C2.52,21.893,2.148,21.52,2.148,21.068z"/>
</g>
<g display="none">
	<path display="inline" fill="#3C444F" d="M8.298,19.972H1c-0.551,0-1,0.448-1,0.999v7.304c0,0.551,0.449,1,1,1h7.298
		c0.551,0,1-0.449,1-1v-7.304C9.298,20.42,8.849,19.972,8.298,19.972z"/>
	<path display="inline" fill="#3C444F" d="M8.298,2.726H1c-0.551,0-1,0.449-1,1v7.306c0,0.551,0.449,1,1,1h7.298
		c0.551,0,1-0.449,1-1V3.726C9.298,3.175,8.849,2.726,8.298,2.726z"/>
	<path display="inline" fill="#3C444F" d="M22.773,11.344c-0.781,0.781-0.781,2.046,0,2.827c0.391,0.391,0.902,0.586,1.414,0.586
		s1.022-0.195,1.413-0.586l6.095-6.085c0.391-0.389,0.391-1.025,0-1.414l-6.095-6.085c-0.78-0.781-2.046-0.781-2.827,0
		c-0.781,0.781-0.781,2.046,0,2.827l1.965,1.966H14.272v3.999h10.466L22.773,11.344z"/>
	<path display="inline" fill="#3C444F" d="M25.601,17.83c-0.78-0.781-2.046-0.781-2.827,0c-0.781,0.78-0.781,2.046,0,2.826
		l1.965,1.967H14.272v3.998h10.466l-1.965,1.966c-0.781,0.781-0.781,2.046,0,2.827C23.164,31.805,23.676,32,24.188,32
		s1.022-0.195,1.413-0.586l6.095-6.085c0.391-0.39,0.391-1.025,0-1.414L25.601,17.83z"/>
</g>
<path display="none" fill="#3C444F" d="M30.719,22.68H29.06V4.633c0-1.105-0.894-1.999-1.998-1.999h-6.417V1
	c0-0.551-0.449-1-0.999-1h-7.302c-0.546,0-1,0.449-1,1v1.634H4.933c-1.105,0-2,0.894-2,1.999V22.68H1.27c-0.546,0-1,0.449-1,0.999
	v7.306c0,0.551,0.453,1,1,1h7.302c0.55,0,1-0.449,1-1v-7.306c0-0.55-0.449-0.999-1-0.999h-1.64V6.633h4.413v1.673
	c0,0.551,0.453,1,1,1h7.302c0.55,0,0.999-0.449,0.999-1V6.633h4.417V22.68h-1.644c-0.547,0-1,0.449-1,0.999v7.306
	c0,0.551,0.453,1,1,1h7.301c0.547,0,1-0.449,1-1v-7.306C31.719,23.129,31.266,22.68,30.719,22.68z"/>
<path display="none" fill="#FFFFFF" d="M29.09,11.638h-8.729V2.911c0-1.602-1.309-2.91-2.908-2.91h-2.904
	c-1.6,0-2.908,1.309-2.908,2.91v8.728H2.912c-1.6,0-2.91,1.309-2.91,2.908v2.907c0,1.6,1.311,2.908,2.91,2.908h8.729v8.73
	c0,1.6,1.309,2.908,2.908,2.908h2.904c1.6,0,2.908-1.309,2.908-2.908v-8.73h8.729c1.6,0,2.91-1.309,2.91-2.908v-2.907
	C32,12.947,30.689,11.638,29.09,11.638z"/>
<g display="none">
	<path display="inline" fill="#3C444F" d="M27.252,5.307l-6.828-4.724c-1.252-0.87-2.848-0.776-3.531,0.216l-2.223,3.21
		l11.402,7.893l2.219-3.21C28.98,7.702,28.52,6.182,27.252,5.307z"/>
	<path display="inline" fill="#3C444F" d="M5.165,17.795c0.146,0.028,0.314,0.204,0.482,0.591l0.48,1.059
		c0.357,0.812,1.371,1.514,2.252,1.562l1.152,0.072c0.889,0.058,1.898,0.755,2.258,1.562l0.469,1.048
		c0.361,0.812,1.373,1.515,2.258,1.558l1.158,0.077c0.418,0.026,0.656,0.123,0.736,0.25l8.417-11.881L13.415,5.793L5.165,17.795z"/>
	<path display="inline" fill="#3C444F" d="M12.631,27.385c-0.664-0.048-1.43-0.579-1.697-1.186l-0.793-1.779
		c-0.266-0.601-1.029-1.137-1.693-1.168l-1.957-0.115c-0.66-0.046-1.418-0.577-1.691-1.183l-0.793-1.779
		c-0.275-0.605-0.559-0.645-0.631-0.077l0.029,5.419l0.014,2.659l0.02,2.392c-0.186,1.253,0.57,1.774,1.689,1.169l2.227-0.837
		l2.488-0.931l5.035-1.901c0.506-0.271,0.369-0.534-0.291-0.57L12.631,27.385z"/>
</g>
</svg>
