<?xml version="1.0" encoding="UTF-8" standalone="no"?>
<!-- Generator: Adobe Illustrator 15.1.0, SVG Export Plug-In . SVG Version: 6.00 Build 0)  -->

<svg
   xmlns:dc="http://purl.org/dc/elements/1.1/"
   xmlns:cc="http://creativecommons.org/ns#"
   xmlns:rdf="http://www.w3.org/1999/02/22-rdf-syntax-ns#"
   xmlns:svg="http://www.w3.org/2000/svg"
   xmlns="http://www.w3.org/2000/svg"
   xmlns:sodipodi="http://sodipodi.sourceforge.net/DTD/sodipodi-0.dtd"
   xmlns:inkscape="http://www.inkscape.org/namespaces/inkscape"
   version="1.1"
   id="Layer_1"
   x="0px"
   y="0px"
   width="82px"
   height="100px"
   viewBox="0 0 82 100"
   enable-background="new 0 0 82 100"
   xml:space="preserve"
   inkscape:version="0.48.4 r9939"
   sodipodi:docname="subnet.svg"><metadata
   id="metadata3001"><rdf:RDF><cc:Work
       rdf:about=""><dc:format>image/svg+xml</dc:format><dc:type
         rdf:resource="http://purl.org/dc/dcmitype/StillImage" /><dc:title></dc:title></cc:Work></rdf:RDF></metadata><defs
   id="defs2999" /><sodipodi:namedview
   pagecolor="#ffffff"
   bordercolor="#666666"
   borderopacity="1"
   objecttolerance="10"
   gridtolerance="10"
   guidetolerance="10"
   inkscape:pageopacity="0"
   inkscape:pageshadow="2"
   inkscape:window-width="656"
   inkscape:window-height="480"
   id="namedview2997"
   showgrid="false"
   inkscape:zoom="2.36"
   inkscape:cx="41"
   inkscape:cy="50"
   inkscape:window-x="358"
   inkscape:window-y="164"
   inkscape:window-maximized="0"
   inkscape:current-layer="Layer_1" />
<polygon
   points="30,65 30,53 38,53 38,100 44,100 44,88 52,88 52,100 82,100 82,70 52,70 52,82 44,82 44,18 52,18 52,30 82,30 82,0 52,0 52,12 44,12 44,0 38,0 38,47 30,47 30,35 0,35 0,65 "
   id="polygon2995"
   transform="matrix(-0.00142509,0.88132132,-0.77137058,-0.00162823,78.890118,13.31548)"
   style="fill:#ffffff" />
</svg>