<svg xmlns="http://www.w3.org/2000/svg" width="24" height="24"><path d="M 17.083 11.167 C 13.783 11.167 11.083 13.867 11.083 17.167 C 11.083 20.467 13.783 23.167 17.083 23.167 C 20.383 23.167 23.083 20.467 23.083 17.167 C 23.083 13.867 20.383 11.167 17.083 11.167 Z M 16.083 14.167 L 18.083 14.167 L 18.083 16.167 L 20.083 16.167 L 20.083 18.167 L 18.083 18.167 L 18.083 20.167 L 16.083 20.167 L 16.083 18.167 L 14.083 18.167 L 14.083 16.167 L 16.083 16.167 Z M 22.083 4.167 L 22.083 12.28 C 21.509 11.692 20.832 11.204 20.083 10.846 L 20.083 6.167 L 4.083 6.167 L 4.083 15.167 L 10.376 15.167 C 10.186 15.801 10.083 16.472 10.083 17.167 L 2.083 17.167 L 2.083 4.167 Z M 7.083 20.167 L 7.083 18.167 L 10.155 18.167 C 10.257 18.872 10.465 19.544 10.763 20.167 Z" fill="rgba(159, 159, 159, 1.00)"></path></svg>