<svg xmlns="http://www.w3.org/2000/svg" width="24" height="24"><path d="M 15 3 L 15 12 L 17 12 L 17 8 L 23 8 L 23 3 Z" fill="rgba(225, 225, 225, 1.00)"></path><path d="M 7.7 10 L 7.7 16 L 7 16 L 7 10 Z M 9.45 10 L 9.45 16 L 8.05 16 L 8.05 10 Z M 10.5 10 L 10.5 16 L 9.8 16 L 9.8 10 Z M 11.9 10 L 11.9 16 L 10.85 16 L 10.85 10 Z M 12.95 10 L 12.95 16 L 12.25 16 L 12.25 10 Z M 14 10 L 14 16 L 13.3 16 L 13.3 10 Z M 14 5 L 14 9 L 12.6 9 L 12.6 6.4 L 1.4 6.4 L 1.4 12.7 L 6 12.7 L 6 14.1 L 0 14.1 L 0 5 Z M 3.5 16.2 L 3.5 14.8 L 6 14.8 L 6 16.2 Z" fill="rgba(64, 63, 64, 1.00)"></path></svg>