<svg xmlns="http://www.w3.org/2000/svg" width="31" height="24"><path d="M 17.5 5 C 15.905 5 14.611 6.293 14.611 7.889 C 14.611 9.484 15.905 10.778 17.5 10.778 C 19.095 10.778 20.389 9.484 20.389 7.889 C 20.389 6.293 19.095 5 17.5 5 Z M 15.196 13.228 C 13.163 13.679 11 14.667 11 16.194 L 11 18 L 24 18 L 24 16.194 C 24 14.667 21.838 13.679 19.804 13.228 C 19.262 13.957 18.408 14.387 17.5 14.389 C 16.592 14.387 15.738 13.957 15.196 13.228 Z" fill="rgb(64,63,64)"></path><path d="M 2.25 9 C 1.007 9 0 10.119 0 11.5 C 0 12.881 1.007 14 2.25 14 C 3.275 13.998 4.169 13.227 4.425 12.125 L 6.75 12.125 L 6.75 14 L 9 11.5 L 6.75 9 L 6.75 10.875 L 4.427 10.875 C 4.171 9.772 3.275 9.001 2.25 9 Z" fill="rgba(225, 225, 225, 1.00)"></path></svg>