<svg xmlns="http://www.w3.org/2000/svg" width="24" height="24"><path d="M 8 5 C 6.343 5 5 6.343 5 8 C 5 9.657 6.343 11 8 11 C 9.657 11 11 9.657 11 8 C 11 6.343 9.657 5 8 5 Z M 8 13 C 5 13 1 14.464 1 16.5 L 1 19 L 15 19 L 15 16.5 C 15 14.464 11 13 8 13 Z" fill="rgb(64,63,64)"></path><g transform="translate(13 5)"><path d="M 3 0 C 1.343 0 0 1.343 0 3 C 0 4.657 1.343 6 3 6 C 4.657 6 6 4.657 6 3 C 6 1.343 4.657 0 3 0 Z" fill="hsl(0, 0%, 88%)"></path><path d="M 3 8 C 2.683 8 2.353 8.02 2.021 8.05 C 3.203 8.917 4 10.06 4 11.5 L 4 14 L 10 14 L 10 11.5 C 10 9.464 6 8 3 8 Z" fill="hsl(0, 0%, 88%)"></path></g></svg>