<svg xmlns="http://www.w3.org/2000/svg" width="32" height="24"><path d="M 11 5 L 11 13.802 L 24 13.802 L 24 5 Z M 12.3 6.354 L 22.7 6.354 L 22.7 12.448 L 12.3 12.448 Z M 14.25 14.479 L 14.25 15.833 L 20.75 15.833 L 20.75 14.479 Z" fill="rgb(64,63,64)"></path><path d="M 3.25 8 C 2.007 8 1 9.119 1 10.5 C 1 11.881 2.007 13 3.25 13 C 4.275 12.998 5.169 12.227 5.425 11.125 L 7.75 11.125 L 7.75 13 L 10 10.5 L 7.75 8 L 7.75 9.875 L 5.427 9.875 C 5.171 8.772 4.275 8.001 3.25 8 Z" fill="rgba(225, 225, 225, 1.00)"></path></svg>