<svg xmlns="http://www.w3.org/2000/svg" width="32" height="24"><path d="M 18.15 9.464 L 18.15 14.821 L 17.5 14.821 L 17.5 9.464 Z M 19.775 9.464 L 19.775 14.821 L 18.475 14.821 L 18.475 9.464 Z M 20.75 9.464 L 20.75 14.821 L 20.1 14.821 L 20.1 9.464 Z M 22.05 9.464 L 22.05 14.821 L 21.075 14.821 L 21.075 9.464 Z M 23.025 9.464 L 23.025 14.821 L 22.375 14.821 L 22.375 9.464 Z M 24 9.464 L 24 14.821 L 23.35 14.821 L 23.35 9.464 Z M 24 5 L 24 8.571 L 22.7 8.571 L 22.7 6.25 L 12.3 6.25 L 12.3 11.875 L 16.571 11.875 L 16.571 13.125 L 11 13.125 L 11 5 Z M 14.25 15 L 14.25 13.75 L 16.571 13.75 L 16.571 15 Z" fill="rgb(64,63,64)"></path><path d="M 3.25 8 C 2.007 8 1 9.119 1 10.5 C 1 11.881 2.007 13 3.25 13 C 4.275 12.998 5.169 12.227 5.425 11.125 L 7.75 11.125 L 7.75 13 L 10 10.5 L 7.75 8 L 7.75 9.875 L 5.427 9.875 C 5.171 8.772 4.275 8.001 3.25 8 Z" fill="rgba(225, 225, 225, 1.00)"></path></svg>