<?xml version="1.0" encoding="UTF-8"?>
<svg width="16px" height="21px" viewBox="0 0 16 21" version="1.1" xmlns="http://www.w3.org/2000/svg" xmlns:xlink="http://www.w3.org/1999/xlink">
    <!-- Generator: Sketch 50.2 (55047) - http://www.bohemiancoding.com/sketch -->
    <title>Group 37</title>
    <desc>Created with Sketch.</desc>
    <defs></defs>
    <g id="icons" stroke="none" stroke-width="1" fill="none" fill-rule="evenodd">
        <g id="Group-37" transform="translate(-4.000000, -1.000000)">
            <rect id="Rectangle-44" x="0" y="0" width="24" height="24"></rect>
            <path style="fill: #403f40" d="M12.0008716,22.9995033 C10.1264333,22.9995033 8.58551386,21.5212576 8.50772597,19.648434 L8.00108985,7.450649 C7.96915566,6.68180048 8.56654275,6.03263783 9.33539127,6.00070364 C9.35465488,5.99990352 9.37393302,5.99950334 9.39321324,5.99950334 L14.6085299,5.99950334 C15.3780413,5.99950334 16.0018536,6.6233156 16.0018536,7.39282703 C16.0018536,7.41210725 16.0014534,7.43138539 16.0006533,7.450649 L15.4940172,19.648434 C15.4162293,21.5212576 13.8753098,22.9995033 12.0008716,22.9995033 Z M11.8243474,7.77033667 C10.6544483,7.77033667 9.70605776,8.72173158 9.70605776,9.89533667 C9.70605776,11.0689418 10.6544483,12.0203367 11.8243474,12.0203367 C12.9942465,12.0203367 13.9426371,11.0689418 13.9426371,9.89533667 C13.9426371,8.72173158 12.9942465,7.77033667 11.8243474,7.77033667 Z M14.6260215,4.70902512 L13.9222283,5.44175107 L13.5225334,5.11932236 C13.1241699,4.79786997 12.6129013,4.62091251 12.0827264,4.62091251 C11.5488234,4.62091251 11.0362234,4.79835813 10.6397239,5.12029868 L10.2410942,5.44394778 L9.53490437,4.71317447 L9.93353413,4.38952536 C10.5249548,3.90917737 11.288396,3.64459545 12.0827264,3.64459545 C12.8722636,3.64459545 13.6333082,3.90820106 14.2263266,4.38659641 L14.6260215,4.70902512 Z M16.00086,2.94227664 L15.3052192,3.81481119 L14.9168697,3.42408911 C14.1143676,2.61628438 13.0783344,2.1710838 11.9995568,2.1710838 C10.920258,2.1710838 9.8852674,2.61394122 9.08406847,3.41764541 L8.69545832,3.80778171 L8.00086002,2.93378268 L8.38973081,2.54364639 C9.38197686,1.54780299 10.6640515,0.999503338 11.9995568,0.999503338 C13.3353228,0.999503338 14.61844,1.55043905 15.6125105,2.55126166 L16.00086,2.94227664 Z" id="Combined-Shape" fill="#000000" transform="translate(12.000860, 11.999503) rotate(-30.000000) translate(-12.000860, -11.999503) "></path>
        </g>
    </g>
</svg>