<?xml version="1.0" encoding="UTF-8"?>
<svg width="55px" height="62px" viewBox="0 0 55 62" version="1.1" xmlns="http://www.w3.org/2000/svg" xmlns:xlink="http://www.w3.org/1999/xlink">
    <!-- Generator: Sketch 50.2 (55047) - http://www.bohemiancoding.com/sketch -->
    <title>Group 2 Copy 9</title>
    <desc>Created with Sketch.</desc>
    <defs>
        <path d="M35.8604921,61.3573637 C33.2126824,61.3573637 31.0662085,59.2108898 31.0662085,56.5630801 C31.0662085,53.9152704 33.2126824,51.7687966 35.8604921,51.7687966 C44.646406,51.7687966 51.7687966,44.646406 51.7687966,35.8604921 C51.7687966,27.0745781 44.646406,19.9521875 35.8604921,19.9521875 C27.0745781,19.9521875 19.9521875,27.0745781 19.9521875,35.8604921 C19.9521875,37.2510945 20.1294783,38.6138859 20.4757356,39.9280889 C21.1503406,42.4885194 19.6215769,45.1110338 17.0611465,45.7856387 C14.500716,46.4602437 11.8782016,44.9314801 11.2035966,42.3710496 C10.6477208,40.2612499 10.3636204,38.0774386 10.3636204,35.8604921 C10.3636204,21.7789587 21.7789587,10.3636204 35.8604921,10.3636204 C49.9420254,10.3636204 61.3573637,21.7789587 61.3573637,35.8604921 C61.3573637,49.9420254 49.9420254,61.3573637 35.8604921,61.3573637 Z" id="path-1"></path>
    </defs>
    <g id="icons" stroke="none" stroke-width="1" fill="none" fill-rule="evenodd">
        <g id="Group-2-Copy-9" transform="translate(-5.000000, -5.000000)">
            <g id="Group-20-Copy-2" transform="translate(0.000000, 5.000000)">
                <g id="Group-21">
                    <mask id="mask-2" fill="white">
                        <use xlink:href="#path-1"></use>
                    </mask>
                    <use id="Oval-5" fill="#E4E7EB" fill-rule="nonzero" transform="translate(35.860492, 35.860492) rotate(-141.000000) translate(-35.860492, -35.860492) " xlink:href="#path-1"></use>
                    <path d="M0.497835753,59.9703437 C17.65095,73.3962253 26.6636812,79.7846101 27.5360294,79.135498 C28.8445517,78.1618299 45.3100823,52.591442 45.3100823,49.1815597 C45.3100823,45.4996614 33.9685355,34.568684 11.2854421,16.3886276 L0.497835753,59.9703437 Z" id="Oval" fill="#D5DAE0" mask="url(#mask-2)"></path>
                </g>
            </g>
            <g id="Group-36" transform="translate(25.807368, 32.359927) rotate(-30.000000) translate(-25.807368, -32.359927) translate(14.307368, 1.859927)">
                <g id="Group-2-Copy-3" transform="translate(11.500000, 37.000000) rotate(-180.000000) translate(-11.500000, -37.000000) translate(0.000000, 13.000000)">
                    <path d="M11.5,0 L11.5,0 C16.8094917,-9.75337794e-16 21.1744531,4.18687548 21.3954902,9.49176419 L22.8263949,43.8334778 C22.9183626,46.0407017 21.2036086,47.9045646 18.9963848,47.9965323 C18.9409075,47.9988438 18.8853881,48 18.8298626,48 L4.17013738,48 C1.96099838,48 0.170137383,46.209139 0.170137383,44 C0.170137383,43.9444746 0.171293536,43.8889551 0.173605091,43.8334778 L1.60450983,9.49176419 C1.82554685,4.18687548 6.19050834,9.75337794e-16 11.5,0 Z" id="Rectangle-39" fill="#77879B"></path>
                    <g id="Group" transform="translate(6.000000, 31.000000)" fill="#546780">
                        <circle id="Oval-7" cx="6" cy="6" r="6"></circle>
                    </g>
                </g>
                <g id="icons8-online-copy" transform="translate(11.000000, 5.098076) rotate(-90.000000) translate(-11.000000, -5.098076) translate(6.500000, -3.401924)" fill="#DDE1E6" fill-rule="nonzero">
                    <g id="Group" transform="translate(0.000000, 3.000000)">
                        <path d="M1.46358026,10.8759353 L0.0213345742,9.40567307 L0.655980326,8.57068873 C1.28870437,7.73848581 1.63701487,6.67041789 1.63701487,5.56285372 C1.63701487,4.44750155 1.28774351,3.37665221 0.654058613,2.54834329 L0.0170107197,1.71558409 L1.45541298,0.240315281 L2.09246087,1.07307448 C3.03794372,2.30858429 3.55872797,3.90345445 3.55872797,5.56285372 C3.55872797,7.21223985 3.03986543,8.80210344 2.09822601,10.040951 L1.46358026,10.8759353 Z" id="Shape"></path>
                    </g>
                    <g id="Group" transform="translate(3.000000, 0.000000)">
                        <path d="M1.94112241,16.7480476 L0.223687405,15.2948161 L0.992756989,14.4835329 C2.58278241,12.8070624 3.45908359,10.642733 3.45908359,8.38910806 C3.45908359,6.13439411 2.58739452,3.97224267 1.0054403,2.29849461 L0.23752374,1.48666691 L1.95784131,0.035613377 L2.72575787,0.847985563 C4.68590523,2.9208414 5.76513931,5.59916498 5.76513931,8.38910806 C5.76513931,11.1795956 4.6807166,13.8600972 2.7107685,15.9367644 L1.94112241,16.7480476 Z" id="Shape"></path>
                    </g>
                </g>
            </g>
        </g>
    </g>
</svg>