<svg xmlns="http://www.w3.org/2000/svg" xmlns:xlink="http://www.w3.org/1999/xlink" version="1.1" id="Layer_1" x="0px" y="0px" width="100px" height="100px" viewBox="0 0 100 100" enable-background="new 0 0 100 100" xml:space="preserve">
<ellipse fill="#fff" fill-opacity="0.2" cx="44.759" cy="33.672" rx="4.279" ry="8.557"/>
<ellipse fill="#fff" fill-opacity="0.2" cx="59.022" cy="33.672" rx="4.279" ry="8.557"/>
<path fill="#fff" fill-opacity="0.2" d="M42.047,50.649c-0.426,0.71-0.196,1.632,0.515,2.058c3.433,2.06,6.674,2.772,9.518,2.772c6.337,0,10.693-3.542,10.755-3.594  c0.636-0.53,0.722-1.477,0.192-2.112c-0.53-0.637-1.475-0.722-2.113-0.192c-0.074,0.062-7.528,6.12-16.809,0.554  C43.396,49.707,42.473,49.938,42.047,50.649z"/>
<polygon fill="#fff" fill-opacity="0.2" points="13.707,58.352 8,63.492 8.139,68 15.677,63.706 "/>
<polygon fill="#fff" fill-opacity="0.2" points="21,86 19,94 26.574,92.148 29,89 24,89.154 "/>
<polygon fill="#fff" fill-opacity="0.2" points="45,91 47.546,97 54.677,94.148 53,90 "/>
<path fill="#fff" fill-opacity="0.2" d="M83.776,80.816L88.333,81l3.444-3.889l-4.231-2.078L90,69l-6-4l-1.933,2.334l-1.654-1.181L78.677,59L75,58.081V29.394  C75,16.494,64.633,6,51.891,6C38.94,6,28,16.713,28,29.394v29.088l-4.88,0.813l-0.225,6.534l-1.241,0.931l-2.566-1.711l-2.852,2.852  l-1.426,7.131l1.426,2.852l2.852,2.139v3.566l3.12-1.248l4.011,2.674h7.131l2.852,5.705l18.541-4.279l1.426,4.279l8.985-1.997  L65.677,95l7.131-2.852L71.677,89l-1.877-1.609l6.336-3.801l4.279,5.705l8.557-4.279l-5.41-4.058L83.776,80.816z M24,79l-4-3l5-2  L24,79z M28,68l-3-3l3-3V68z M37,84l-3-3l3-3V84z M58,86v-6l5,3L58,86z M71,71c0,0.165-0.01,0.327-0.028,0.486L70,71l-3-1l-4,5l-4-1  l-2-1l-5,3l-0.872,0.697L48,77l-9.5-3.167L38,73l-0.571,0.476L36,73l-4-3.2V29.394C32,18.881,41.109,10,51.891,10  C62.428,10,71,18.7,71,29.394V71z M76,78l-4-1l3-7l1,4h4L76,78z"/>
</svg>