<svg xmlns="http://www.w3.org/2000/svg" xmlns:xlink="http://www.w3.org/1999/xlink" version="1.1" id="Layer_1" x="0px" y="0px" width="100px" height="100px" viewBox="0 0 100 100" enable-background="new 0 0 100 100" xml:space="preserve">
<path fill="#fff" fill-opacity="0.2" id="rund_22_" d="M84,56.121c-0.753,0-1.494-0.285-2.064-0.822L70.74,44.691c-1.203-1.14-1.254-3.039-0.117-4.242  c1.14-1.206,3.039-1.254,4.242-0.117L81,46.146V21H55.854l5.811,6.135c1.104,1.164,1.095,2.994-0.021,4.146L44.967,48.546  c-1.152,1.191-3.048,1.227-4.242,0.072c-1.191-1.152-1.224-3.051-0.072-4.242l14.682-15.201l-8.634-9.114  c-0.825-0.87-1.053-2.148-0.576-3.249C46.596,15.714,47.682,15,48.879,15H84c1.656,0,3,1.344,3,3v35.121  c0,1.197-0.714,2.283-1.815,2.754C84.804,56.04,84.399,56.121,84,56.121z M53.121,87H18c-1.656,0-3-1.344-3-3V48.879  c0-1.197,0.714-2.283,1.815-2.754c1.098-0.471,2.379-0.246,3.249,0.576L31.26,57.309c1.203,1.14,1.254,3.039,0.117,4.242  c-1.143,1.206-3.039,1.251-4.242,0.117L21,55.854V81h25.146l-5.811-6.135c-1.104-1.164-1.095-2.994,0.021-4.146l16.677-17.265  c1.152-1.188,3.051-1.221,4.242-0.072c1.191,1.152,1.224,3.051,0.072,4.242L46.665,72.825l8.634,9.114  c0.825,0.87,1.053,2.148,0.576,3.249C55.404,86.286,54.318,87,53.121,87z"/>
</svg>