<svg xmlns="http://www.w3.org/2000/svg" xmlns:xlink="http://www.w3.org/1999/xlink" version="1.0" id="Layer_1" x="0px" y="0px" width="26px" height="26px" viewBox="0 0 26 26" style="enable-background:new 0 0 26 26;" xml:space="preserve">
<path d="M24,16.994h-1v-6.141c1.722-0.446,3-1.997,3-3.859c0-2.209-1.791-4-4-4c-1.862,0-3.412,1.278-3.859,3H15v-2  c0-0.551-0.449-1-1-1h-4c-0.551,0-1,0.449-1,1v2H6v-4c0-0.551-0.449-1-1-1H1c-0.551,0-1,0.449-1,1v10c0,0.551,0.449,1,1,1h4  c0.551,0,1-0.449,1-1v-4h3v2c0,0.551,0.449,1,1,1h4c0.551,0,1-0.449,1-1v-2h3.142c0.363,1.401,1.458,2.495,2.858,2.858v6.141h-1  c-0.551,0-1,0.449-1,1v2h-4.141c-0.446-1.722-1.997-3-3.859-3c-2.209,0-4,1.791-4,4c0,2.209,1.791,4,4,4  c1.862,0,3.412-1.278,3.858-3H19v2c0,0.551,0.449,1,1,1h4c0.551,0,1-0.449,1-1v-6C25,17.443,24.551,16.994,24,16.994z"/>
</svg>