<svg xmlns="http://www.w3.org/2000/svg" xmlns:xlink="http://www.w3.org/1999/xlink" version="1.1" id="Layer_1" x="0px" y="0px" width="20px" height="20px" viewBox="0 0 20 20" enable-background="new 0 0 20 20" xml:space="preserve">
<rect x="-167" y="-33" display="none" fill="#fff" width="198" height="87"/>
<g>
	<path fill="#fff" d="M-95.963-4.818h-51.635c0.075-0.525,0.237-1.047,0.616-1.431c0.518-0.525,1.432-0.792,2.717-0.792   c3.684,0,22.946-0.062,34.103-0.099l8.084-0.024c0.605,0.012,1.948,0.015,3.059-1.086c0.999-0.993,1.484-2.555,1.484-4.777h-2.963   c0,1.868-0.425,2.493-0.608,2.674c-0.22,0.217-0.561,0.227-1.059,0.227l-8.006,0.024c-11.158,0.036-30.411,0.099-34.095,0.099   c-2.104,0-3.727,0.561-4.823,1.671c-1.111,1.121-1.409,2.524-1.493,3.624C-151.95-4.444-153-3.299-153-1.855v28.148   c0,1.637,1.325,2.963,2.963,2.963h54.074c1.638,0,2.963-1.326,2.963-2.963V-1.855C-93-3.491-94.325-4.818-95.963-4.818z    M-98.556,26.849h-48.889V-2.225h48.889V26.849z"/>
	<rect fill="#fff" x="-145.743" y="0.182" width="4.63" height="4.444"/>
	<rect fill="#fff" x="-139.019" y="0.182" width="4.63" height="4.444"/>
	<rect fill="#fff" x="-132.291" y="0.182" width="4.629" height="4.444"/>
	<rect fill="#fff" x="-125.315" y="0.182" width="4.63" height="4.444"/>
	<rect fill="#fff" x="-134.916" y="6.849" width="4.63" height="4.445"/>
	<rect fill="#fff" x="-128.249" y="6.849" width="4.63" height="4.445"/>
	<rect fill="#fff" x="-121.521" y="6.849" width="4.63" height="4.445"/>
	<rect fill="#fff" x="-114.545" y="6.849" width="4.629" height="4.445"/>
	<rect fill="#fff" x="-136.704" y="13.453" width="4.629" height="4.445"/>
	<rect fill="#fff" x="-130.037" y="13.453" width="4.63" height="4.445"/>
	<rect fill="#fff" x="-145.743" y="20.059" width="4.63" height="4.445"/>
	<rect fill="#fff" x="-139.076" y="20.059" width="4.629" height="4.445"/>
	<rect fill="#fff" x="-112.719" y="20.059" width="4.629" height="4.445"/>
	<rect fill="#fff" x="-105.503" y="20.059" width="4.63" height="4.445"/>
	<rect fill="#fff" x="-123.31" y="13.453" width="4.629" height="4.445"/>
	<rect fill="#fff" x="-116.86" y="13.453" width="4.629" height="4.445"/>
	<rect fill="#fff" x="-119.207" y="0.182" width="4.629" height="4.444"/>
	<rect fill="#fff" x="-112.23" y="0.182" width="4.63" height="4.444"/>
	<rect fill="#fff" x="-105.503" y="0.182" width="4.63" height="4.444"/>
	<rect fill="#fff" x="-107.968" y="6.849" width="7.095" height="4.445"/>
	<rect fill="#fff" x="-110.251" y="13.453" width="9.378" height="4.445"/>
	<rect fill="#fff" x="-132.413" y="20.059" width="17.835" height="4.445"/>
	<rect fill="#fff" x="-145.743" y="6.849" width="9.04" height="4.445"/>
	<rect fill="#fff" x="-145.743" y="13.453" width="6.725" height="4.445"/>
</g>
<g>
	<path fill="#fff" d="M-45.975,0.378h-34.423c0.05-0.35,0.158-0.698,0.411-0.954c0.345-0.35,0.955-0.527,1.812-0.527   c2.456,0,15.297-0.042,22.735-0.066l5.39-0.016c0.403,0.008,1.298,0.009,2.039-0.725c0.666-0.662,0.989-1.703,0.989-3.185h-1.975   c0,1.245-0.284,1.662-0.405,1.782c-0.146,0.145-0.374,0.151-0.706,0.151l-5.337,0.017c-7.438,0.024-20.274,0.065-22.729,0.065   c-1.402,0-2.484,0.375-3.216,1.114c-0.741,0.748-0.939,1.683-0.995,2.416C-83.3,0.627-84,1.391-84,2.354v18.766   c0,1.091,0.883,1.976,1.975,1.976h36.05c1.092,0,1.975-0.885,1.975-1.976V2.354C-44,1.263-44.883,0.378-45.975,0.378z    M-47.704,21.489h-32.593V2.106h32.593V21.489z"/>
	<rect fill="#fff" x="-79.162" y="3.711" width="3.086" height="2.963"/>
	<rect fill="#fff" x="-74.679" y="3.711" width="3.086" height="2.963"/>
	<rect fill="#fff" x="-70.194" y="3.711" width="3.086" height="2.963"/>
	<rect fill="#fff" x="-65.543" y="3.711" width="3.086" height="2.963"/>
	<rect fill="#fff" x="-71.944" y="8.156" width="3.086" height="2.963"/>
	<rect fill="#fff" x="-67.499" y="8.156" width="3.086" height="2.963"/>
	<rect fill="#fff" x="-63.014" y="8.156" width="3.086" height="2.963"/>
	<rect fill="#fff" x="-58.363" y="8.156" width="3.086" height="2.963"/>
	<rect fill="#fff" x="-73.136" y="12.559" width="3.086" height="2.963"/>
	<rect fill="#fff" x="-68.691" y="12.559" width="3.086" height="2.963"/>
	<rect fill="#fff" x="-79.162" y="16.963" width="3.086" height="2.963"/>
	<rect fill="#fff" x="-74.718" y="16.963" width="3.086" height="2.963"/>
	<rect fill="#fff" x="-57.146" y="16.963" width="3.086" height="2.963"/>
	<rect fill="#fff" x="-52.335" y="16.963" width="3.086" height="2.963"/>
	<rect fill="#fff" x="-64.207" y="12.559" width="3.086" height="2.963"/>
	<rect fill="#fff" x="-59.907" y="12.559" width="3.086" height="2.963"/>
	<rect fill="#fff" x="-61.471" y="3.711" width="3.086" height="2.963"/>
	<rect fill="#fff" x="-56.82" y="3.711" width="3.086" height="2.963"/>
	<rect fill="#fff" x="-52.335" y="3.711" width="3.086" height="2.963"/>
	<rect fill="#fff" x="-53.979" y="8.156" width="4.73" height="2.963"/>
	<rect fill="#fff" x="-55.501" y="12.559" width="6.252" height="2.963"/>
	<rect fill="#fff" x="-70.275" y="16.963" width="11.89" height="2.963"/>
	<rect fill="#fff" x="-79.162" y="8.156" width="6.026" height="2.963"/>
	<rect fill="#fff" x="-79.162" y="12.559" width="4.483" height="2.963"/>
</g>
<g>
	<path fill="#fff" d="M-7.481,4.827h-25.817c0.038-0.263,0.119-0.524,0.308-0.715c0.259-0.263,0.716-0.396,1.358-0.396   c1.842,0,11.473-0.031,17.052-0.049l4.042-0.012c0.302,0.005,0.974,0.007,1.529-0.543c0.499-0.496,0.742-1.277,0.742-2.389h-1.481   c0,0.934-0.213,1.247-0.304,1.337c-0.11,0.108-0.281,0.113-0.53,0.113l-4.003,0.013c-5.579,0.018-15.206,0.049-17.047,0.049   c-1.052,0-1.863,0.281-2.412,0.836c-0.556,0.561-0.705,1.262-0.747,1.812C-35.475,5.014-36,5.587-36,6.309v14.074   c0,0.818,0.663,1.481,1.481,1.481h27.037c0.819,0,1.481-0.663,1.481-1.481V6.309C-6,5.491-6.663,4.827-7.481,4.827z M-8.778,20.661   h-24.444V6.124h24.444V20.661z"/>
	<rect fill="#fff" x="-32.372" y="7.327" width="2.315" height="2.222"/>
	<rect fill="#fff" x="-29.009" y="7.327" width="2.315" height="2.222"/>
	<rect fill="#fff" x="-25.646" y="7.327" width="2.315" height="2.222"/>
	<rect fill="#fff" x="-22.157" y="7.327" width="2.314" height="2.222"/>
	<rect fill="#fff" x="-26.958" y="10.661" width="2.314" height="2.222"/>
	<rect fill="#fff" x="-23.625" y="10.661" width="2.315" height="2.222"/>
	<rect fill="#fff" x="-20.261" y="10.661" width="2.315" height="2.222"/>
	<rect fill="#fff" x="-16.772" y="10.661" width="2.315" height="2.222"/>
	<rect fill="#fff" x="-27.852" y="13.963" width="2.315" height="2.222"/>
	<rect fill="#fff" x="-24.519" y="13.963" width="2.315" height="2.222"/>
	<rect fill="#fff" x="-32.372" y="17.266" width="2.315" height="2.222"/>
	<rect fill="#fff" x="-29.038" y="17.266" width="2.315" height="2.222"/>
	<rect fill="#fff" x="-15.86" y="17.266" width="2.315" height="2.222"/>
	<rect fill="#fff" x="-12.251" y="17.266" width="2.315" height="2.222"/>
	<rect fill="#fff" x="-21.155" y="13.963" width="2.315" height="2.222"/>
	<rect fill="#fff" x="-17.93" y="13.963" width="2.315" height="2.222"/>
	<rect fill="#fff" x="-19.104" y="7.327" width="2.315" height="2.222"/>
	<rect fill="#fff" x="-15.615" y="7.327" width="2.315" height="2.222"/>
	<rect fill="#fff" x="-12.251" y="7.327" width="2.315" height="2.222"/>
	<rect fill="#fff" x="-13.484" y="10.661" width="3.547" height="2.222"/>
	<rect fill="#fff" x="-14.625" y="13.963" width="4.689" height="2.222"/>
	<rect fill="#fff" x="-25.707" y="17.266" width="8.918" height="2.222"/>
	<rect fill="#fff" x="-32.372" y="10.661" width="4.52" height="2.222"/>
	<rect fill="#fff" x="-32.372" y="13.963" width="3.362" height="2.222"/>
</g>
<g>
	<path fill="#fff" d="M19.012,4.76H1.801C1.826,4.585,1.88,4.411,2.006,4.283c0.172-0.175,0.477-0.264,0.905-0.264   c1.228,0,7.649-0.021,11.368-0.033l2.695-0.008c0.202,0.004,0.649,0.005,1.02-0.362c0.333-0.331,0.495-0.852,0.495-1.593h-0.988   c0,0.623-0.142,0.831-0.203,0.892c-0.073,0.072-0.187,0.076-0.353,0.076l-2.668,0.008C10.558,3.011,4.14,3.032,2.912,3.032   c-0.701,0-1.242,0.187-1.607,0.557C0.934,3.962,0.834,4.43,0.806,4.796C0.35,4.884,0,5.266,0,5.748v9.383   c0,0.545,0.442,0.988,0.988,0.988h18.024c0.546,0,0.988-0.442,0.988-0.988V5.748C20,5.202,19.558,4.76,19.012,4.76z M18.148,15.315   H1.852V5.624h16.296V15.315z"/>
	<rect fill="#fff" x="2.419" y="6.427" width="1.543" height="1.481"/>
	<rect fill="#fff" x="4.661" y="6.427" width="1.543" height="1.481"/>
	<rect fill="#fff" x="6.903" y="6.427" width="1.543" height="1.481"/>
	<rect fill="#fff" x="9.229" y="6.427" width="1.543" height="1.481"/>
	<rect fill="#fff" x="6.028" y="8.649" width="1.543" height="1.481"/>
	<rect fill="#fff" x="8.25" y="8.649" width="1.543" height="1.481"/>
	<rect fill="#fff" x="10.493" y="8.649" width="1.543" height="1.481"/>
	<rect fill="#fff" x="12.818" y="8.649" width="1.543" height="1.481"/>
	<rect fill="#fff" x="5.432" y="10.85" width="1.543" height="1.482"/>
	<rect fill="#fff" x="7.654" y="10.85" width="1.543" height="1.482"/>
	<rect fill="#fff" x="2.419" y="13.052" width="1.543" height="1.481"/>
	<rect fill="#fff" x="4.641" y="13.052" width="1.543" height="1.481"/>
	<rect fill="#fff" x="13.427" y="13.052" width="1.543" height="1.481"/>
	<rect fill="#fff" x="15.833" y="13.052" width="1.543" height="1.481"/>
	<rect fill="#fff" x="9.897" y="10.85" width="1.543" height="1.482"/>
	<rect fill="#fff" x="12.047" y="10.85" width="1.543" height="1.482"/>
	<rect fill="#fff" x="11.265" y="6.427" width="1.543" height="1.481"/>
	<rect fill="#fff" x="13.59" y="6.427" width="1.543" height="1.481"/>
	<rect fill="#fff" x="15.833" y="6.427" width="1.543" height="1.481"/>
	<rect fill="#fff" x="15.011" y="8.649" width="2.365" height="1.481"/>
	<rect fill="#fff" x="14.25" y="10.85" width="3.126" height="1.482"/>
	<rect fill="#fff" x="6.862" y="13.052" width="5.945" height="1.481"/>
	<rect fill="#fff" x="2.419" y="8.649" width="3.013" height="1.481"/>
	<rect fill="#fff" x="2.419" y="10.85" width="2.242" height="1.482"/>
</g>
</svg>